<?xml version="1.0" standalone="no"?>
<!DOCTYPE svg PUBLIC "-//W3C//DTD SVG 1.1//EN" "http://www.w3.org/Graphics/SVG/1.1/DTD/svg11.dtd" >
<svg xmlns="http://www.w3.org/2000/svg" xmlns:xlink="http://www.w3.org/1999/xlink" version="1.1">
<metadata>
Created by FontForge 20150824 at Wed Aug 31 15:10:33 2016
 By Everything Fonts
weknow (c) (weknow.deviantart.com). 2012. All Rights Reserved
</metadata>
<defs>
<font id="COMPUTERRobot" horiz-adv-x="916" >
  <font-face 
    font-family="COMPUTERRobot"
    font-weight="400"
    font-stretch="normal"
    units-per-em="2048"
    panose-1="2 0 0 0 0 0 0 0 0 0"
    ascent="1638"
    descent="-410"
    x-height="696"
    cap-height="1176"
    bbox="50 -384 1450 1516"
    underline-thickness="150"
    underline-position="-442"
    unicode-range="U+0020-F005"
  />
<missing-glyph horiz-adv-x="1124" 
 />
    <glyph glyph-name=".notdef" horiz-adv-x="1124" 
 />
    <glyph glyph-name=".null" horiz-adv-x="0" 
 />
    <glyph glyph-name="nonmarkingreturn" horiz-adv-x="569" 
 />
    <glyph glyph-name="space" unicode=" " horiz-adv-x="569" 
 />
    <glyph glyph-name="space" unicode="&#xa0;" horiz-adv-x="569" 
 />
    <glyph glyph-name="exclam" unicode="!" horiz-adv-x="396" 
d="M122 1176h156q68 -12 68 -68v-476q0 -50 -72 -64h-156q-60 0 -68 92v420q0 96 72 96zM122 388h152q72 -13 72 -64v-160q0 -59 -76 -72h-132q-88 0 -88 92v108q0 96 72 96z" />
    <glyph glyph-name="quotedbl" unicode="&#x22;" horiz-adv-x="412" 
d="M86 1176h76q36 0 36 -48v-44q-24 -124 -68 -124h-16q-24 0 -24 16l16 56h-8q-48 0 -48 48v48q0 48 36 48zM250 1176h76q36 0 36 -48v-44q-24 -124 -68 -124h-16q-24 0 -24 16l20 56q-60 0 -60 56v40q0 48 36 48z" />
    <glyph glyph-name="numbersign" unicode="#" horiz-adv-x="1164" 
d="M246 1176h16q64 -18 64 -72v-252h368v248q17 76 64 76h164q68 -14 68 -64v-260h60q64 -11 64 -56v-16q-16 -56 -56 -56h-68v-176h48q76 -6 76 -56v-12q-7 -60 -60 -60h-64v-256q0 -59 -76 -72h-132q-88 0 -88 88v240h-224v-264q0 -47 -76 -64h-132q-88 0 -88 100v228h-68
q-46 0 -56 68q0 46 68 60h56v176h-60q-55 0 -64 68q15 60 68 60h56v228q0 96 72 96zM470 724v-176h224v176h-224z" />
    <glyph glyph-name="dollar" unicode="$" 
d="M458 1324q67 0 76 -88v-60h272q53 0 60 -84v-156q0 -88 -76 -88h-148q-72 14 -72 72v120h-36v-340h264q64 0 68 -80v-444q0 -74 -68 -84h-264v-44q0 -100 -72 -100h-8q-72 14 -72 72v72h-260q-72 11 -72 68v188q0 76 100 76h96q100 0 100 -76v-116h36v340h-276
q-45 0 -56 64v472q0 54 60 68h272v72q12 76 76 76zM198 1040v-188h72q76 -12 76 -76v-76h36v340h-184zM534 572v-340h36v340h-36z" />
    <glyph glyph-name="percent" unicode="%" horiz-adv-x="1008" 
d="M270 1176q68 -11 68 -68v-148q-12 -68 -68 -68h-148q-72 0 -72 108v68q0 90 52 108h168zM570 1176h16q48 -9 48 -48q0 -23 -68 -276h68q60 -7 60 -56q-164 -636 -180 -660q-39 -44 -92 -44h-132q-60 6 -60 56v8q208 795 260 968q39 52 80 52zM162 1056v-44q4 -12 24 -12
h20q24 0 24 24v20q0 21 -12 24h-44zM742 380h148q60 0 68 -92v-100q0 -96 -76 -96h-128q-84 8 -84 72v144q13 72 72 72zM778 244v-16q3 -24 12 -24h52l4 20v36l-8 8h-48q-12 -4 -12 -24z" />
    <glyph glyph-name="ampersand" unicode="&#x26;" horiz-adv-x="1148" 
d="M110 1176h696q60 -16 60 -60v-348q-69 -128 -120 -128v-4q105 0 124 -36q24 -14 52 -96h176q0 -13 -96 -176l96 -232v-4h-140q-11 0 -40 84q-66 -84 -124 -84h-660q-84 0 -84 88v320q71 132 128 132v4q-54 0 -128 136v320q7 84 60 84zM202 1040v-188h72q54 0 72 -64v-88
h224v340h-368zM346 572v-340h300l60 92q-103 240 -112 248h-248z" />
    <glyph glyph-name="quotesingle" unicode="'" horiz-adv-x="244" 
d="M74 1176h96q24 -13 24 -44v-52q-23 -120 -68 -120h-16q-24 0 -24 16l20 56q-48 0 -56 24v96z" />
    <glyph glyph-name="parenleft" unicode="(" horiz-adv-x="404" 
d="M302 1324q40 0 52 -60l-156 -632q152 -598 152 -624v-24q-20 -36 -48 -36h-20q-82 0 -108 188q-88 329 -124 504q148 616 164 640q32 44 88 44z" />
    <glyph glyph-name="parenright" unicode=")" horiz-adv-x="404" 
d="M110 1324q95 0 120 -196l124 -492q-148 -613 -164 -644q-37 -44 -76 -44h-8q-56 8 -56 56q148 619 156 628q-156 616 -156 640q0 44 60 52z" />
    <glyph glyph-name="asterisk" unicode="*" horiz-adv-x="436" 
d="M214 1176h16q60 -16 60 -56l20 4h4q72 -14 72 -72v-8q0 -23 -20 -48v-4q20 -22 20 -48v-12q0 -50 -68 -64h-16q-14 0 -84 40q-65 -40 -80 -40h-24q-50 0 -64 80q0 17 24 48q-24 20 -24 60q0 53 76 68l20 -4q0 40 68 56z" />
    <glyph glyph-name="plus" unicode="+" horiz-adv-x="532" 
d="M266 852q76 0 76 -88v-52h40q100 0 100 -76v-4q-15 -72 -72 -72h-68v-52q-7 -88 -72 -88h-8q-59 0 -72 76v64h-68q-72 14 -72 72v12q0 61 96 68h44v52q0 88 76 88z" />
    <glyph glyph-name="comma" unicode="," horiz-adv-x="244" 
d="M110 240h24q60 0 60 -48v-52q-23 -120 -68 -120h-8q-32 0 -32 16l20 56q-56 0 -56 36v76q0 36 60 36z" />
    <glyph glyph-name="hyphen" unicode="-" horiz-adv-x="532" 
d="M150 412h224q108 0 108 -72v-16q-18 -64 -72 -64h-284q-76 12 -76 76q0 76 100 76z" />
    <glyph glyph-name="hyphen" unicode="&#xad;" horiz-adv-x="532" 
d="M150 412h224q108 0 108 -72v-16q-18 -64 -72 -64h-284q-76 12 -76 76q0 76 100 76z" />
    <glyph glyph-name="period" unicode="." horiz-adv-x="244" 
d="M110 240h24q60 0 60 -40v-68q0 -40 -48 -40h-56q-40 6 -40 36v84q13 28 60 28z" />
    <glyph glyph-name="slash" unicode="/" horiz-adv-x="564" 
d="M390 1176h16q40 0 48 -56l-68 -268h68q60 -8 60 -56q-152 -583 -180 -660q-41 -44 -92 -44h-132q-60 8 -60 48v8q0 36 260 980q39 48 80 48z" />
    <glyph glyph-name="zero" unicode="0" horiz-adv-x="912" 
d="M114 1176h684q64 -8 64 -64v-960q0 -51 -80 -60h-652q-80 9 -80 60v960q8 64 64 64zM346 1040v-808h220v808h-220z" />
    <glyph glyph-name="one" unicode="1" horiz-adv-x="624" 
d="M114 1176h388q72 0 72 -100v-872q0 -112 -80 -112h-140q-80 0 -80 112v836h-164q-60 17 -60 60v16q0 48 64 60z" />
    <glyph glyph-name="two" unicode="2" 
d="M114 1176h692q54 0 60 -88v-436q0 -80 -64 -80h-456v-340h224v120q0 72 96 72h100q100 0 100 -100v-144q0 -88 -84 -88h-660q-72 11 -72 68v476q9 64 64 64h456v340h-372v-120q-14 -72 -72 -72h-4q-72 14 -72 72v196q0 48 64 60z" />
    <glyph glyph-name="three" unicode="3" 
d="M110 1176h696q47 0 60 -72v-324q-37 -98 -104 -136l-24 -8v-4q58 0 128 -132v-324q0 -72 -64 -84h-680q-72 13 -72 64v192q0 76 100 76h96q100 0 100 -76v-116h224v340h-172q-45 0 -56 64v4q0 48 64 60h164v340h-372v-128q0 -49 -72 -64q-76 13 -76 72v188q0 54 60 68z
" />
    <glyph glyph-name="four" unicode="4" 
d="M114 1176h16q72 0 72 -108v-216h60q84 -8 84 -72v-80h224v404q13 72 64 72h168q64 -13 64 -84v-924q0 -76 -88 -76h-132q-76 13 -76 72v408h-448q-72 15 -72 72v460q15 72 64 72z" />
    <glyph glyph-name="five" unicode="5" 
d="M110 1176h696q46 0 60 -68v-176q-7 -84 -76 -84h-136q-84 0 -84 84v108h-368v-188h72q72 -14 72 -72v-80h460q60 -15 60 -60v-476q-10 -72 -72 -72h-672q-72 11 -72 72v172q0 88 100 88h104q92 -8 92 -68v-124h224v340h-456q-64 9 -64 64v460q9 80 60 80z" />
    <glyph glyph-name="six" unicode="6" 
d="M110 1176h696q60 -14 60 -68v-188q-15 -72 -72 -72h-148q-76 12 -76 76v116h-368v-188h72q72 -14 72 -72v-80h456q64 -10 64 -64v-476q0 -57 -72 -68h-660q-84 0 -84 84v916q7 84 60 84zM346 572v-340h224v340h-224z" />
    <glyph glyph-name="seven" unicode="7" 
d="M802 1176q64 -12 64 -60v-952q0 -59 -76 -72h-132q-88 0 -88 88v860h-368v-116q-12 -76 -76 -76q-76 0 -76 100v136q6 92 56 92h696z" />
    <glyph glyph-name="eight" unicode="8" horiz-adv-x="912" 
d="M114 1176h684q64 -9 64 -64v-336q-60 -136 -120 -136l-4 -4v-4q54 0 124 -128v-352q0 -51 -80 -60h-652q-80 9 -80 60v352q69 128 124 128l-4 4q-66 22 -116 124l-4 16v336q8 64 64 64zM198 1040v-188h72q67 0 76 -88v-64h220v340h-368zM346 572v-340h220v340h-220z" />
    <glyph glyph-name="nine" unicode="9" horiz-adv-x="912" 
d="M114 1176h684q64 -11 64 -56v-968q0 -51 -80 -60h-660q-72 11 -72 68v192q0 72 96 72h100q77 0 100 -60v-132h220v340h-460q-56 16 -56 56v484q10 64 64 64zM198 1040v-188h72q76 0 76 -96v-56h220v340h-368z" />
    <glyph glyph-name="colon" unicode=":" horiz-adv-x="244" 
d="M90 932h68q22 0 36 -24v-96l-24 -24h-96q-24 13 -24 44v60q5 40 40 40zM90 484h60q31 0 44 -24v-96l-24 -24h-96q-24 13 -24 44v60q5 40 40 40z" />
    <glyph glyph-name="semicolon" unicode=";" horiz-adv-x="248" 
d="M90 632h68q40 0 40 -60v-36q0 -36 -28 -48h-84q-36 0 -36 48v48q4 48 40 48zM90 184h60q48 0 48 -60v-32q-29 -124 -52 -124h-48l-8 8q0 20 20 64q-60 0 -60 40v56q4 48 40 48z" />
    <glyph glyph-name="semicolon" unicode="&#x37e;" horiz-adv-x="248" 
d="M90 632h68q40 0 40 -60v-36q0 -36 -28 -48h-84q-36 0 -36 48v48q4 48 40 48zM90 184h60q48 0 48 -60v-32q-29 -124 -52 -124h-48l-8 8q0 20 20 64q-60 0 -60 40v56q4 48 40 48z" />
    <glyph glyph-name="less" unicode="&#x3c;" horiz-adv-x="372" 
d="M282 932q40 -9 40 -36q0 -31 -128 -236l-28 -20v-4q56 -53 156 -248v-16q-10 -32 -36 -32h-16q-88 0 -176 192q-44 63 -44 84v32q0 38 136 244q48 40 96 40z" />
    <glyph glyph-name="equal" unicode="=" horiz-adv-x="532" 
d="M122 856h288q59 0 72 -76q0 -54 -64 -72h-300q-68 11 -68 68v16q0 50 72 64zM122 564h276q84 -7 84 -76q0 -54 -64 -72h-300q-68 11 -68 68v16q0 50 72 64z" />
    <glyph glyph-name="greater" unicode="&#x3e;" horiz-adv-x="372" 
d="M90 932q98 0 168 -156q64 -99 64 -128v-32q-7 -39 -132 -232q-51 -44 -88 -44h-16q-30 0 -36 40q84 184 156 256v4q-26 0 -124 184q-32 44 -32 76q15 32 40 32z" />
    <glyph glyph-name="question" unicode="?" 
d="M110 1176h696q51 0 60 -80v-448q0 -76 -64 -76h-212v-60q-12 -64 -56 -64h-168q-56 16 -56 56v132q10 64 64 64h196v340h-372v-128q0 -49 -72 -64q-76 13 -76 72v188q0 54 60 68zM382 388h152q59 0 72 -76v-144q0 -76 -88 -76h-132q-76 13 -76 72v152q12 72 72 72z" />
    <glyph glyph-name="at" unicode="@" horiz-adv-x="1500" 
d="M106 1184h1288q45 0 56 -64v-728q0 -57 -84 -64h-940q-72 0 -84 64v396q58 148 156 148h600q48 0 60 -64v-404h144v588h-1100v-860h1188q60 -14 60 -68q-14 -68 -60 -68h-1272q-68 11 -68 68v992q12 64 56 64zM638 808v-340h224v340h-224z" />
    <glyph glyph-name="A" unicode="A" horiz-adv-x="912" 
d="M262 1176h388q79 0 108 -144q104 -385 104 -408v-460q0 -59 -76 -72h-132q-88 0 -88 100v380h-220v-380q0 -100 -88 -100h-132q-76 17 -76 64v468q0 35 132 504q41 48 80 48zM306 1040l-48 -184h76q44 0 52 -60l-24 -96h188l-92 340h-152z" />
    <glyph glyph-name="B" unicode="B" 
d="M114 1176h692q60 -16 60 -60v-348q-72 -132 -124 -132v-4q62 0 124 -140v-332q0 -57 -72 -68h-268l-404 -4q-72 15 -72 92v896q7 100 64 100zM202 1040v-188h72q54 0 72 -64v-88h224v340h-368zM346 572v-340h224v340h-224z" />
    <glyph glyph-name="C" unicode="C" 
d="M110 1176h696q46 0 60 -68v-176q-7 -84 -76 -84h-136q-84 0 -84 84v108h-368v-188h72q72 -14 72 -72v-548h224v116q0 76 100 76h96q100 0 100 -76v-184q-10 -72 -72 -72h-672q-72 11 -72 72v944q14 68 60 68z" />
    <glyph glyph-name="D" unicode="D" 
d="M110 1176h616q71 0 140 -136v-800q-58 -148 -160 -148h-172l-412 -4q-72 19 -72 68v952q0 54 60 68zM198 1040v-188h64q84 -7 84 -76v-544h224v808h-372z" />
    <glyph glyph-name="E" unicode="E" 
d="M114 1176h692q54 0 60 -88v-140q0 -100 -76 -100h-148q-72 15 -72 64v128h-372v-188h72q76 0 76 -88v-64h160q64 -11 64 -56v-20q0 -42 -60 -52h-164v-340h224v120q0 72 96 72h100q100 0 100 -100v-144q0 -88 -84 -88h-660q-72 11 -72 68v956q0 48 64 60z" />
    <glyph glyph-name="F" unicode="F" horiz-adv-x="912" 
d="M114 1176h684q64 -8 64 -64v-200q-18 -64 -72 -64h-148q-76 0 -76 92v100h-368v-188h72q76 0 76 -100v-52h160q64 -12 64 -56v-16q-16 -56 -56 -56h-168v-380q0 -100 -88 -100h-132q-76 17 -76 64v956q8 64 64 64z" />
    <glyph glyph-name="G" unicode="G" 
d="M110 1176h692q64 -12 64 -60v-196q-15 -72 -72 -72h-148q-76 0 -76 88v104h-368v-188h72q54 0 72 -64v-556h224v340h-56q-56 16 -56 56v8q9 64 64 64h280q64 -9 64 -64v-476q0 -57 -72 -68h-660q-84 0 -84 88v912q7 84 60 84z" />
    <glyph glyph-name="H" unicode="H" 
d="M114 1176h16q72 0 72 -96v-228h72q72 -14 72 -72v-80h224v404q15 72 64 72h168q49 0 64 -72v-936q0 -76 -88 -76h-120q-88 0 -88 76v404h-224v-408q0 -59 -76 -72h-132q-88 0 -88 76v932q17 76 64 76z" />
    <glyph glyph-name="I" unicode="I" horiz-adv-x="396" 
d="M114 1176h16q68 -11 68 -68v-252h72q76 -12 76 -76v-612q0 -76 -88 -76h-120q-88 0 -88 76v936q15 72 64 72z" />
    <glyph glyph-name="J" unicode="J" 
d="M402 1176h324q71 0 140 -136v-800q-58 -148 -160 -148h-584q-72 13 -72 64v192q0 76 100 76h96q100 0 100 -76v-116h224v808h-168q-46 0 -60 68q14 68 60 68z" />
    <glyph glyph-name="K" unicode="K" 
d="M118 1176h12q68 -14 68 -64v-260h72q76 0 76 -88v-64h168l56 228v180q11 68 68 68h156q72 0 72 -96v-152q-54 -280 -104 -280q0 -8 -20 -8l-4 -4v-4q73 0 112 -220l16 -60v-160q0 -100 -88 -100h-132q-76 17 -76 64v184q0 22 -56 232h-168v-392q0 -88 -88 -88h-132
q-76 13 -76 72v948q0 50 68 64z" />
    <glyph glyph-name="L" unicode="L" horiz-adv-x="912" 
d="M118 1176h16q49 0 64 -72v-252h72q76 0 76 -100v-520h220v92q0 100 100 100h100q96 0 96 -72v-200q0 -51 -80 -60h-652q-80 9 -80 60v956q11 68 68 68z" />
    <glyph glyph-name="M" unicode="M" horiz-adv-x="1436" 
d="M110 1176h1216q46 0 60 -68v-940q0 -76 -88 -76h-120q-88 0 -88 76v872h-224v-396q-11 -72 -72 -72h-152q-59 0 -72 76v392h-368v-188h72q54 0 72 -64v-624q0 -59 -76 -72h-132q-88 0 -88 92v908q7 84 60 84z" />
    <glyph glyph-name="N" unicode="N" 
d="M390 1180q72 0 112 -200l64 -248h4v372q13 72 64 72h168q48 0 64 -76v-920q0 -88 -88 -88h-132q-73 0 -84 108l-228 840h-136v-188h64q84 0 84 -84v-600q0 -76 -88 -76h-120q-88 0 -88 76v940q14 68 60 68h184z" />
    <glyph glyph-name="O" unicode="O" 
d="M114 1176h692q54 0 60 -88v-908q0 -88 -84 -88h-660q-72 11 -72 68v956q0 48 64 60zM346 1040v-808h224v808h-224z" />
    <glyph glyph-name="P" unicode="P" horiz-adv-x="912" 
d="M114 1176h684q64 -8 64 -64v-472q-14 -68 -64 -68h-452v-384q0 -100 -92 -100h-116q-88 7 -88 72v952q8 64 64 64zM198 1040v-188h72q76 0 76 -100v-52h220v340h-368z" />
    <glyph glyph-name="Q" unicode="Q" 
d="M110 1176h692q64 -11 64 -56v-968q0 -51 -80 -60h-652q-84 0 -84 84v916q7 84 60 84zM346 1040v-808h144l-108 400l4 4h76q81 0 104 -140h4v544h-224z" />
    <glyph glyph-name="R" unicode="R" 
d="M802 1176q64 -12 64 -60v-412q0 -72 -112 -72v-4q37 0 92 -92q20 -29 20 -44v-332q0 -57 -72 -68h-136q-88 0 -88 88v392h-224v-412q0 -65 -88 -72h-116q-92 0 -92 100v896q6 92 56 92h696zM202 1040v-188h72q72 -15 72 -64v-88h224v340h-368z" />
    <glyph glyph-name="S" unicode="S" 
d="M110 1176h696q46 0 60 -68v-176q0 -84 -84 -84h-136q-76 12 -76 76v116h-368v-188h72q72 -14 72 -72v-80h456q64 -12 64 -60v-476q-10 -72 -72 -72h-672q-72 11 -72 72v172q0 88 100 88h100q74 0 96 -56v-136h224v340h-456q-64 0 -64 76v448q9 80 60 80z" />
    <glyph glyph-name="T" unicode="T" 
d="M110 1176h696q46 0 60 -68q-12 -68 -68 -68h-264v-188q58 0 72 -76v-608q0 -76 -88 -76h-132q-69 0 -76 84v604q15 72 72 72v188h-272q-46 0 -60 68q14 68 60 68z" />
    <glyph glyph-name="U" unicode="U" 
d="M638 1176h156q72 0 72 -96v-900q0 -88 -84 -88h-260l-404 -4q-68 21 -68 68v952q0 50 68 64h12q68 -11 68 -68v-252h72q76 -12 76 -76v-544h224v876q12 68 68 68z" />
    <glyph glyph-name="V" unicode="V" horiz-adv-x="912" 
d="M118 1176h16q50 0 64 -72v-252h72q76 0 76 -92v-112l108 -428h4l108 416v444q0 96 72 96h156q68 -11 68 -68v-464q-4 -40 -128 -492q-36 -60 -100 -60h-364q-69 0 -100 84l-120 460v472q12 68 68 68z" />
    <glyph glyph-name="W" unicode="W" horiz-adv-x="1436" 
d="M634 1176h164q68 -14 68 -64v-880h224v872q0 54 64 72h168q50 0 64 -72v-948q0 -51 -72 -64h-788l-404 -4q-72 15 -72 92v896q7 96 64 96h24q49 0 64 -72v-248h72q72 -15 72 -64v-556h224v856q11 88 64 88z" />
    <glyph glyph-name="X" unicode="X" 
d="M114 1176h16q72 0 72 -108v-152l12 -64h64q101 0 120 -144l8 -8h104q11 0 60 224v180q13 72 64 72h168q64 -18 64 -72v-180q0 -36 -64 -244q-45 -44 -64 -44v-4q74 0 108 -200l20 -76v-188q0 -76 -88 -76h-132q-76 13 -76 72v192l-56 216h-108q-11 0 -60 -224v-172
q0 -84 -88 -84h-120q-88 0 -88 76v180q52 272 100 272q1 8 28 12v4q-80 33 -80 100q-48 152 -48 188v180q15 72 64 72z" />
    <glyph glyph-name="Y" unicode="Y" 
d="M114 1176h16q68 -12 68 -68v-176l12 -80h64q101 0 116 -152h136l44 232v176q12 68 68 68h156q65 0 72 -88v-164q-58 -328 -88 -328q-28 -24 -56 -24h-116v-392q0 -88 -88 -88h-132q-76 13 -76 72v408h-116q-92 0 -108 176q-36 136 -36 168v188q13 72 64 72z" />
    <glyph glyph-name="Z" unicode="Z" horiz-adv-x="912" 
d="M114 1176h684q64 -11 64 -56v-204q-52 -320 -88 -320q-20 -24 -52 -24h-332q-44 -191 -44 -220v-120h220v80q0 112 92 112h108q96 -7 96 -64v-208q0 -51 -80 -60h-652q-80 9 -80 60v200q54 324 88 324q27 24 56 24h324q12 0 48 216v124h-368v-64q-14 -72 -72 -72h-4
q-72 15 -72 64v144q9 64 64 64z" />
    <glyph glyph-name="bracketleft" unicode="[" horiz-adv-x="536" 
d="M126 1324h284q76 -13 76 -76q0 -76 -112 -76h-172v-1076h208q76 -13 76 -76q-17 -72 -72 -72h-292q-59 0 -72 76v1212q0 88 76 88z" />
    <glyph glyph-name="backslash" unicode="\" horiz-adv-x="692" 
d="M98 1176h16q88 0 124 -184l44 -140h64q105 0 132 -164q164 -511 164 -544v-8q0 -38 -56 -44h-132q-109 0 -132 156l-272 872q9 56 48 56z" />
    <glyph glyph-name="bracketright" unicode="]" horiz-adv-x="532" 
d="M122 1324h284q69 0 76 -84v-1220q-12 -72 -72 -72h-296q-64 18 -64 64v20q0 50 72 64h212v1076h-184q-100 0 -100 72v8q13 72 72 72z" />
    <glyph glyph-name="asciicircum" unicode="^" horiz-adv-x="416" 
d="M158 1176h92q90 0 116 -168q-11 -48 -48 -48h-12q-96 26 -96 88h-4q-30 -88 -96 -88h-8q-52 7 -52 44v16q32 156 108 156z" />
    <glyph glyph-name="underscore" unicode="_" horiz-adv-x="912" 
d="M114 76h684q64 -11 64 -56v-20q0 -42 -60 -52h-696q-56 16 -56 56v16q0 44 64 56z" />
    <glyph glyph-name="grave" unicode="`" horiz-adv-x="296" 
d="M138 1176q79 0 108 -164v-8q0 -37 -52 -44h-8q-89 0 -124 184l-12 28l4 4h84z" />
    <glyph glyph-name="a" unicode="a" 
d="M198 700h604q64 -9 64 -64v-476q0 -57 -72 -68h-660q-84 0 -84 88v372q63 148 148 148zM346 572v-340h224v340h-224z" />
    <glyph glyph-name="b" unicode="b" 
d="M114 1176h16q68 -11 68 -68v-252h72q76 -12 76 -76v-76h360q102 0 160 -148v-376q0 -72 -64 -84h-264l-424 -4q-64 22 -64 72v940q14 72 64 72zM346 576v-340h224v340h-224z" />
    <glyph glyph-name="c" unicode="c" 
d="M198 700h604q64 -9 64 -64v-208q0 -72 -100 -72h-96q-100 0 -100 92v124h-224v-340h452q68 -11 68 -68v-4q0 -57 -72 -68h-660q-84 0 -84 96v372q70 140 148 140z" />
    <glyph glyph-name="d" unicode="d" 
d="M634 1176h168q48 0 64 -76v-932q-15 -76 -68 -76l-424 4h-260q-50 0 -64 68v392q55 148 160 148h360v408q18 64 64 64zM346 576v-340h224v340h-224z" />
    <glyph glyph-name="e" unicode="e" 
d="M198 700h604q64 -12 64 -56v-220q0 -68 -104 -68h-412v-124h448q68 -14 68 -60v-12q0 -57 -72 -68h-660q-84 0 -84 96v372q71 140 148 140zM350 572v-76h220v76h-220z" />
    <glyph glyph-name="f" unicode="f" 
d="M206 700h592q68 -9 68 -68v-188q0 -88 -100 -88h-96q-100 0 -100 76v140h-224v-340h156q65 0 72 -76q0 -49 -72 -64h-156v-404q-15 -72 -64 -72h-160q-72 13 -72 72v864q56 148 156 148z" />
    <glyph glyph-name="g" unicode="g" horiz-adv-x="912" 
d="M194 700h604q64 -11 64 -56v-964q-10 -64 -64 -64h-684q-64 9 -64 64v8q8 64 64 64h452v340h-436q-80 9 -80 60v404q59 144 144 144zM346 572v-340h220v340h-220z" />
    <glyph glyph-name="h" unicode="h" 
d="M114 1176h16q72 0 72 -96v-224h76q50 0 68 -72v-80h360q103 0 160 -148v-388q-10 -72 -72 -72h-148q-76 13 -76 72v408h-224v-412q0 -59 -76 -72h-132q-88 0 -88 76v936q0 54 64 72z" />
    <glyph glyph-name="i" unicode="i" horiz-adv-x="396" 
d="M118 1176h156q65 0 72 -88v-116q0 -92 -100 -92h-88q-108 0 -108 72v156q12 68 68 68zM126 704h132q88 0 88 -92v-428q0 -92 -88 -92h-132q-76 13 -76 72v468q0 59 76 72z" />
    <glyph glyph-name="j" unicode="j" 
d="M634 1176h164q68 -14 68 -64v-164q0 -61 -96 -68h-100q-100 0 -100 80v140q17 76 64 76zM646 696h148q72 -14 72 -72v-948q-17 -60 -60 -60h-688q-68 13 -68 68q13 68 68 68h452v856q0 88 76 88z" />
    <glyph glyph-name="k" unicode="k" 
d="M114 1176h16q68 -12 68 -68v-252h72q76 -12 76 -76v-316h224v168q0 59 76 72h132q88 0 88 -92v-68q-63 -144 -132 -144v-4q69 0 132 -144v-68q0 -92 -88 -92h-132q-76 13 -76 72v168h-224v-164q0 -76 -88 -76h-132q-76 13 -76 72v940q13 72 64 72z" />
    <glyph glyph-name="l" unicode="l" horiz-adv-x="624" 
d="M122 1176h16q64 -18 64 -72v-248h72q54 0 72 -64v-572h172q56 -16 56 -56v-8q0 -55 -68 -64h-368q-88 0 -88 100v888q0 96 72 96z" />
    <glyph glyph-name="m" unicode="m" horiz-adv-x="1436" 
d="M118 704h1108q93 0 160 -140v-372q0 -96 -72 -96h-152q-76 0 -76 112v368h-224l4 -20v-376q0 -72 -64 -84h-160q-72 14 -72 72v408h-224v-408q0 -76 -88 -76h-132q-76 13 -76 72v476q0 55 68 64z" />
    <glyph glyph-name="n" unicode="n" 
d="M118 704h588q95 0 160 -136v-404q-14 -68 -64 -68h-156q-76 12 -76 76v404h-224v-412q0 -59 -76 -72h-132q-88 0 -88 88v456q11 68 68 68z" />
    <glyph glyph-name="o" unicode="o" 
d="M114 696h684q68 -11 68 -68h-4l4 -4v-440q0 -96 -88 -96h-644q-84 0 -84 68v476q8 64 64 64zM346 568v-340h224v340h-224z" />
    <glyph glyph-name="p" unicode="p" 
d="M198 700h604q64 -10 64 -64v-476q0 -57 -72 -68h-448v-412q-18 -64 -64 -64h-160q-65 0 -72 88v848q62 148 148 148zM346 572v-340h224v340h-224z" />
    <glyph glyph-name="q" unicode="q" 
d="M114 700h604q85 0 148 -148v-840q0 -96 -72 -96h-160q-50 0 -64 68v408h-448q-72 11 -72 68v476q9 64 64 64zM346 572v-340h224v340h-224z" />
    <glyph glyph-name="r" unicode="r" 
d="M198 700h604q64 -9 64 -64v-204q0 -76 -100 -76h-96q-100 0 -100 88v128h-224v-404q-15 -72 -72 -72h-148q-76 0 -76 92v364q62 148 148 148z" />
    <glyph glyph-name="s" unicode="s" 
d="M114 700h684q68 -12 68 -64q-11 -64 -64 -64h-456v-76h448q65 0 72 -88v-232q0 -84 -84 -84h-660q-72 11 -72 68v4q11 68 68 68h452v124h-424q-88 5 -88 44q-7 0 -8 20v216q10 64 64 64z" />
    <glyph glyph-name="t" unicode="t" 
d="M122 1176h16q64 -18 64 -72v-248h72q54 0 72 -64v-92h164q64 -9 64 -64v-8q-16 -56 -56 -56h-172v-352h464q56 -16 56 -56v-8q0 -56 -68 -64h-660q-88 0 -88 100v888q0 96 72 96z" />
    <glyph glyph-name="u" unicode="u" 
d="M122 696h148q76 -12 76 -76v-392h224v396q14 72 72 72h148q76 0 76 -88v-436q0 -84 -84 -84h-648q-84 7 -84 64v472q15 72 72 72z" />
    <glyph glyph-name="v" unicode="v" horiz-adv-x="888" 
d="M110 696h148q94 0 116 -184q68 -258 68 -284h4q94 436 116 436q37 32 68 32h148q47 0 60 -60q-112 -478 -128 -504q-32 -44 -92 -44h-348q-112 14 -112 104l-108 444q12 60 60 60z" />
    <glyph glyph-name="w" unicode="w" horiz-adv-x="1436" 
d="M126 696h148q72 -14 72 -72v-396h224v392q12 76 76 76h136q84 -8 84 -72v-396h224v396q15 72 72 72h148q76 -12 76 -76v-460q0 -63 -76 -72h-1176q-84 0 -84 84v436q0 88 76 88z" />
    <glyph glyph-name="x" unicode="x" horiz-adv-x="912" 
d="M126 704h132q88 0 88 -100v-140h220v140q0 100 88 100h132q76 -16 76 -64v-100q-60 -140 -128 -140v-4q68 0 128 -140v-100q0 -47 -76 -64h-132q-88 0 -88 100v140h-220v-140q0 -100 -88 -100h-132q-76 17 -76 64v100q61 140 128 140v4q-68 0 -128 140v100q0 48 76 64z
" />
    <glyph glyph-name="y" unicode="y" 
d="M126 696h148q72 -14 72 -72v-396h224v396q0 64 84 72h136q76 -12 76 -76v-936q-14 -68 -60 -68h-696q-45 0 -60 68q14 68 60 68h460v336h-436q-72 0 -84 64v468q12 76 76 76z" />
    <glyph glyph-name="z" unicode="z" horiz-adv-x="912" 
d="M114 700h684q64 -11 64 -56v-228q0 -54 -88 -60h-428v-124h448q68 -14 68 -60v-20q0 -51 -80 -60h-660q-72 11 -72 68v272q0 51 72 64h444v76h-460q-56 16 -56 56v16q0 44 64 56z" />
    <glyph glyph-name="braceleft" unicode="{" horiz-adv-x="600" 
d="M206 1324h272q72 -15 72 -64v-16q0 -72 -108 -72h-172v-400q0 -109 -80 -132l-8 -8q88 -25 88 -116v-420h208q72 -13 72 -64v-16q-12 -68 -68 -68h-292q-72 14 -72 72v480q-68 47 -68 96v80q0 52 64 88h4v472q0 88 88 88z" />
    <glyph glyph-name="bar" unicode="|" horiz-adv-x="252" 
d="M126 1324q76 0 76 -96v-1192q-7 -88 -72 -88h-8q-59 0 -72 76v1212q0 88 76 88z" />
    <glyph glyph-name="braceright" unicode="}" horiz-adv-x="600" 
d="M122 1324h272q88 -7 88 -72v-480q68 -50 68 -88v-92q0 -55 -68 -88v-484q-15 -72 -64 -72h-304q-50 0 -64 72v4q11 72 72 72h212v440q0 65 84 96h4q0 9 -28 12q-60 42 -60 88v440h-184q-79 0 -100 56v24q15 72 72 72z" />
    <glyph glyph-name="asciitilde" unicode="~" horiz-adv-x="844" 
d="M114 840h12q75 0 96 -160l4 -4h4q389 104 456 116q55 0 72 -100q36 -122 36 -148v-12q-18 -64 -64 -64h-12q-72 0 -100 168q-399 -112 -460 -120q-63 0 -92 184q-16 30 -16 68v8q18 64 64 64z" />
    <glyph glyph-name="exclamdown" unicode="&#xa1;" horiz-adv-x="682" 
 />
    <glyph glyph-name="cent" unicode="&#xa2;" horiz-adv-x="1139" 
 />
    <glyph glyph-name="sterling" unicode="&#xa3;" horiz-adv-x="1139" 
 />
    <glyph glyph-name="currency" unicode="&#xa4;" horiz-adv-x="1139" 
 />
    <glyph glyph-name="yen" unicode="&#xa5;" horiz-adv-x="1139" 
 />
    <glyph glyph-name="brokenbar" unicode="&#xa6;" horiz-adv-x="532" 
 />
    <glyph glyph-name="section" unicode="&#xa7;" horiz-adv-x="1139" 
 />
    <glyph glyph-name="dieresis" unicode="&#xa8;" horiz-adv-x="682" 
 />
    <glyph glyph-name="copyright" unicode="&#xa9;" horiz-adv-x="1509" 
 />
    <glyph glyph-name="ordfeminine" unicode="&#xaa;" horiz-adv-x="758" 
 />
    <glyph glyph-name="guillemotleft" unicode="&#xab;" horiz-adv-x="1139" 
 />
    <glyph glyph-name="logicalnot" unicode="&#xac;" horiz-adv-x="1196" 
 />
    <glyph glyph-name="registered" unicode="&#xae;" horiz-adv-x="1509" 
 />
    <glyph glyph-name="macron" unicode="&#xaf;" horiz-adv-x="1131" 
 />
    <glyph glyph-name="degree" unicode="&#xb0;" horiz-adv-x="819" 
 />
    <glyph glyph-name="plusminus" unicode="&#xb1;" horiz-adv-x="1124" 
 />
    <glyph glyph-name="uni00B2" unicode="&#xb2;" horiz-adv-x="682" 
 />
    <glyph glyph-name="uni00B3" unicode="&#xb3;" horiz-adv-x="682" 
 />
    <glyph glyph-name="acute" unicode="&#xb4;" horiz-adv-x="682" 
 />
    <glyph glyph-name="mu" unicode="&#xb5;" horiz-adv-x="1180" 
 />
    <glyph glyph-name="paragraph" unicode="&#xb6;" horiz-adv-x="1100" 
 />
    <glyph glyph-name="periodcentered" unicode="&#xb7;" horiz-adv-x="569" 
 />
    <glyph glyph-name="periodcentered" unicode="&#x2219;" horiz-adv-x="569" 
 />
    <glyph glyph-name="cedilla" unicode="&#xb8;" horiz-adv-x="682" 
 />
    <glyph glyph-name="uni00B9" unicode="&#xb9;" horiz-adv-x="682" 
 />
    <glyph glyph-name="ordmasculine" unicode="&#xba;" horiz-adv-x="748" 
 />
    <glyph glyph-name="guillemotright" unicode="&#xbb;" horiz-adv-x="1139" 
 />
    <glyph glyph-name="onequarter" unicode="&#xbc;" horiz-adv-x="1708" 
 />
    <glyph glyph-name="onehalf" unicode="&#xbd;" horiz-adv-x="1708" 
 />
    <glyph glyph-name="threequarters" unicode="&#xbe;" horiz-adv-x="1708" 
 />
    <glyph glyph-name="questiondown" unicode="&#xbf;" horiz-adv-x="1251" 
 />
    <glyph glyph-name="Agrave" unicode="&#xc0;" horiz-adv-x="912" 
d="M338 1516h88q49 0 160 -236v-4q-5 -16 -36 -16h-36q-78 0 -120 116q-68 101 -68 124v4zM266 1180h380q93 0 120 -188q8 -9 96 -356v-472q0 -72 -96 -72h-100q-100 0 -100 100v380h-220v-380q0 -100 -100 -100h-100q-96 0 -96 72v464q4 41 128 492q40 60 88 60zM306 1040
l-48 -184h72q56 -7 56 -56l-24 -100h188q-85 330 -96 340h-148z" />
    <glyph glyph-name="Aacute" unicode="&#xc1;" 
d="M490 1516h88q12 0 12 -16q0 -20 -128 -224q-29 -16 -60 -16h-44q-21 0 -28 16v8q0 21 124 216q21 16 36 16zM270 1180h368q99 0 120 -140l108 -408v-464q0 -76 -100 -76h-96q-100 0 -100 76v404h-224v-408q0 -72 -96 -72h-100q-100 0 -100 92v432q0 34 136 516
q46 48 84 48zM262 856h72q56 -9 56 -52l-24 -104h188l-92 340h-148q-10 0 -52 -184z" />
    <glyph glyph-name="Acircumflex" unicode="&#xc2;" horiz-adv-x="912" 
d="M506 1516q32 -17 128 -192q20 -32 20 -52q-15 -12 -36 -12h-48q-62 0 -112 120h-4q-49 -120 -112 -120h-48q-36 0 -36 24q99 189 140 228l4 4h104zM266 1180h380q92 0 120 -184q96 -337 96 -368v-464q0 -72 -96 -72h-100q-100 0 -100 100v380h-220v-380q0 -100 -100 -100
h-100q-96 0 -96 72v472q120 481 144 508q40 36 72 36zM306 1040l-48 -184h72q56 0 56 -56l-24 -100h188v4l-88 336h-156z" />
    <glyph glyph-name="Atilde" unicode="&#xc3;" 
d="M318 1496q63 0 224 -68l72 -12l88 16l16 -16v-104q0 -20 -100 -32q-87 0 -252 76l-64 8l-84 -16h-8q-16 7 -16 28v72q0 48 84 48h40zM266 1180h380q67 0 100 -92l120 -472v-432q0 -92 -100 -92h-100q-96 0 -96 72v408h-224v-404q0 -76 -100 -76h-96q-100 0 -100 76v444
q0 44 132 516q42 52 84 52zM306 1040l-48 -184h80q48 -10 48 -48v-4q0 -26 -24 -104h188l-88 340h-156z" />
    <glyph glyph-name="Adieresis" unicode="&#xc4;" 
d="M314 1460h84q36 0 36 -44v-60q-5 -40 -40 -40h-60q-31 0 -44 24v96zM510 1460h96q24 -14 24 -36v-80q-14 -28 -40 -28h-64q-40 6 -40 36v84zM282 1180h352q105 0 124 -140q108 -388 108 -416v-460q0 -72 -96 -72h-108q-92 0 -92 88v392h-224v-408q0 -65 -88 -72h-116
q-92 0 -92 100v432q116 454 140 512q41 44 92 44zM310 1040l-48 -184h72q56 -8 56 -56l-24 -100h188q-89 339 -96 340h-148z" />
    <glyph glyph-name="Aring" unicode="&#xc5;" 
d="M470 1516q93 0 116 -128v-4q0 -83 -100 -120l-36 -4q-64 0 -108 72q-12 20 -12 52v20q0 75 104 112h36zM418 1392v-4q0 -29 36 -40q44 11 44 40q-8 40 -40 40h-4q-36 -5 -36 -36zM282 1180h348q113 0 132 -168l104 -388v-432q0 -100 -92 -100h-116q-88 7 -88 72v408h-224
v-392q0 -88 -92 -88h-108q-96 0 -96 72v440q0 56 112 452q19 124 120 124zM306 1040l-48 -184h72q56 0 56 -60l-24 -96h188l-88 340h-156z" />
    <glyph glyph-name="AE" unicode="&#xc6;" horiz-adv-x="1432" 
d="M266 1180h1048q68 -12 68 -68v-196q0 -61 -96 -68h-100q-100 0 -100 80v112h-328v-4q42 -188 60 -188q44 -23 44 -64v-84h172q56 -16 56 -56v-8q-9 -64 -64 -64h-164v-340h224v104q0 88 76 88h148q72 -14 72 -72v-192q0 -68 -92 -68h-628q-96 0 -96 96v384h-220v-380
q0 -100 -100 -100h-100q-96 0 -96 72v472q120 481 144 508q40 36 72 36zM306 1040l-48 -184h72q56 0 56 -56l-24 -100h188l-88 340h-156z" />
    <glyph glyph-name="Ccedilla" unicode="&#xc7;" 
d="M782 1180q84 0 84 -72v-184q0 -76 -88 -76h-120q-88 0 -88 76v116h-368v-188h72q72 -11 72 -72v-548h224v116q0 76 88 76h120q88 0 88 -76v-184q0 -66 -80 -72h-280v-4q84 -32 84 -108q0 -88 -132 -104q-128 15 -128 92l92 12q3 -12 32 -12h12l28 8v12q-80 43 -80 92
q0 12 -8 12h-264q-92 0 -92 72v944q0 63 76 72h656z" />
    <glyph glyph-name="Egrave" unicode="&#xc8;" 
d="M342 1516h84q47 0 144 -200q10 0 16 -32v-8q-6 -16 -28 -16h-44q-75 0 -112 104q-76 117 -76 140zM118 1180h676q72 0 72 -84v-168q0 -80 -100 -80h-96q-79 0 -100 56v136h-372v-188h84q64 -18 64 -72v-80h164q64 -9 64 -64q0 -52 -68 -64h-160v-340h224v120q15 72 72 72
h148q76 0 76 -88v-160q0 -84 -96 -84h-628q-92 0 -92 72v948q12 68 68 68z" />
    <glyph glyph-name="Eacute" unicode="&#xc9;" 
d="M494 1516h84l12 -12q0 -24 -116 -216q-32 -28 -52 -28h-76l-16 16v4q58 126 128 220q21 16 36 16zM138 1180h644q84 0 84 -68v-192q0 -65 -88 -72h-116q-92 0 -92 92v100h-368v-188h80q61 0 68 -96v-56h160q64 -11 64 -56v-16q0 -45 -64 -56h-160v-340h220v100
q0 79 72 92h136q88 -7 88 -72v-192q0 -68 -84 -68h-644q-88 0 -88 104v876q0 91 52 104z" />
    <glyph glyph-name="Ecircumflex" unicode="&#xca;" 
d="M406 1516h104q33 -22 120 -184q24 -37 24 -52v-4q-6 -16 -28 -16h-44q-74 0 -108 92q-8 1 -12 24h-8q-45 -116 -120 -116h-44q-21 0 -28 16v8q28 68 124 216zM118 1180h676q72 -11 72 -72v-180q0 -80 -100 -80h-96q-79 0 -100 56v136h-372v-188h84q49 0 64 -72v-80h164
q64 -9 64 -64q0 -52 -68 -64h-160v-340h224v120q15 72 72 72h148q76 0 76 -88v-160q0 -84 -96 -84h-632q-88 0 -88 72v948q12 68 68 68z" />
    <glyph glyph-name="Edieresis" unicode="&#xcb;" horiz-adv-x="912" 
d="M346 1464h24q60 0 60 -40v-68q0 -40 -48 -40h-48q-36 0 -48 28v92q13 28 60 28zM542 1464h24q47 0 60 -28v-84q0 -30 -40 -36h-56q-48 0 -48 40v68q0 40 60 40zM118 1180h676q68 -14 68 -60v-200q0 -72 -108 -72h-76q-112 0 -112 92v100h-368v-188h76q72 0 72 -96v-56
h168q56 -14 56 -60v-12q0 -45 -64 -56h-160v-340h220v92q0 100 76 100h148q54 0 72 -64v-208q0 -54 -88 -60h-632q-92 0 -92 68v960q0 46 68 60z" />
    <glyph glyph-name="Igrave" unicode="&#xcc;" horiz-adv-x="396" 
d="M82 1516h84q45 0 132 -176l32 -56q-8 -24 -32 -24h-44q-75 0 -116 112q-6 0 -72 124q8 18 16 20zM126 1180q72 -15 72 -64v-260h76q72 -13 72 -72v-616q0 -76 -100 -76h-96q-100 0 -100 76v928q7 84 76 84z" />
    <glyph glyph-name="Iacute" unicode="&#xcd;" horiz-adv-x="396" 
d="M230 1516h88q12 0 12 -16q-1 -21 -124 -220q-27 -20 -64 -20h-44q-21 0 -28 16q0 31 124 224q21 16 36 16zM126 1180q76 0 76 -88v-236h80q64 -18 64 -64v-628q0 -72 -96 -72h-100q-100 0 -100 92v908q0 88 76 88z" />
    <glyph glyph-name="Icircumflex" unicode="&#xce;" horiz-adv-x="492" 
d="M194 1516h104q26 -12 136 -208l8 -32q-6 -16 -28 -16h-44q-75 0 -120 116h-8q-45 -116 -116 -116h-48q-21 0 -28 16v4q82 177 144 236zM174 1180q76 0 76 -100v-224h80q49 0 64 -72v-616q0 -76 -100 -76h-96q-100 0 -100 76v936q12 76 76 76z" />
    <glyph glyph-name="Idieresis" unicode="&#xcf;" horiz-adv-x="440" 
d="M110 1464h24q47 0 60 -28v-92q-12 -28 -48 -28h-48q-36 0 -48 28v80q0 40 60 40zM306 1464h36q48 0 48 -36v-76q0 -30 -40 -36h-56q-48 0 -48 48v52q0 48 60 48zM146 1180h4q72 -14 72 -72v-252h76q65 0 72 -88v-584q0 -92 -100 -92h-100q-96 0 -96 72v944q14 72 72 72z
" />
    <glyph glyph-name="Eth" unicode="&#xd0;" horiz-adv-x="1479" 
 />
    <glyph glyph-name="Ntilde" unicode="&#xd1;" 
d="M306 1476q80 0 236 -72l64 -8h12l88 16l12 -16v-108q-21 -28 -108 -28q-80 0 -240 72l-60 8h-12l-88 -16q-16 17 -16 32v76q0 44 112 44zM374 1184q94 0 124 -200q8 -7 68 -252h4v376q0 65 88 72h116q92 0 92 -80v-916q0 -92 -92 -92h-116q-86 0 -96 100l-228 848h-136
v-188h76q72 -16 72 -68v-616q0 -76 -92 -76h-108q-96 0 -96 84v940q0 57 84 64h216z" />
    <glyph glyph-name="Ograve" unicode="&#xd2;" 
d="M342 1516h84q46 0 132 -176l32 -56q0 -24 -36 -24h-48q-63 0 -116 124q-60 94 -60 112v8zM122 1180h664q80 0 80 -80v-936q0 -60 -76 -72h-644q-96 0 -96 72v944q10 72 72 72zM346 1040v-808h224v808h-224z" />
    <glyph glyph-name="Oacute" unicode="&#xd3;" 
d="M490 1516h88l12 -12v-4q0 -21 -124 -220q-24 -20 -64 -20h-44q-21 0 -28 16v4q110 236 160 236zM122 1180h676q68 -14 68 -60v-960q0 -68 -92 -68h-628q-96 0 -96 96v896q0 96 72 96zM350 1040v-808h220v808h-220z" />
    <glyph glyph-name="Ocircumflex" unicode="&#xd4;" 
d="M406 1516h100q25 0 112 -168q36 -48 36 -76q-15 -12 -36 -12h-36q-68 0 -96 68q-23 44 -32 48q-48 -116 -116 -116h-48q-21 0 -28 16v8q29 73 124 216zM118 1180h676q72 0 72 -92v-908q0 -88 -96 -88h-628q-73 0 -92 52v968q11 68 68 68zM346 1040v-808h224v808h-224z
" />
    <glyph glyph-name="Otilde" unicode="&#xd5;" 
d="M286 1496h24q80 0 240 -72l60 -8l92 16h4l12 -12v-112q0 -16 -100 -28q-82 0 -252 76l-64 8l-84 -16h-8l-12 12v108q0 21 88 28zM122 1180h676q68 -12 68 -68v-948q0 -72 -88 -72h-632q-96 0 -96 84v932q10 72 72 72zM346 1040v-808h224v808h-224z" />
    <glyph glyph-name="Odieresis" unicode="&#xd6;" 
d="M322 1460h76q36 0 36 -48v-48q0 -48 -48 -48h-52q-48 0 -48 60v36q0 48 36 48zM510 1460h96q24 -14 24 -36v-68q-5 -40 -40 -40h-60q-31 0 -44 24v96zM134 1180h648q84 -7 84 -64v-960q0 -57 -84 -64h-640q-92 0 -92 84v920q0 84 84 84zM346 1040v-808h224v808h-224z" />
    <glyph glyph-name="multiply" unicode="&#xd7;" horiz-adv-x="1196" 
 />
    <glyph glyph-name="Oslash" unicode="&#xd8;" 
d="M118 1180h676q72 0 72 -96v-896q0 -96 -96 -96h-628q-92 0 -92 68v952q11 68 68 68zM346 1040v-528h4l140 528h-144zM566 772l-144 -540h148v540h-4z" />
    <glyph glyph-name="Ugrave" unicode="&#xd9;" horiz-adv-x="912" 
d="M338 1516h88q50 0 160 -236v-4q-6 -16 -28 -16h-44q-76 0 -116 108q-72 113 -72 132v4zM642 1180h148q72 -15 72 -64v-964q0 -54 -88 -60h-284l-364 -4q-76 14 -76 72v952q0 49 72 64h4q72 -14 72 -72v-252h76q72 0 72 -96v-524h220v848q0 82 56 96z" />
    <glyph glyph-name="Uacute" unicode="&#xda;" 
d="M490 1516h88l12 -12v-4q0 -21 -124 -220q-24 -20 -64 -20h-44q-21 0 -28 16v4q110 236 160 236zM646 1180h148q72 -14 72 -72v-948q0 -68 -92 -68h-280l-360 -4q-84 0 -84 100v888q6 96 60 96l16 4q76 -12 76 -76v-248h76q68 -11 68 -68v-552h224v860q0 88 76 88z" />
    <glyph glyph-name="Ucircumflex" unicode="&#xdb;" 
d="M406 1516h100q25 0 112 -168q36 -48 36 -76q-15 -12 -36 -12h-36q-76 0 -112 100l-16 16q-48 -116 -116 -116h-48q-21 0 -28 16v8q0 23 124 216zM642 1180h148q76 0 76 -92v-908q0 -88 -96 -88h-280l-364 -4q-76 18 -76 68v948q14 72 72 72h4q72 -14 72 -72v-252h84
q48 0 64 -76v-544h224v884q18 64 72 64z" />
    <glyph glyph-name="Udieresis" unicode="&#xdc;" horiz-adv-x="912" 
d="M310 1460h96q24 -14 24 -36v-80q-14 -28 -40 -28h-64q-40 6 -40 36v84zM506 1460h96l24 -24v-96q-13 -24 -44 -24h-60q-40 5 -40 40v68q0 22 24 36zM658 1180h116q88 -11 88 -64v-964q0 -53 -84 -60h-272l-380 -4q-76 13 -76 72v944q15 72 72 72q76 -14 76 -72v-252h76
q72 0 72 -96v-524h220v848q0 100 92 100z" />
    <glyph glyph-name="Yacute" unicode="&#xdd;" horiz-adv-x="1366" 
 />
    <glyph glyph-name="Thorn" unicode="&#xde;" horiz-adv-x="1366" 
 />
    <glyph glyph-name="germandbls" unicode="&#xdf;" 
d="M134 1180h664q68 -12 68 -68v-332q-62 -140 -124 -140q74 -39 92 -84q32 -47 32 -64v-328q0 -72 -92 -72h-224q-92 0 -92 68v12q17 60 60 60h52v808h-368v-188h76q68 -14 68 -64v-632q0 -61 -96 -68h-88q-112 0 -112 92v908q0 92 84 92z" />
    <glyph glyph-name="agrave" unicode="&#xe0;" 
d="M342 1036h76q54 0 112 -128q49 -77 60 -108q-6 -20 -28 -20h-60q-59 0 -124 144q-48 73 -48 92v8zM206 700h600q60 -15 60 -60v-476q-10 -72 -72 -72h-672q-72 11 -72 72v388q58 148 156 148zM346 572v-340h224v340h-224z" />
    <glyph glyph-name="aacute" unicode="&#xe1;" 
d="M490 1036h84l12 -12v-8q-71 -151 -132 -224q-20 -12 -40 -12h-60q-21 0 -28 16q112 240 164 240zM206 700h592q64 0 68 -80v-436q0 -92 -84 -92h-660q-72 11 -72 68v396q57 144 156 144zM346 572v-340h224v340h-224z" />
    <glyph glyph-name="acircumflex" unicode="&#xe2;" 
d="M410 1036h100q26 -11 140 -212l8 -24q-6 -20 -28 -20h-60q-57 0 -108 116h-4q-53 -116 -108 -116h-60q-21 0 -28 16q84 182 148 240zM198 700h604q64 -12 64 -56v-484q0 -57 -72 -68h-660q-84 0 -84 96v372q71 140 148 140zM350 572v-340h220v340h-220z" />
    <glyph glyph-name="atilde" unicode="&#xe3;" 
d="M314 1016q67 0 224 -68q31 -12 76 -12l92 16l12 -16v-108q0 -20 -104 -28q-79 0 -244 72l-68 8h-12q-28 0 -72 -16q-18 8 -20 16v108q6 24 116 28zM206 700h600q60 -15 60 -60v-476q-10 -72 -72 -72h-672q-72 11 -72 72v388q58 148 156 148zM346 572v-340h224v340h-224z
" />
    <glyph glyph-name="adieresis" unicode="&#xe4;" 
d="M310 980h96l24 -24v-96q-14 -24 -36 -24h-80q-28 14 -28 40v68q0 22 24 36zM518 980h84q28 -13 28 -60v-24q0 -60 -40 -60h-68q-40 0 -40 48v56q6 40 36 40zM206 700h592q64 0 68 -80v-436q0 -92 -84 -92h-660q-72 11 -72 68v396q57 144 156 144zM346 572v-340h224v340
h-224z" />
    <glyph glyph-name="aring" unicode="&#xe5;" 
d="M458 1036h4q88 0 124 -100l4 -28q0 -89 -108 -128h-32q-78 0 -116 100l-4 28q21 128 128 128zM422 912v-8q0 -30 40 -36q27 7 36 28v16q0 31 -40 36q-36 -5 -36 -36zM198 700h604q64 -12 64 -56v-484q0 -57 -72 -68h-660q-84 0 -84 96v372q71 140 148 140zM350 572v-340
h220v340h-220z" />
    <glyph glyph-name="ae" unicode="&#xe6;" horiz-adv-x="1436" 
d="M194 700h1128q56 0 64 -68v-188q0 -84 -68 -84h-452v-128h452q57 0 68 -72q0 -60 -92 -68h-1156q-88 8 -88 64v408q68 136 144 136zM346 572v-340h224v340h-224zM866 572v-72h224v72h-224z" />
    <glyph glyph-name="ccedilla" unicode="&#xe7;" 
d="M206 700h592q64 0 68 -80v-172q0 -92 -112 -92h-84q-100 0 -100 72v144h-224v-340h448q72 -11 72 -72q0 -59 -84 -68h-276q80 -41 80 -108v-12q0 -81 -128 -96h-8q-93 0 -124 88q16 8 88 16l32 -12h20l28 8v8q-1 8 -56 40q-28 27 -28 68h-288q-72 11 -72 68v396
q57 144 156 144z" />
    <glyph glyph-name="egrave" unicode="&#xe8;" 
d="M342 1036h84q48 0 136 -184q28 -32 28 -60l-16 -12h-72q-58 0 -128 156q-44 60 -44 80v8zM198 700h604q64 -12 64 -56v-220q0 -68 -104 -68h-412v-124h448q68 -14 68 -60v-12q0 -57 -72 -68h-660q-84 0 -84 96v372q71 140 148 140zM350 572v-76h220v76h-220z" />
    <glyph glyph-name="eacute" unicode="&#xe9;" 
d="M494 1036h80q8 -2 16 -20q-114 -225 -152 -232l-24 -4h-60q-21 0 -24 12v12q0 16 120 212q29 20 44 20zM206 700h600q60 -15 60 -60v-212q0 -72 -96 -72h-424v-124h452q61 0 68 -76q0 -51 -72 -64h-672q-72 11 -72 72v388q58 148 156 148zM346 572v-76h224v76h-224z" />
    <glyph glyph-name="ecircumflex" unicode="&#xea;" 
d="M406 1036h100q32 -17 128 -192q20 -32 20 -52l-16 -12h-72q-53 0 -108 116h-4q-49 -116 -108 -116h-60q-21 0 -24 12v12q24 61 124 216zM206 700h592q68 0 68 -88v-168q0 -88 -96 -88h-424v-124h448q72 -11 72 -72q0 -59 -84 -68h-660q-72 11 -72 68v396q57 144 156 144z
M346 572v-76h224v76h-224z" />
    <glyph glyph-name="edieresis" unicode="&#xeb;" 
d="M314 980h92q28 -12 28 -48v-36q0 -60 -40 -60h-68q-36 0 -40 48v48q0 36 28 48zM510 980h84q31 0 36 -40v-64q-5 -40 -40 -40h-68q-40 0 -40 60v24q0 47 28 60zM206 700h600q60 -16 60 -60v-212q0 -72 -96 -72h-424v-124h440q80 0 80 -76q0 -51 -72 -64h-672
q-72 11 -72 72v388q58 148 156 148zM346 572v-76h224v76h-224z" />
    <glyph glyph-name="igrave" unicode="&#xec;" horiz-adv-x="396" 
d="M82 1036h80q49 0 124 -156q40 -62 40 -76v-12q-4 -12 -24 -12h-60q-57 0 -104 108q-68 110 -68 124v12zM138 704h120q88 0 88 -76v-460q0 -76 -88 -76h-120q-88 0 -88 76v460q0 76 88 76z" />
    <glyph glyph-name="iacute" unicode="&#xed;" horiz-adv-x="400" 
d="M234 1036h72q24 -2 24 -12q0 -23 -108 -204q-27 -40 -64 -40h-72l-16 16v4q29 73 124 216q23 20 40 20zM130 704h140q80 0 80 -112v-388q0 -112 -80 -112h-140q-80 0 -80 100v412q0 100 80 100z" />
    <glyph glyph-name="icircumflex" unicode="&#xee;" horiz-adv-x="492" 
d="M194 1036h100q31 -17 128 -188q20 -39 20 -56l-16 -12h-72q-52 0 -108 116h-4q-48 -116 -108 -116h-60q-21 0 -24 12v4q0 32 128 228zM174 704h132q88 0 88 -88v-436q0 -88 -88 -88h-132q-76 13 -76 72v468q0 59 76 72z" />
    <glyph glyph-name="idieresis" unicode="&#xef;" horiz-adv-x="440" 
d="M74 980h84q36 0 36 -44v-60q0 -26 -28 -40h-80q-22 0 -36 24v96zM270 980h96q24 -14 24 -36v-72q-5 -36 -36 -36h-72q-36 5 -36 36v72q0 22 24 36zM158 704h132q76 -16 76 -64v-484q0 -47 -76 -64h-132q-88 0 -88 100v412q0 100 88 100z" />
    <glyph glyph-name="eth" unicode="&#xf0;" horiz-adv-x="1139" 
 />
    <glyph glyph-name="ntilde" unicode="&#xf1;" 
d="M310 1016q69 0 216 -64q40 -16 80 -16h8l88 16l16 -16v-104q-21 -32 -108 -32q-78 0 -240 72l-60 8h-16q-34 0 -80 -16q-20 6 -20 28v80q0 44 116 44zM126 704h580q93 0 160 -140v-372q0 -96 -72 -96h-152q-76 0 -76 112v368h-220v-392q0 -92 -88 -92h-132q-76 13 -76 72
v484q0 50 76 56z" />
    <glyph glyph-name="ograve" unicode="&#xf2;" 
d="M342 1036h84q47 0 136 -184q28 -33 28 -60q-15 -12 -28 -12h-60q-58 0 -116 132q-56 85 -56 104v8zM118 696h684q64 -9 64 -64v-476q0 -68 -84 -68h-648q-84 0 -84 88v440q4 80 68 80zM346 568v-340h224v340h-224z" />
    <glyph glyph-name="oacute" unicode="&#xf3;" 
d="M574 1036l12 -12v-20q-100 -183 -136 -216l-36 -8h-60q-22 0 -28 20q120 236 156 236h92zM110 696h688q54 0 68 -60v-476q0 -63 -76 -72h-656q-84 0 -84 72v476q15 60 60 60zM346 568v-340h224v340h-224z" />
    <glyph glyph-name="ocircumflex" unicode="&#xf4;" 
d="M506 1036q47 -37 112 -168q36 -52 36 -76q-15 -12 -28 -12h-60q-55 0 -108 116h-4q-51 -116 -108 -116h-60q-22 0 -28 20q97 191 144 236h104zM114 696h684q68 0 68 -112v-400q0 -96 -88 -96h-644q-84 0 -84 68v484q0 45 64 56zM346 568v-340h220v340h-220z" />
    <glyph glyph-name="otilde" unicode="&#xf5;" 
d="M314 1016q67 0 236 -72l64 -8q33 0 88 16q20 0 20 -36v-72q0 -44 -108 -44q-77 0 -244 72l-56 8h-24q-25 0 -72 -16q-18 8 -20 16v96q0 40 116 40zM118 696h684q64 -9 64 -64v-476q0 -68 -84 -68h-648q-84 0 -84 88v440q4 80 68 80zM346 568v-340h224v340h-224z" />
    <glyph glyph-name="odieresis" unicode="&#xf6;" 
d="M322 980h84l24 -24v-96q-14 -24 -36 -24h-68q-40 5 -40 40v64q6 40 36 40zM510 980h92q28 -12 28 -48v-48q-4 -48 -40 -48h-68q-36 0 -40 48v48q0 36 28 48zM110 696h688q68 -9 68 -68v-468q0 -63 -76 -72h-656q-84 0 -84 72v476q15 60 60 60zM346 568v-340h224v340h-224
z" />
    <glyph glyph-name="divide" unicode="&#xf7;" horiz-adv-x="1124" 
 />
    <glyph glyph-name="oslash" unicode="&#xf8;" 
d="M106 696h704q45 0 56 -64v-472q0 -72 -96 -72h-624q-96 0 -96 84v448q6 76 56 76zM346 568v-276h4l72 276h-76zM566 556l-84 -328h88v328h-4z" />
    <glyph glyph-name="ugrave" unicode="&#xf9;" 
d="M342 1036h80q51 0 124 -160q40 -54 40 -72v-12q-4 -12 -24 -12h-60q-59 0 -120 136q-49 77 -56 100q8 18 16 20zM134 696h128q84 0 84 -84v-384h224v396q15 72 72 72h148q76 -12 76 -76v-460q-10 -72 -76 -72h-656q-84 0 -84 72v452q0 84 84 84z" />
    <glyph glyph-name="uacute" unicode="&#xfa;" 
d="M490 1036h84l12 -12v-8q0 -19 -120 -212q-24 -24 -52 -24h-72q-16 8 -16 20q113 236 164 236zM122 696h148q76 0 76 -96v-372h220v368q0 82 56 96l20 4h148q76 0 76 -112v-388q0 -91 -52 -104l-36 -4h-644q-84 0 -84 68v468q13 72 72 72z" />
    <glyph glyph-name="ucircumflex" unicode="&#xfb;" 
d="M410 1036h100q49 -41 144 -228v-16q-4 -12 -24 -12h-60q-59 0 -108 116q-55 -90 -80 -108l-32 -8h-72q-16 8 -16 20q0 18 120 212zM126 696h148q72 -12 72 -72v-396h224v392q12 76 76 76h148q72 -14 72 -72v-468q0 -68 -84 -68h-648q-84 0 -84 88v424q0 96 76 96z" />
    <glyph glyph-name="udieresis" unicode="&#xfc;" horiz-adv-x="912" 
d="M310 980h96q24 -14 24 -36v-72q-5 -36 -36 -36h-72q-36 5 -36 36v84zM506 980h96l24 -24v-96q-14 -24 -36 -24h-80q-28 14 -28 40v60q0 31 24 44zM122 696h148q76 0 76 -92v-376h220v368q0 82 56 96l20 4h148q72 -15 72 -64v-484q0 -53 -84 -60h-644q-84 0 -84 68v476
q18 64 72 64z" />
    <glyph glyph-name="yacute" unicode="&#xfd;" horiz-adv-x="1024" 
 />
    <glyph glyph-name="thorn" unicode="&#xfe;" horiz-adv-x="1139" 
 />
    <glyph glyph-name="ydieresis" unicode="&#xff;" horiz-adv-x="1024" 
 />
    <glyph glyph-name="Amacron" unicode="&#x100;" horiz-adv-x="1366" 
 />
    <glyph glyph-name="amacron" unicode="&#x101;" horiz-adv-x="1139" 
 />
    <glyph glyph-name="Abreve" unicode="&#x102;" horiz-adv-x="1366" 
 />
    <glyph glyph-name="abreve" unicode="&#x103;" horiz-adv-x="1139" 
 />
    <glyph glyph-name="Aogonek" unicode="&#x104;" horiz-adv-x="1366" 
 />
    <glyph glyph-name="aogonek" unicode="&#x105;" horiz-adv-x="1139" 
 />
    <glyph glyph-name="Cacute" unicode="&#x106;" horiz-adv-x="1479" 
 />
    <glyph glyph-name="cacute" unicode="&#x107;" horiz-adv-x="1024" 
 />
    <glyph glyph-name="Ccircumflex" unicode="&#x108;" horiz-adv-x="1479" 
 />
    <glyph glyph-name="ccircumflex" unicode="&#x109;" horiz-adv-x="1024" 
 />
    <glyph glyph-name="Cdotaccent" unicode="&#x10a;" horiz-adv-x="1479" 
 />
    <glyph glyph-name="cdotaccent" unicode="&#x10b;" horiz-adv-x="1024" 
 />
    <glyph glyph-name="Ccaron" unicode="&#x10c;" horiz-adv-x="1479" 
 />
    <glyph glyph-name="ccaron" unicode="&#x10d;" horiz-adv-x="1024" 
 />
    <glyph glyph-name="Dcaron" unicode="&#x10e;" horiz-adv-x="1479" 
 />
    <glyph glyph-name="dcaron" unicode="&#x10f;" horiz-adv-x="1259" 
 />
    <glyph glyph-name="Dcroat" unicode="&#x110;" horiz-adv-x="1479" 
 />
    <glyph glyph-name="dcroat" unicode="&#x111;" horiz-adv-x="1139" 
 />
    <glyph glyph-name="Emacron" unicode="&#x112;" horiz-adv-x="1366" 
 />
    <glyph glyph-name="emacron" unicode="&#x113;" horiz-adv-x="1139" 
 />
    <glyph glyph-name="Ebreve" unicode="&#x114;" horiz-adv-x="1366" 
 />
    <glyph glyph-name="ebreve" unicode="&#x115;" horiz-adv-x="1139" 
 />
    <glyph glyph-name="Edotaccent" unicode="&#x116;" horiz-adv-x="1366" 
 />
    <glyph glyph-name="edotaccent" unicode="&#x117;" horiz-adv-x="1139" 
 />
    <glyph glyph-name="Eogonek" unicode="&#x118;" horiz-adv-x="1366" 
 />
    <glyph glyph-name="eogonek" unicode="&#x119;" horiz-adv-x="1139" 
 />
    <glyph glyph-name="Ecaron" unicode="&#x11a;" horiz-adv-x="1366" 
 />
    <glyph glyph-name="ecaron" unicode="&#x11b;" horiz-adv-x="1139" 
 />
    <glyph glyph-name="Gcircumflex" unicode="&#x11c;" horiz-adv-x="1593" 
 />
    <glyph glyph-name="gcircumflex" unicode="&#x11d;" horiz-adv-x="1139" 
 />
    <glyph glyph-name="Gbreve" unicode="&#x11e;" horiz-adv-x="1593" 
 />
    <glyph glyph-name="gbreve" unicode="&#x11f;" horiz-adv-x="1139" 
 />
    <glyph glyph-name="Gdotaccent" unicode="&#x120;" horiz-adv-x="1593" 
 />
    <glyph glyph-name="gdotaccent" unicode="&#x121;" horiz-adv-x="1139" 
 />
    <glyph glyph-name="Gcommaaccent" unicode="&#x122;" horiz-adv-x="1593" 
 />
    <glyph glyph-name="gcommaaccent" unicode="&#x123;" horiz-adv-x="1139" 
 />
    <glyph glyph-name="Hcircumflex" unicode="&#x124;" horiz-adv-x="1479" 
 />
    <glyph glyph-name="hcircumflex" unicode="&#x125;" horiz-adv-x="1139" 
 />
    <glyph glyph-name="Hbar" unicode="&#x126;" horiz-adv-x="1479" 
 />
    <glyph glyph-name="hbar" unicode="&#x127;" horiz-adv-x="1139" 
 />
    <glyph glyph-name="Itilde" unicode="&#x128;" horiz-adv-x="569" 
 />
    <glyph glyph-name="itilde" unicode="&#x129;" horiz-adv-x="569" 
 />
    <glyph glyph-name="Imacron" unicode="&#x12a;" horiz-adv-x="569" 
 />
    <glyph glyph-name="imacron" unicode="&#x12b;" horiz-adv-x="569" 
 />
    <glyph glyph-name="Ibreve" unicode="&#x12c;" horiz-adv-x="569" 
 />
    <glyph glyph-name="ibreve" unicode="&#x12d;" horiz-adv-x="569" 
 />
    <glyph glyph-name="Iogonek" unicode="&#x12e;" horiz-adv-x="569" 
 />
    <glyph glyph-name="iogonek" unicode="&#x12f;" horiz-adv-x="455" 
 />
    <glyph glyph-name="Idotaccent" unicode="&#x130;" horiz-adv-x="569" 
 />
    <glyph glyph-name="dotlessi" unicode="&#x131;" horiz-adv-x="569" 
 />
    <glyph glyph-name="IJ" unicode="&#x132;" horiz-adv-x="1505" 
 />
    <glyph glyph-name="ij" unicode="&#x133;" horiz-adv-x="909" 
 />
    <glyph glyph-name="Jcircumflex" unicode="&#x134;" horiz-adv-x="1024" 
 />
    <glyph glyph-name="jcircumflex" unicode="&#x135;" horiz-adv-x="455" 
 />
    <glyph glyph-name="Kcommaaccent" unicode="&#x136;" horiz-adv-x="1366" 
 />
    <glyph glyph-name="kcommaaccent" unicode="&#x137;" horiz-adv-x="1024" 
 />
    <glyph glyph-name="kgreenlandic" unicode="&#x138;" horiz-adv-x="1024" 
 />
    <glyph glyph-name="Lacute" unicode="&#x139;" horiz-adv-x="1139" 
 />
    <glyph glyph-name="lacute" unicode="&#x13a;" horiz-adv-x="455" 
 />
    <glyph glyph-name="Lcommaaccent" unicode="&#x13b;" horiz-adv-x="1139" 
 />
    <glyph glyph-name="lcommaaccent" unicode="&#x13c;" horiz-adv-x="455" 
 />
    <glyph glyph-name="Lcaron" unicode="&#x13d;" horiz-adv-x="1139" 
 />
    <glyph glyph-name="lcaron" unicode="&#x13e;" horiz-adv-x="597" 
 />
    <glyph glyph-name="Ldot" unicode="&#x13f;" horiz-adv-x="1139" 
 />
    <glyph glyph-name="ldot" unicode="&#x140;" horiz-adv-x="684" 
 />
    <glyph glyph-name="Lslash" unicode="&#x141;" horiz-adv-x="1139" 
 />
    <glyph glyph-name="lslash" unicode="&#x142;" horiz-adv-x="455" 
 />
    <glyph glyph-name="Nacute" unicode="&#x143;" horiz-adv-x="1479" 
 />
    <glyph glyph-name="nacute" unicode="&#x144;" horiz-adv-x="1139" 
 />
    <glyph glyph-name="Ncommaaccent" unicode="&#x145;" horiz-adv-x="1479" 
 />
    <glyph glyph-name="ncommaaccent" unicode="&#x146;" horiz-adv-x="1139" 
 />
    <glyph glyph-name="Ncaron" unicode="&#x147;" horiz-adv-x="1479" 
 />
    <glyph glyph-name="ncaron" unicode="&#x148;" horiz-adv-x="1139" 
 />
    <glyph glyph-name="napostrophe" unicode="&#x149;" horiz-adv-x="1237" 
 />
    <glyph glyph-name="Eng" unicode="&#x14a;" horiz-adv-x="1481" 
 />
    <glyph glyph-name="eng" unicode="&#x14b;" horiz-adv-x="1139" 
 />
    <glyph glyph-name="Omacron" unicode="&#x14c;" horiz-adv-x="1593" 
 />
    <glyph glyph-name="omacron" unicode="&#x14d;" horiz-adv-x="1139" 
 />
    <glyph glyph-name="Obreve" unicode="&#x14e;" horiz-adv-x="1593" 
 />
    <glyph glyph-name="obreve" unicode="&#x14f;" horiz-adv-x="1139" 
 />
    <glyph glyph-name="Ohungarumlaut" unicode="&#x150;" horiz-adv-x="1593" 
 />
    <glyph glyph-name="ohungarumlaut" unicode="&#x151;" horiz-adv-x="1139" 
 />
    <glyph glyph-name="OE" unicode="&#x152;" horiz-adv-x="1432" 
d="M118 1180h1196q68 -12 68 -68v-188q0 -76 -100 -76h-96q-100 0 -100 88v104h-224v-340h172q45 0 56 -64q-10 -64 -64 -64h-164v-340h224v116q12 76 76 76h152q52 0 68 -72v-196q0 -57 -84 -64h-1156q-92 6 -92 56v972q0 46 68 60zM346 1040v-808h220v808h-220z" />
    <glyph glyph-name="oe" unicode="&#x153;" horiz-adv-x="1432" 
d="M106 696h1220q45 0 56 -64v-208q-11 -68 -68 -68h-448v-128h456q46 0 60 -68q0 -72 -96 -72h-1140q-96 0 -96 68v484q16 56 56 56zM346 568v-340h220v340h-220zM866 568v-72h220v72h-220z" />
    <glyph glyph-name="Racute" unicode="&#x154;" horiz-adv-x="1479" 
 />
    <glyph glyph-name="racute" unicode="&#x155;" horiz-adv-x="682" 
 />
    <glyph glyph-name="Rcommaaccent" unicode="&#x156;" horiz-adv-x="1479" 
 />
    <glyph glyph-name="rcommaaccent" unicode="&#x157;" horiz-adv-x="682" 
 />
    <glyph glyph-name="Rcaron" unicode="&#x158;" horiz-adv-x="1479" 
 />
    <glyph glyph-name="rcaron" unicode="&#x159;" horiz-adv-x="682" 
 />
    <glyph glyph-name="Sacute" unicode="&#x15a;" horiz-adv-x="1366" 
 />
    <glyph glyph-name="sacute" unicode="&#x15b;" horiz-adv-x="1024" 
 />
    <glyph glyph-name="Scircumflex" unicode="&#x15c;" horiz-adv-x="1366" 
 />
    <glyph glyph-name="scircumflex" unicode="&#x15d;" horiz-adv-x="1024" 
 />
    <glyph glyph-name="Scedilla" unicode="&#x15e;" horiz-adv-x="1366" 
 />
    <glyph glyph-name="scedilla" unicode="&#x15f;" horiz-adv-x="1024" 
 />
    <glyph glyph-name="Scaron" unicode="&#x160;" horiz-adv-x="1366" 
 />
    <glyph glyph-name="scaron" unicode="&#x161;" horiz-adv-x="1024" 
 />
    <glyph glyph-name="Tcommaaccent" unicode="&#x162;" horiz-adv-x="1251" 
 />
    <glyph glyph-name="tcommaaccent" unicode="&#x163;" horiz-adv-x="569" 
 />
    <glyph glyph-name="Tcaron" unicode="&#x164;" horiz-adv-x="1251" 
 />
    <glyph glyph-name="tcaron" unicode="&#x165;" horiz-adv-x="768" 
 />
    <glyph glyph-name="Tbar" unicode="&#x166;" horiz-adv-x="1251" 
 />
    <glyph glyph-name="tbar" unicode="&#x167;" horiz-adv-x="569" 
 />
    <glyph glyph-name="Utilde" unicode="&#x168;" horiz-adv-x="1479" 
 />
    <glyph glyph-name="utilde" unicode="&#x169;" horiz-adv-x="1139" 
 />
    <glyph glyph-name="Umacron" unicode="&#x16a;" horiz-adv-x="1479" 
 />
    <glyph glyph-name="umacron" unicode="&#x16b;" horiz-adv-x="1139" 
 />
    <glyph glyph-name="Ubreve" unicode="&#x16c;" horiz-adv-x="1479" 
 />
    <glyph glyph-name="ubreve" unicode="&#x16d;" horiz-adv-x="1139" 
 />
    <glyph glyph-name="Uring" unicode="&#x16e;" horiz-adv-x="1479" 
 />
    <glyph glyph-name="uring" unicode="&#x16f;" horiz-adv-x="1139" 
 />
    <glyph glyph-name="Uhungarumlaut" unicode="&#x170;" horiz-adv-x="1479" 
 />
    <glyph glyph-name="uhungarumlaut" unicode="&#x171;" horiz-adv-x="1139" 
 />
    <glyph glyph-name="Uogonek" unicode="&#x172;" horiz-adv-x="1479" 
 />
    <glyph glyph-name="uogonek" unicode="&#x173;" horiz-adv-x="1139" 
 />
    <glyph glyph-name="Wcircumflex" unicode="&#x174;" horiz-adv-x="1933" 
 />
    <glyph glyph-name="wcircumflex" unicode="&#x175;" horiz-adv-x="1479" 
 />
    <glyph glyph-name="Ycircumflex" unicode="&#x176;" horiz-adv-x="1366" 
 />
    <glyph glyph-name="ycircumflex" unicode="&#x177;" horiz-adv-x="1024" 
 />
    <glyph glyph-name="Ydieresis" unicode="&#x178;" horiz-adv-x="1366" 
 />
    <glyph glyph-name="Zacute" unicode="&#x179;" horiz-adv-x="1251" 
 />
    <glyph glyph-name="zacute" unicode="&#x17a;" horiz-adv-x="1024" 
 />
    <glyph glyph-name="Zdotaccent" unicode="&#x17b;" horiz-adv-x="1251" 
 />
    <glyph glyph-name="zdotaccent" unicode="&#x17c;" horiz-adv-x="1024" 
 />
    <glyph glyph-name="Zcaron" unicode="&#x17d;" horiz-adv-x="1251" 
 />
    <glyph glyph-name="zcaron" unicode="&#x17e;" horiz-adv-x="1024" 
 />
    <glyph glyph-name="longs" unicode="&#x17f;" horiz-adv-x="455" 
 />
    <glyph glyph-name="florin" unicode="&#x192;" horiz-adv-x="1139" 
 />
    <glyph glyph-name="Aringacute" unicode="&#x1fa;" horiz-adv-x="1366" 
 />
    <glyph glyph-name="aringacute" unicode="&#x1fb;" horiz-adv-x="1139" 
 />
    <glyph glyph-name="AEacute" unicode="&#x1fc;" horiz-adv-x="2048" 
 />
    <glyph glyph-name="aeacute" unicode="&#x1fd;" horiz-adv-x="1821" 
 />
    <glyph glyph-name="Oslashacute" unicode="&#x1fe;" horiz-adv-x="1593" 
 />
    <glyph glyph-name="oslashacute" unicode="&#x1ff;" horiz-adv-x="1251" 
 />
    <glyph glyph-name="circumflex" unicode="&#x2c6;" horiz-adv-x="682" 
 />
    <glyph glyph-name="caron" unicode="&#x2c7;" horiz-adv-x="682" 
 />
    <glyph glyph-name="uni02C9" unicode="&#x2c9;" horiz-adv-x="682" 
 />
    <glyph glyph-name="breve" unicode="&#x2d8;" horiz-adv-x="682" 
 />
    <glyph glyph-name="dotaccent" unicode="&#x2d9;" horiz-adv-x="682" 
 />
    <glyph glyph-name="ring" unicode="&#x2da;" horiz-adv-x="682" 
 />
    <glyph glyph-name="ogonek" unicode="&#x2db;" horiz-adv-x="682" 
 />
    <glyph glyph-name="tilde" unicode="&#x2dc;" horiz-adv-x="682" 
 />
    <glyph glyph-name="hungarumlaut" unicode="&#x2dd;" horiz-adv-x="682" 
 />
    <glyph glyph-name="tonos" unicode="&#x384;" horiz-adv-x="682" 
 />
    <glyph glyph-name="dieresistonos" unicode="&#x385;" horiz-adv-x="682" 
 />
    <glyph glyph-name="Alphatonos" unicode="&#x386;" horiz-adv-x="1367" 
 />
    <glyph glyph-name="anoteleia" unicode="&#x387;" horiz-adv-x="569" 
 />
    <glyph glyph-name="Epsilontonos" unicode="&#x388;" horiz-adv-x="1606" 
 />
    <glyph glyph-name="Etatonos" unicode="&#x389;" horiz-adv-x="1716" 
 />
    <glyph glyph-name="Iotatonos" unicode="&#x38a;" horiz-adv-x="786" 
 />
    <glyph glyph-name="Omicrontonos" unicode="&#x38c;" horiz-adv-x="1586" 
 />
    <glyph glyph-name="Upsilontonos" unicode="&#x38e;" horiz-adv-x="1752" 
 />
    <glyph glyph-name="Omegatonos" unicode="&#x38f;" horiz-adv-x="1541" 
 />
    <glyph glyph-name="iotadieresistonos" unicode="&#x390;" horiz-adv-x="455" 
 />
    <glyph glyph-name="Alpha" unicode="&#x391;" horiz-adv-x="1366" 
 />
    <glyph glyph-name="Beta" unicode="&#x392;" horiz-adv-x="1366" 
 />
    <glyph glyph-name="Gamma" unicode="&#x393;" horiz-adv-x="1128" 
 />
    <glyph glyph-name="uni0394" unicode="&#x394;" horiz-adv-x="1368" 
 />
    <glyph glyph-name="Epsilon" unicode="&#x395;" horiz-adv-x="1366" 
 />
    <glyph glyph-name="Zeta" unicode="&#x396;" horiz-adv-x="1251" 
 />
    <glyph glyph-name="Eta" unicode="&#x397;" horiz-adv-x="1479" 
 />
    <glyph glyph-name="Theta" unicode="&#x398;" horiz-adv-x="1593" 
 />
    <glyph glyph-name="Iota" unicode="&#x399;" horiz-adv-x="569" 
 />
    <glyph glyph-name="Kappa" unicode="&#x39a;" horiz-adv-x="1366" 
 />
    <glyph glyph-name="Lambda" unicode="&#x39b;" horiz-adv-x="1368" 
 />
    <glyph glyph-name="Mu" unicode="&#x39c;" horiz-adv-x="1706" 
 />
    <glyph glyph-name="Nu" unicode="&#x39d;" horiz-adv-x="1479" 
 />
    <glyph glyph-name="Xi" unicode="&#x39e;" horiz-adv-x="1331" 
 />
    <glyph glyph-name="Omicron" unicode="&#x39f;" horiz-adv-x="1593" 
 />
    <glyph glyph-name="Pi" unicode="&#x3a0;" horiz-adv-x="1479" 
 />
    <glyph glyph-name="Rho" unicode="&#x3a1;" horiz-adv-x="1366" 
 />
    <glyph glyph-name="Sigma" unicode="&#x3a3;" horiz-adv-x="1266" 
 />
    <glyph glyph-name="Tau" unicode="&#x3a4;" horiz-adv-x="1251" 
 />
    <glyph glyph-name="Upsilon" unicode="&#x3a5;" horiz-adv-x="1366" 
 />
    <glyph glyph-name="Phi" unicode="&#x3a6;" horiz-adv-x="1634" 
 />
    <glyph glyph-name="Chi" unicode="&#x3a7;" horiz-adv-x="1366" 
 />
    <glyph glyph-name="Psi" unicode="&#x3a8;" horiz-adv-x="1711" 
 />
    <glyph glyph-name="uni03A9" unicode="&#x3a9;" horiz-adv-x="1531" 
 />
    <glyph glyph-name="Iotadieresis" unicode="&#x3aa;" horiz-adv-x="569" 
 />
    <glyph glyph-name="Upsilondieresis" unicode="&#x3ab;" horiz-adv-x="1366" 
 />
    <glyph glyph-name="alphatonos" unicode="&#x3ac;" horiz-adv-x="1184" 
 />
    <glyph glyph-name="epsilontonos" unicode="&#x3ad;" horiz-adv-x="913" 
 />
    <glyph glyph-name="etatonos" unicode="&#x3ae;" horiz-adv-x="1139" 
 />
    <glyph glyph-name="iotatonos" unicode="&#x3af;" horiz-adv-x="455" 
 />
    <glyph glyph-name="upsilondieresistonos" unicode="&#x3b0;" horiz-adv-x="1120" 
 />
    <glyph glyph-name="alpha" unicode="&#x3b1;" horiz-adv-x="1184" 
 />
    <glyph glyph-name="beta" unicode="&#x3b2;" horiz-adv-x="1178" 
 />
    <glyph glyph-name="gamma" unicode="&#x3b3;" horiz-adv-x="1024" 
 />
    <glyph glyph-name="delta" unicode="&#x3b4;" horiz-adv-x="1140" 
 />
    <glyph glyph-name="epsilon" unicode="&#x3b5;" horiz-adv-x="913" 
 />
    <glyph glyph-name="zeta" unicode="&#x3b6;" horiz-adv-x="903" 
 />
    <glyph glyph-name="eta" unicode="&#x3b7;" horiz-adv-x="1139" 
 />
    <glyph glyph-name="theta" unicode="&#x3b8;" horiz-adv-x="1139" 
 />
    <glyph glyph-name="iota" unicode="&#x3b9;" horiz-adv-x="455" 
 />
    <glyph glyph-name="kappa" unicode="&#x3ba;" horiz-adv-x="1024" 
 />
    <glyph glyph-name="lambda" unicode="&#x3bb;" horiz-adv-x="1024" 
 />
    <glyph glyph-name="uni03BC" unicode="&#x3bc;" horiz-adv-x="1180" 
 />
    <glyph glyph-name="nu" unicode="&#x3bd;" horiz-adv-x="1024" 
 />
    <glyph glyph-name="xi" unicode="&#x3be;" horiz-adv-x="917" 
 />
    <glyph glyph-name="omicron" unicode="&#x3bf;" horiz-adv-x="1139" 
 />
    <glyph glyph-name="pi" unicode="&#x3c0;" horiz-adv-x="1413" 
 />
    <glyph glyph-name="rho" unicode="&#x3c1;" horiz-adv-x="1165" 
 />
    <glyph glyph-name="sigma1" unicode="&#x3c2;" horiz-adv-x="987" 
 />
    <glyph glyph-name="sigma" unicode="&#x3c3;" horiz-adv-x="1264" 
 />
    <glyph glyph-name="tau" unicode="&#x3c4;" horiz-adv-x="809" 
 />
    <glyph glyph-name="upsilon" unicode="&#x3c5;" horiz-adv-x="1120" 
 />
    <glyph glyph-name="phi" unicode="&#x3c6;" horiz-adv-x="1328" 
 />
    <glyph glyph-name="chi" unicode="&#x3c7;" horiz-adv-x="1075" 
 />
    <glyph glyph-name="psi" unicode="&#x3c8;" horiz-adv-x="1460" 
 />
    <glyph glyph-name="omega" unicode="&#x3c9;" horiz-adv-x="1599" 
 />
    <glyph glyph-name="iotadieresis" unicode="&#x3ca;" horiz-adv-x="455" 
 />
    <glyph glyph-name="upsilondieresis" unicode="&#x3cb;" horiz-adv-x="1120" 
 />
    <glyph glyph-name="omicrontonos" unicode="&#x3cc;" horiz-adv-x="1139" 
 />
    <glyph glyph-name="upsilontonos" unicode="&#x3cd;" horiz-adv-x="1120" 
 />
    <glyph glyph-name="omegatonos" unicode="&#x3ce;" horiz-adv-x="1599" 
 />
    <glyph glyph-name="afii10023" unicode="&#x401;" horiz-adv-x="1367" 
 />
    <glyph glyph-name="afii10051" unicode="&#x402;" horiz-adv-x="1771" 
 />
    <glyph glyph-name="afii10052" unicode="&#x403;" horiz-adv-x="1109" 
 />
    <glyph glyph-name="afii10053" unicode="&#x404;" horiz-adv-x="1472" 
 />
    <glyph glyph-name="afii10054" unicode="&#x405;" horiz-adv-x="1366" 
 />
    <glyph glyph-name="afii10055" unicode="&#x406;" horiz-adv-x="569" 
 />
    <glyph glyph-name="afii10056" unicode="&#x407;" horiz-adv-x="569" 
 />
    <glyph glyph-name="afii10057" unicode="&#x408;" horiz-adv-x="1024" 
 />
    <glyph glyph-name="afii10058" unicode="&#x409;" horiz-adv-x="2165" 
 />
    <glyph glyph-name="afii10059" unicode="&#x40a;" horiz-adv-x="2069" 
 />
    <glyph glyph-name="afii10060" unicode="&#x40b;" horiz-adv-x="1749" 
 />
    <glyph glyph-name="afii10061" unicode="&#x40c;" horiz-adv-x="1193" 
 />
    <glyph glyph-name="afii10062" unicode="&#x40e;" horiz-adv-x="1301" 
 />
    <glyph glyph-name="afii10145" unicode="&#x40f;" horiz-adv-x="1472" 
 />
    <glyph glyph-name="afii10017" unicode="&#x410;" horiz-adv-x="1366" 
 />
    <glyph glyph-name="afii10018" unicode="&#x411;" horiz-adv-x="1344" 
 />
    <glyph glyph-name="afii10019" unicode="&#x412;" horiz-adv-x="1366" 
 />
    <glyph glyph-name="afii10020" unicode="&#x413;" horiz-adv-x="1109" 
 />
    <glyph glyph-name="afii10021" unicode="&#x414;" horiz-adv-x="1387" 
 />
    <glyph glyph-name="afii10022" unicode="&#x415;" horiz-adv-x="1366" 
 />
    <glyph glyph-name="afii10024" unicode="&#x416;" horiz-adv-x="1891" 
 />
    <glyph glyph-name="afii10025" unicode="&#x417;" horiz-adv-x="1237" 
 />
    <glyph glyph-name="afii10026" unicode="&#x418;" horiz-adv-x="1472" 
 />
    <glyph glyph-name="afii10027" unicode="&#x419;" horiz-adv-x="1472" 
 />
    <glyph glyph-name="afii10028" unicode="&#x41a;" horiz-adv-x="1193" 
 />
    <glyph glyph-name="afii10029" unicode="&#x41b;" horiz-adv-x="1344" 
 />
    <glyph glyph-name="afii10030" unicode="&#x41c;" horiz-adv-x="1706" 
 />
    <glyph glyph-name="afii10031" unicode="&#x41d;" horiz-adv-x="1479" 
 />
    <glyph glyph-name="afii10032" unicode="&#x41e;" horiz-adv-x="1593" 
 />
    <glyph glyph-name="afii10033" unicode="&#x41f;" horiz-adv-x="1472" 
 />
    <glyph glyph-name="afii10034" unicode="&#x420;" horiz-adv-x="1366" 
 />
    <glyph glyph-name="afii10035" unicode="&#x421;" horiz-adv-x="1479" 
 />
    <glyph glyph-name="afii10036" unicode="&#x422;" horiz-adv-x="1251" 
 />
    <glyph glyph-name="afii10037" unicode="&#x423;" horiz-adv-x="1301" 
 />
    <glyph glyph-name="afii10038" unicode="&#x424;" horiz-adv-x="1557" 
 />
    <glyph glyph-name="afii10039" unicode="&#x425;" horiz-adv-x="1366" 
 />
    <glyph glyph-name="afii10040" unicode="&#x426;" horiz-adv-x="1515" 
 />
    <glyph glyph-name="afii10041" unicode="&#x427;" horiz-adv-x="1365" 
 />
    <glyph glyph-name="afii10042" unicode="&#x428;" horiz-adv-x="1877" 
 />
    <glyph glyph-name="afii10043" unicode="&#x429;" horiz-adv-x="1920" 
 />
    <glyph glyph-name="afii10044" unicode="&#x42a;" horiz-adv-x="1621" 
 />
    <glyph glyph-name="afii10045" unicode="&#x42b;" horiz-adv-x="1813" 
 />
    <glyph glyph-name="afii10046" unicode="&#x42c;" horiz-adv-x="1344" 
 />
    <glyph glyph-name="afii10047" unicode="&#x42d;" horiz-adv-x="1472" 
 />
    <glyph glyph-name="afii10048" unicode="&#x42e;" horiz-adv-x="2069" 
 />
    <glyph glyph-name="afii10049" unicode="&#x42f;" horiz-adv-x="1479" 
 />
    <glyph glyph-name="afii10065" unicode="&#x430;" horiz-adv-x="1139" 
 />
    <glyph glyph-name="afii10066" unicode="&#x431;" horiz-adv-x="1173" 
 />
    <glyph glyph-name="afii10067" unicode="&#x432;" horiz-adv-x="1088" 
 />
    <glyph glyph-name="afii10068" unicode="&#x433;" horiz-adv-x="747" 
 />
    <glyph glyph-name="afii10069" unicode="&#x434;" horiz-adv-x="1195" 
 />
    <glyph glyph-name="afii10070" unicode="&#x435;" horiz-adv-x="1139" 
 />
    <glyph glyph-name="afii10072" unicode="&#x436;" horiz-adv-x="1370" 
 />
    <glyph glyph-name="afii10073" unicode="&#x437;" horiz-adv-x="939" 
 />
    <glyph glyph-name="afii10074" unicode="&#x438;" horiz-adv-x="1144" 
 />
    <glyph glyph-name="afii10075" unicode="&#x439;" horiz-adv-x="1144" 
 />
    <glyph glyph-name="afii10076" unicode="&#x43a;" horiz-adv-x="896" 
 />
    <glyph glyph-name="afii10077" unicode="&#x43b;" horiz-adv-x="1195" 
 />
    <glyph glyph-name="afii10078" unicode="&#x43c;" horiz-adv-x="1408" 
 />
    <glyph glyph-name="afii10079" unicode="&#x43d;" horiz-adv-x="1131" 
 />
    <glyph glyph-name="afii10080" unicode="&#x43e;" horiz-adv-x="1139" 
 />
    <glyph glyph-name="afii10081" unicode="&#x43f;" horiz-adv-x="1109" 
 />
    <glyph glyph-name="afii10082" unicode="&#x440;" horiz-adv-x="1139" 
 />
    <glyph glyph-name="afii10083" unicode="&#x441;" horiz-adv-x="1024" 
 />
    <glyph glyph-name="afii10084" unicode="&#x442;" horiz-adv-x="938" 
 />
    <glyph glyph-name="afii10085" unicode="&#x443;" horiz-adv-x="1024" 
 />
    <glyph glyph-name="afii10086" unicode="&#x444;" horiz-adv-x="1685" 
 />
    <glyph glyph-name="afii10087" unicode="&#x445;" horiz-adv-x="1024" 
 />
    <glyph glyph-name="afii10088" unicode="&#x446;" horiz-adv-x="1173" 
 />
    <glyph glyph-name="afii10089" unicode="&#x447;" horiz-adv-x="1067" 
 />
    <glyph glyph-name="afii10090" unicode="&#x448;" horiz-adv-x="1643" 
 />
    <glyph glyph-name="afii10091" unicode="&#x449;" horiz-adv-x="1685" 
 />
    <glyph glyph-name="afii10092" unicode="&#x44a;" horiz-adv-x="1280" 
 />
    <glyph glyph-name="afii10093" unicode="&#x44b;" horiz-adv-x="1472" 
 />
    <glyph glyph-name="afii10094" unicode="&#x44c;" horiz-adv-x="1067" 
 />
    <glyph glyph-name="afii10095" unicode="&#x44d;" horiz-adv-x="1045" 
 />
    <glyph glyph-name="afii10096" unicode="&#x44e;" horiz-adv-x="1536" 
 />
    <glyph glyph-name="afii10097" unicode="&#x44f;" horiz-adv-x="1109" 
 />
    <glyph glyph-name="afii10071" unicode="&#x451;" horiz-adv-x="1139" 
 />
    <glyph glyph-name="afii10099" unicode="&#x452;" horiz-adv-x="1139" 
 />
    <glyph glyph-name="afii10100" unicode="&#x453;" horiz-adv-x="747" 
 />
    <glyph glyph-name="afii10101" unicode="&#x454;" horiz-adv-x="1045" 
 />
    <glyph glyph-name="afii10102" unicode="&#x455;" horiz-adv-x="1024" 
 />
    <glyph glyph-name="afii10103" unicode="&#x456;" horiz-adv-x="455" 
 />
    <glyph glyph-name="afii10104" unicode="&#x457;" horiz-adv-x="569" 
 />
    <glyph glyph-name="afii10105" unicode="&#x458;" horiz-adv-x="455" 
 />
    <glyph glyph-name="afii10106" unicode="&#x459;" horiz-adv-x="1856" 
 />
    <glyph glyph-name="afii10107" unicode="&#x45a;" horiz-adv-x="1664" 
 />
    <glyph glyph-name="afii10108" unicode="&#x45b;" horiz-adv-x="1139" 
 />
    <glyph glyph-name="afii10109" unicode="&#x45c;" horiz-adv-x="896" 
 />
    <glyph glyph-name="afii10110" unicode="&#x45e;" horiz-adv-x="1024" 
 />
    <glyph glyph-name="afii10193" unicode="&#x45f;" horiz-adv-x="1131" 
 />
    <glyph glyph-name="afii10050" unicode="&#x490;" horiz-adv-x="1001" 
 />
    <glyph glyph-name="afii10098" unicode="&#x491;" horiz-adv-x="842" 
 />
    <glyph glyph-name="Wgrave" unicode="&#x1e80;" horiz-adv-x="1933" 
 />
    <glyph glyph-name="wgrave" unicode="&#x1e81;" horiz-adv-x="1479" 
 />
    <glyph glyph-name="Wacute" unicode="&#x1e82;" horiz-adv-x="1933" 
 />
    <glyph glyph-name="wacute" unicode="&#x1e83;" horiz-adv-x="1479" 
 />
    <glyph glyph-name="Wdieresis" unicode="&#x1e84;" horiz-adv-x="1933" 
 />
    <glyph glyph-name="wdieresis" unicode="&#x1e85;" horiz-adv-x="1479" 
 />
    <glyph glyph-name="Ygrave" unicode="&#x1ef2;" horiz-adv-x="1366" 
 />
    <glyph glyph-name="ygrave" unicode="&#x1ef3;" horiz-adv-x="1024" 
 />
    <glyph glyph-name="endash" unicode="&#x2013;" horiz-adv-x="1139" 
 />
    <glyph glyph-name="emdash" unicode="&#x2014;" horiz-adv-x="2048" 
 />
    <glyph glyph-name="afii00208" unicode="&#x2015;" horiz-adv-x="2048" 
 />
    <glyph glyph-name="underscoredbl" unicode="&#x2017;" horiz-adv-x="1131" 
 />
    <glyph glyph-name="quoteleft" unicode="&#x2018;" horiz-adv-x="455" 
 />
    <glyph glyph-name="quoteright" unicode="&#x2019;" horiz-adv-x="455" 
 />
    <glyph glyph-name="quotesinglbase" unicode="&#x201a;" horiz-adv-x="455" 
 />
    <glyph glyph-name="quotereversed" unicode="&#x201b;" horiz-adv-x="455" 
 />
    <glyph glyph-name="quotedblleft" unicode="&#x201c;" horiz-adv-x="682" 
 />
    <glyph glyph-name="quotedblright" unicode="&#x201d;" horiz-adv-x="682" 
 />
    <glyph glyph-name="quotedblbase" unicode="&#x201e;" horiz-adv-x="682" 
 />
    <glyph glyph-name="dagger" unicode="&#x2020;" horiz-adv-x="1139" 
 />
    <glyph glyph-name="daggerdbl" unicode="&#x2021;" horiz-adv-x="1139" 
 />
    <glyph glyph-name="bullet" unicode="&#x2022;" horiz-adv-x="717" 
 />
    <glyph glyph-name="ellipsis" unicode="&#x2026;" horiz-adv-x="2048" 
 />
    <glyph glyph-name="perthousand" unicode="&#x2030;" horiz-adv-x="2048" 
 />
    <glyph glyph-name="minute" unicode="&#x2032;" horiz-adv-x="384" 
 />
    <glyph glyph-name="second" unicode="&#x2033;" horiz-adv-x="725" 
 />
    <glyph glyph-name="guilsinglleft" unicode="&#x2039;" horiz-adv-x="682" 
 />
    <glyph glyph-name="guilsinglright" unicode="&#x203a;" horiz-adv-x="682" 
 />
    <glyph glyph-name="exclamdbl" unicode="&#x203c;" horiz-adv-x="1024" 
 />
    <glyph glyph-name="uni203E" unicode="&#x203e;" horiz-adv-x="682" 
 />
    <glyph glyph-name="fraction" unicode="&#x2044;" horiz-adv-x="342" 
 />
    <glyph glyph-name="fraction" unicode="&#x2215;" horiz-adv-x="342" 
 />
    <glyph glyph-name="uni207F" unicode="&#x207f;" horiz-adv-x="747" 
 />
    <glyph glyph-name="franc" unicode="&#x20a3;" horiz-adv-x="1139" 
 />
    <glyph glyph-name="lira" unicode="&#x20a4;" horiz-adv-x="1139" 
 />
    <glyph glyph-name="peseta" unicode="&#x20a7;" horiz-adv-x="2240" 
 />
    <glyph glyph-name="Euro" unicode="&#x20ac;" horiz-adv-x="1139" 
 />
    <glyph glyph-name="afii61248" unicode="&#x2105;" horiz-adv-x="1813" 
 />
    <glyph glyph-name="afii61289" unicode="&#x2113;" horiz-adv-x="662" 
 />
    <glyph glyph-name="afii61352" unicode="&#x2116;" horiz-adv-x="2197" 
 />
    <glyph glyph-name="trademark" unicode="&#x2122;" horiz-adv-x="2048" 
 />
    <glyph glyph-name="Omega" unicode="&#x2126;" horiz-adv-x="1573" 
 />
    <glyph glyph-name="estimated" unicode="&#x212e;" horiz-adv-x="1229" 
 />
    <glyph glyph-name="oneeighth" unicode="&#x215b;" horiz-adv-x="1708" 
 />
    <glyph glyph-name="threeeighths" unicode="&#x215c;" horiz-adv-x="1708" 
 />
    <glyph glyph-name="fiveeighths" unicode="&#x215d;" horiz-adv-x="1708" 
 />
    <glyph glyph-name="seveneighths" unicode="&#x215e;" horiz-adv-x="1708" 
 />
    <glyph glyph-name="arrowleft" unicode="&#x2190;" horiz-adv-x="2048" 
 />
    <glyph glyph-name="arrowup" unicode="&#x2191;" horiz-adv-x="1024" 
 />
    <glyph glyph-name="arrowright" unicode="&#x2192;" horiz-adv-x="2048" 
 />
    <glyph glyph-name="arrowdown" unicode="&#x2193;" horiz-adv-x="1024" 
 />
    <glyph glyph-name="arrowboth" unicode="&#x2194;" horiz-adv-x="2048" 
 />
    <glyph glyph-name="arrowupdn" unicode="&#x2195;" horiz-adv-x="1024" 
 />
    <glyph glyph-name="arrowupdnbse" unicode="&#x21a8;" horiz-adv-x="1024" 
 />
    <glyph glyph-name="partialdiff" unicode="&#x2202;" horiz-adv-x="1012" 
 />
    <glyph glyph-name="Delta" unicode="&#x2206;" horiz-adv-x="1253" 
 />
    <glyph glyph-name="product" unicode="&#x220f;" horiz-adv-x="1686" 
 />
    <glyph glyph-name="summation" unicode="&#x2211;" horiz-adv-x="1460" 
 />
    <glyph glyph-name="minus" unicode="&#x2212;" horiz-adv-x="1196" 
 />
    <glyph glyph-name="radical" unicode="&#x221a;" horiz-adv-x="1124" 
 />
    <glyph glyph-name="infinity" unicode="&#x221e;" horiz-adv-x="1460" 
 />
    <glyph glyph-name="orthogonal" unicode="&#x221f;" horiz-adv-x="2005" 
 />
    <glyph glyph-name="intersection" unicode="&#x2229;" horiz-adv-x="1472" 
 />
    <glyph glyph-name="integral" unicode="&#x222b;" horiz-adv-x="561" 
 />
    <glyph glyph-name="approxequal" unicode="&#x2248;" horiz-adv-x="1124" 
 />
    <glyph glyph-name="notequal" unicode="&#x2260;" horiz-adv-x="1124" 
 />
    <glyph glyph-name="equivalence" unicode="&#x2261;" horiz-adv-x="1195" 
 />
    <glyph glyph-name="lessequal" unicode="&#x2264;" horiz-adv-x="1124" 
 />
    <glyph glyph-name="greaterequal" unicode="&#x2265;" horiz-adv-x="1124" 
 />
    <glyph glyph-name="house" unicode="&#x2302;" horiz-adv-x="1237" 
 />
    <glyph glyph-name="revlogicalnot" unicode="&#x2310;" horiz-adv-x="1196" 
 />
    <glyph glyph-name="integraltp" unicode="&#x2320;" horiz-adv-x="1237" 
 />
    <glyph glyph-name="integralbt" unicode="&#x2321;" horiz-adv-x="1237" 
 />
    <glyph glyph-name="SF100000" unicode="&#x2500;" horiz-adv-x="1451" 
 />
    <glyph glyph-name="SF110000" unicode="&#x2502;" horiz-adv-x="1280" 
 />
    <glyph glyph-name="SF010000" unicode="&#x250c;" horiz-adv-x="1451" 
 />
    <glyph glyph-name="SF030000" unicode="&#x2510;" horiz-adv-x="1451" 
 />
    <glyph glyph-name="SF020000" unicode="&#x2514;" horiz-adv-x="1451" 
 />
    <glyph glyph-name="SF040000" unicode="&#x2518;" horiz-adv-x="1451" 
 />
    <glyph glyph-name="SF080000" unicode="&#x251c;" horiz-adv-x="1451" 
 />
    <glyph glyph-name="SF090000" unicode="&#x2524;" horiz-adv-x="1451" 
 />
    <glyph glyph-name="SF060000" unicode="&#x252c;" horiz-adv-x="1451" 
 />
    <glyph glyph-name="SF070000" unicode="&#x2534;" horiz-adv-x="1451" 
 />
    <glyph glyph-name="SF050000" unicode="&#x253c;" horiz-adv-x="1451" 
 />
    <glyph glyph-name="SF430000" unicode="&#x2550;" horiz-adv-x="1451" 
 />
    <glyph glyph-name="SF240000" unicode="&#x2551;" horiz-adv-x="1451" 
 />
    <glyph glyph-name="SF510000" unicode="&#x2552;" horiz-adv-x="1451" 
 />
    <glyph glyph-name="SF520000" unicode="&#x2553;" horiz-adv-x="1451" 
 />
    <glyph glyph-name="SF390000" unicode="&#x2554;" horiz-adv-x="1451" 
 />
    <glyph glyph-name="SF220000" unicode="&#x2555;" horiz-adv-x="1451" 
 />
    <glyph glyph-name="SF210000" unicode="&#x2556;" horiz-adv-x="1451" 
 />
    <glyph glyph-name="SF250000" unicode="&#x2557;" horiz-adv-x="1451" 
 />
    <glyph glyph-name="SF500000" unicode="&#x2558;" horiz-adv-x="1451" 
 />
    <glyph glyph-name="SF490000" unicode="&#x2559;" horiz-adv-x="1451" 
 />
    <glyph glyph-name="SF380000" unicode="&#x255a;" horiz-adv-x="1451" 
 />
    <glyph glyph-name="SF280000" unicode="&#x255b;" horiz-adv-x="1451" 
 />
    <glyph glyph-name="SF270000" unicode="&#x255c;" horiz-adv-x="1451" 
 />
    <glyph glyph-name="SF260000" unicode="&#x255d;" horiz-adv-x="1451" 
 />
    <glyph glyph-name="SF360000" unicode="&#x255e;" horiz-adv-x="1451" 
 />
    <glyph glyph-name="SF370000" unicode="&#x255f;" horiz-adv-x="1451" 
 />
    <glyph glyph-name="SF420000" unicode="&#x2560;" horiz-adv-x="1451" 
 />
    <glyph glyph-name="SF190000" unicode="&#x2561;" horiz-adv-x="1451" 
 />
    <glyph glyph-name="SF200000" unicode="&#x2562;" horiz-adv-x="1451" 
 />
    <glyph glyph-name="SF230000" unicode="&#x2563;" horiz-adv-x="1451" 
 />
    <glyph glyph-name="SF470000" unicode="&#x2564;" horiz-adv-x="1451" 
 />
    <glyph glyph-name="SF480000" unicode="&#x2565;" horiz-adv-x="1451" 
 />
    <glyph glyph-name="SF410000" unicode="&#x2566;" horiz-adv-x="1451" 
 />
    <glyph glyph-name="SF450000" unicode="&#x2567;" horiz-adv-x="1451" 
 />
    <glyph glyph-name="SF460000" unicode="&#x2568;" horiz-adv-x="1451" 
 />
    <glyph glyph-name="SF400000" unicode="&#x2569;" horiz-adv-x="1451" 
 />
    <glyph glyph-name="SF540000" unicode="&#x256a;" horiz-adv-x="1451" 
 />
    <glyph glyph-name="SF530000" unicode="&#x256b;" horiz-adv-x="1451" 
 />
    <glyph glyph-name="SF440000" unicode="&#x256c;" horiz-adv-x="1451" 
 />
    <glyph glyph-name="upblock" unicode="&#x2580;" horiz-adv-x="1451" 
 />
    <glyph glyph-name="dnblock" unicode="&#x2584;" horiz-adv-x="1451" 
 />
    <glyph glyph-name="block" unicode="&#x2588;" horiz-adv-x="1451" 
 />
    <glyph glyph-name="lfblock" unicode="&#x258c;" horiz-adv-x="1451" 
 />
    <glyph glyph-name="rtblock" unicode="&#x2590;" horiz-adv-x="1451" 
 />
    <glyph glyph-name="ltshade" unicode="&#x2591;" horiz-adv-x="1451" 
 />
    <glyph glyph-name="shade" unicode="&#x2592;" horiz-adv-x="1451" 
 />
    <glyph glyph-name="dkshade" unicode="&#x2593;" horiz-adv-x="1493" 
 />
    <glyph glyph-name="filledbox" unicode="&#x25a0;" horiz-adv-x="1237" 
 />
    <glyph glyph-name="H22073" unicode="&#x25a1;" horiz-adv-x="1237" 
 />
    <glyph glyph-name="H18543" unicode="&#x25aa;" horiz-adv-x="726" 
 />
    <glyph glyph-name="H18551" unicode="&#x25ab;" horiz-adv-x="726" 
 />
    <glyph glyph-name="filledrect" unicode="&#x25ac;" horiz-adv-x="2048" 
 />
    <glyph glyph-name="triagup" unicode="&#x25b2;" horiz-adv-x="2027" 
 />
    <glyph glyph-name="triagrt" unicode="&#x25ba;" horiz-adv-x="2027" 
 />
    <glyph glyph-name="triagdn" unicode="&#x25bc;" horiz-adv-x="2027" 
 />
    <glyph glyph-name="triaglf" unicode="&#x25c4;" horiz-adv-x="2027" 
 />
    <glyph glyph-name="lozenge" unicode="&#x25ca;" horiz-adv-x="1012" 
 />
    <glyph glyph-name="circle" unicode="&#x25cb;" horiz-adv-x="1237" 
 />
    <glyph glyph-name="H18533" unicode="&#x25cf;" horiz-adv-x="1237" 
 />
    <glyph glyph-name="invbullet" unicode="&#x25d8;" horiz-adv-x="1237" 
 />
    <glyph glyph-name="invcircle" unicode="&#x25d9;" horiz-adv-x="1237" 
 />
    <glyph glyph-name="openbullet" unicode="&#x25e6;" horiz-adv-x="726" 
 />
    <glyph glyph-name="smileface" unicode="&#x263a;" horiz-adv-x="2091" 
 />
    <glyph glyph-name="invsmileface" unicode="&#x263b;" horiz-adv-x="2155" 
 />
    <glyph glyph-name="sun" unicode="&#x263c;" horiz-adv-x="1877" 
 />
    <glyph glyph-name="female" unicode="&#x2640;" horiz-adv-x="1536" 
 />
    <glyph glyph-name="male" unicode="&#x2642;" horiz-adv-x="1536" 
 />
    <glyph glyph-name="spade" unicode="&#x2660;" horiz-adv-x="1088" 
 />
    <glyph glyph-name="club" unicode="&#x2663;" horiz-adv-x="1344" 
 />
    <glyph glyph-name="heart" unicode="&#x2665;" horiz-adv-x="1216" 
 />
    <glyph glyph-name="diamond" unicode="&#x2666;" horiz-adv-x="1045" 
 />
    <glyph glyph-name="musicalnote" unicode="&#x266a;" horiz-adv-x="1024" 
 />
    <glyph glyph-name="musicalnotedbl" unicode="&#x266b;" horiz-adv-x="1536" 
 />
    <glyph glyph-name="uniF001" unicode="&#xf001;" horiz-adv-x="1024" 
 />
    <glyph glyph-name="uniF001" unicode="&#xfb01;" horiz-adv-x="1024" 
 />
    <glyph glyph-name="uniF002" unicode="&#xf002;" horiz-adv-x="1024" 
 />
    <glyph glyph-name="uniF002" unicode="&#xfb02;" horiz-adv-x="1024" 
 />
    <glyph glyph-name="uniF004" unicode="&#xf004;" horiz-adv-x="682" 
 />
    <glyph glyph-name="uniF005" unicode="&#xf005;" horiz-adv-x="682" 
 />
    <glyph glyph-name=".notdef.001" horiz-adv-x="1124" 
d="M50 -300v1280h1024v-1280h-1024zM82 -268h960v1216h-960v-1216z" />
    </font>
</defs>
</svg>
