<?xml version="1.0" standalone="no"?>
<!DOCTYPE svg PUBLIC "-//W3C//DTD SVG 1.1//EN" "http://www.w3.org/Graphics/SVG/1.1/DTD/svg11.dtd" >
<svg xmlns="http://www.w3.org/2000/svg" xmlns:xlink="http://www.w3.org/1999/xlink" version="1.1">
<metadata>
Created by FontForge 20150824 at Wed Aug 31 14:37:03 2016
 By Everything Fonts
visit: www.marceldejong.com
</metadata>
<defs>
<font id="FairyDust" horiz-adv-x="1024" >
  <font-face 
    font-family="FairyDust"
    font-weight="400"
    font-stretch="normal"
    units-per-em="2048"
    panose-1="2 0 0 0 0 0 0 0 0 0"
    ascent="1638"
    descent="-410"
    x-height="975.5"
    cap-height="1506"
    bbox="-1124 -442 2738 1797"
    underline-thickness="48"
    underline-position="-236"
    unicode-range="U+0020-F002"
  />
<missing-glyph horiz-adv-x="500" 
d="M63 0v1280h1024v-1280h-1024zM95 32h960v1216h-960v-1216z" />
    <glyph glyph-name=".notdef" horiz-adv-x="500" 
d="M63 0v1280h1024v-1280h-1024zM95 32h960v1216h-960v-1216z" />
    <glyph glyph-name=".null" horiz-adv-x="0" 
 />
    <glyph glyph-name="nonmarkingreturn" horiz-adv-x="390" 
 />
    <glyph glyph-name="space" unicode=" " horiz-adv-x="614" 
 />
    <glyph glyph-name="exclam" unicode="!" horiz-adv-x="483" 
d="M167 275q44 110 58 196t12.5 171t-12.5 168t-41 175.5t-34.5 139.5t-8 88t14 91.5t53.5 72.5t73.5 22t69 -46t34.5 -116.5t-9.5 -200.5t-34.5 -270t-45.5 -220t-47 -136.5t-82.5 -128.5v-6zM166 180q141 44 163 8t6.5 -84.5t-39 -81.5t-75.5 -34.5t-77 17t-45.5 50
t0 64.5t67.5 64v-3z" />
    <glyph glyph-name="quotedbl" unicode="&#x22;" horiz-adv-x="640" 
d="M65 781q26 187 25 267.5t-25.5 119t-26 108.5t59.5 115.5t110 31.5t41.5 -128t-27 -203.5t-157.5 -307.5v-3zM441 773q26 187 25 267.5t-25.5 119t-26 108.5t59.5 115.5t110 31.5t41.5 -128t-27 -203.5t-157.5 -307.5v-3z" />
    <glyph glyph-name="numbersign" unicode="#" horiz-adv-x="1293" 
d="M418 490l333 13l72 355l-332 -6zM568 1392q-9 -176 -59 -458l338 13q54 326 40 341.5t-61 6.5q47 72 213 97l-88 -452q192 -6 245 2t97 64q-15 -88 -42 -127t-71 -40.5t-257 16.5l-79 -348q299 3 322.5 17t13.5 68q32 -63 27 -104t-38 -58t-58 -15.5t-282 10.5
q-32 -110 -85 -270t-160 -336q69 95 163 606l-336 -3q-66 -273 -116 -389t-129 -229q51 103 88.5 225.5t78.5 389.5q-198 0 -289 -1.5t-210 -29.5q78 37 172 57.5t336 30.5q13 31 63 379q-19 7 -127 -5.5t-180.5 -19t-173 -26.5t-210.5 -68q113 82 247 126t463 66
q28 204 47 467z" />
    <glyph glyph-name="dollar" unicode="$" horiz-adv-x="876" 
d="M222 1117q0 -73 44 -136.5t146 -135.5l-15 461q-78 -8 -126.5 -59.5t-48.5 -129.5zM483 37q75 13 115 37q56 35 88.5 91.5t32.5 120.5q0 66 -39.5 125t-196.5 167v-541zM715 792q57 198 55.5 247t-21.5 97.5t-68.5 93.5t-99 61.5t-105.5 19.5q-3 4 11 -502
q152 -125 206 -161.5t106.5 -90.5t65 -124t-7.5 -148t-41.5 -117.5t-52 -73.5t-72 -57.5t-211.5 -63.5q-7 -97 -18 -133.5t-25.5 -72.5t-64.5 -137q40 112 47 173.5t11 169.5q-91 0 -137.5 5.5t-77.5 18t-49 12.5t-21.5 -23.5t32.5 -70.5q-61 36 -84.5 83t-45 151.5
t-61.5 160.5t-92 94t-117 50.5t-133.5 14.5t-119 0t-92 -14.5t-139.5 -45.5q36 29 110 58t168 36t173.5 -2t171.5 -52t140.5 -115t72 -121t70.5 -85t106.5 -59.5t120.5 -30.5l-14 584q-58 36 -107 76t-106.5 88.5t-93.5 119t-30.5 144.5t25 128t86.5 113t207 82
q-21 151 -33.5 190.5t-59.5 97.5q75 51 125.5 31t61.5 -49t2 -59.5t-13 -207.5q119 -14 159 -25t63.5 -12.5t38 12.5t9 43t-25.5 49t-49 21.5t-68 -41.5q18 61 65 74t97.5 -52t59.5 -202t-14.5 -229t-99.5 -226z" />
    <glyph glyph-name="percent" unicode="%" horiz-adv-x="1441" 
d="M1175 584q-29 51 -77 51q-51 0 -93.5 -60t-52.5 -252q-7 -139 12 -212q14 -55 48 -85q21 -18 52 -18q48 0 84 52q54 77 63 257q9 190 -36 267zM1064 684q86 0 119.5 -16.5t75.5 -45.5q58 0 82.5 20t83.5 114q-12 -79 -46 -115.5t-75 -57.5q55 -130 48 -231t-58.5 -198.5
t-102.5 -140.5t-116.5 -50.5t-121.5 19.5t-101.5 92t-55 168t11.5 195t89 158.5t163 84.5zM443 1248q-29 51 -77 51q-51 0 -93.5 -60t-52.5 -252q-7 -139 12 -212q14 -55 48 -85q21 -18 52 -18q48 0 84 52q54 77 63 257q9 190 -36 267zM343 1348q86 0 119.5 -16.5
t75.5 -45.5q58 0 82.5 20t83.5 114q-12 -79 -46 -115.5t-75 -57.5q55 -130 48 -231t-58.5 -198.5t-102.5 -140.5t-116.5 -50.5t-121.5 19.5t-101.5 92t-55 168t11.5 195t89 158.5t163 84.5zM1160 1535l37 -10l28 -87q36 -51 -38 -163t-194.5 -308.5t-207 -299t-159 -171
t-162.5 -135.5t-184 -168t-83 -317q-47 259 131.5 410.5t397 453t434.5 798.5v-3z" />
    <glyph glyph-name="ampersand" unicode="&#x26;" horiz-adv-x="1476" 
d="M517 1135q0 -49 17 -109.5t67 -178.5q124 59 185.5 134t61.5 167q0 72 -44.5 119t-110.5 47q-87 0 -131.5 -60.5t-44.5 -118.5zM475 90q63 0 121.5 25t159.5 107q-132 180 -183 263t-112 206q-120 -69 -180.5 -152t-60.5 -180q0 -107 69 -188t186 -81zM2074 637
q-315 -94 -379.5 -130.5t-105 -82t-75.5 -99t-50.5 -110t-53 -110t-88 -82t-118 -38t-143 9.5t-124.5 55.5t-128 114.5q-53 -60 -127 -99t-124.5 -62.5t-121 -33t-168 7.5t-149.5 59.5t-71 88t-19 129t16 154.5t71 129t114.5 105.5t201.5 113.5q-88 204 -85 287.5t37.5 167
t107 122.5t154.5 51.5t149.5 -8t108.5 -58t50.5 -119.5t-9.5 -149.5t-315 -265.5q164 -277 267 -422q133 177 153.5 222.5t22 97.5t-28.5 83t-74 42t-98 56q104 -48 142 -48t116.5 17.5t157 47.5t234.5 41t379 -55q-214 53 -371 29.5t-226.5 -58t-110.5 -119.5t-91 -173
t-167 -236q126 -132 187.5 -166.5t126 -27t105.5 37.5t91 129t171 195t455 156z" />
    <glyph glyph-name="quotesingle" unicode="'" horiz-adv-x="324" 
d="M308 1300q5 -48 -15 -120.5t-41 -161t-66 -134.5t-136 -83q75 41 99 105t2 163.5t-33 158.5t4.5 96.5t43 53t62.5 11t80 -88.5z" />
    <glyph glyph-name="parenleft" unicode="(" horiz-adv-x="573" 
d="M809 1556q-211 -86 -301.5 -181t-181.5 -272.5t-87 -452t41.5 -448t124 -274.5t144.5 -146.5t-55.5 -59.5t-245.5 25t-347 55q182 0 254 -10t132 -24.5t97 -8.5t39 31t-51.5 78.5t-179.5 301t-120 468.5t76.5 398.5t140.5 253.5t208 163t316 103h-4z" />
    <glyph glyph-name="parenright" unicode=")" horiz-adv-x="647" 
d="M-570 -235q141 49 213 49t146.5 -18.5t138 -31t132 12.5t140.5 93t134 163t105.5 293t51.5 342.5t-6.5 231t-41 188t-128 219t-177.5 144t-225 18.5q74 25 187.5 25t188 -64t173 -188t142.5 -355t-3.5 -470.5t-132.5 -369.5t-179.5 -204t-206 -101t-196 -4t-198 41.5
t-262.5 -10.5z" />
    <glyph glyph-name="asterisk" unicode="*" horiz-adv-x="774" 
d="M402 1041q-4 61 -25 121q-30 87 -59 116q-62 20 -25 56.5t129 40.5q28 0 48 -24t20 -68q0 -40 -23.5 -111t-28.5 -131q49 31 88 75q60 70 89 87t59 17q29 0 49 -20t20 -48q17 -115 -21 -99t-154 -10q-68 -15 -113 -35q46 -23 112 -36q107 -19 140 -48t33 -64
q0 -26 -20 -45.5t-74 -42.5q-64 -8 -63.5 26t-54.5 98q-36 44 -90 82q2 -51 20 -110q32 -104 32 -142q0 -35 -21 -59.5t-45 -24.5q-33 0 -59 26q-19 18 -19 59q0 42 20.5 101.5t26 82t9.5 67.5q-52 -35 -135 -95q-35 -44 -73 -84q-30 -29 -66 -42q-34 -7 -70.5 -42.5
t-7.5 74.5q0 22 18 46.5t54 40.5q24 11 111 57q97 53 149 75q-48 24 -114 38q-94 57 -187 3q-22 49 13 109q0 24 20 43.5t46 19.5q29 0 61.5 -18.5t81.5 -74.5t99 -87z" />
    <glyph glyph-name="plus" unicode="+" horiz-adv-x="1242" 
d="M37 769q103 -31 183 -45.5t186.5 -15.5t374.5 23q0 160 -2.5 235.5t-10.5 126.5t-42 137q148 -16 158 -55q7 -148 2.5 -207.5t-7 -107.5t-9.5 -125q124 8 191 18.5t134 11.5t112.5 -1t73.5 -14q-38 -113 -98 -134q-100 24 -170.5 26.5t-135 2.5h-119.5
q-15 -309 -27 -390.5t-33.5 -146t-37.5 -88.5q33 144 38 214.5t-1 136t-11 274.5q-211 -8 -300.5 -4t-167 15.5t-140 34.5t-141.5 78z" />
    <glyph glyph-name="comma" unicode="," horiz-adv-x="521" 
d="M143 80q7 59 27 80.5t56.5 33t73 2.5t65.5 -32.5t41 -59.5t19.5 -84t-3 -89t-24 -71t-56 -58.5t-100.5 -34t-126.5 -14.5t-99 -29.5t-83.5 -84.5q32 48 65 80t53.5 38.5t50 11.5t71 8.5t71.5 12.5t49 29.5t39 53.5t21.5 61.5t-5 49.5t-26.5 18t-35 -16.5t-42 -18
t-49.5 10t-33.5 29t-18 73.5h-1z" />
    <glyph glyph-name="hyphen" unicode="-" horiz-adv-x="637" 
d="M58 543q92 -7 159.5 -7.5t139 1.5t115 7t75 6.5t44.5 -10.5t16 -36.5t3 -61.5t-29 -71q-70 18 -121 21.5t-141.5 2t-136 -4t-84.5 -2.5q-51 61 -57.5 88.5t16.5 66.5h1z" />
    <glyph glyph-name="hyphen" unicode="&#x2010;" horiz-adv-x="637" 
d="M58 543q92 -7 159.5 -7.5t139 1.5t115 7t75 6.5t44.5 -10.5t16 -36.5t3 -61.5t-29 -71q-70 18 -121 21.5t-141.5 2t-136 -4t-84.5 -2.5q-51 61 -57.5 88.5t16.5 66.5h1z" />
    <glyph glyph-name="period" unicode="." horiz-adv-x="243" 
d="M41 130q40 54 74 58.5t58 -1t39.5 -44t17 -77t-25.5 -60.5t-75 -32t-75.5 10.5t-34.5 58.5t22 86v1z" />
    <glyph glyph-name="slash" unicode="/" horiz-adv-x="662" 
d="M-59 -43q154 171 258.5 415.5t191.5 501t103 378t77 195.5l84 -137q-55 -95 -86.5 -188t-60.5 -203.5t-92 -286t-138.5 -299t-150.5 -218t-187 -162.5z" />
    <glyph glyph-name="zero" unicode="0" horiz-adv-x="1059" 
d="M855 1222q-5 3 12 11t37 36.5t53.5 56.5t69.5 34.5t71.5 -7.5t71.5 -80q-24 40 -57 54.5t-74 2t-67 -44t-65 -116.5q19 -29 55 -107.5t53 -218.5t6 -253t-45.5 -210.5t-80 -173t-84 -115t-92.5 -69.5t-119.5 -41t-137 1.5t-138.5 47t-122 97.5t-98 145t-61 193.5t-13 198
t18 145t44 132t45.5 93t37 52t54 62.5t55.5 50.5t54.5 30t59.5 9.5t56.5 -16t41.5 -75q-19 41 -50 53.5t-67 3t-57.5 -34.5t-45.5 -64.5t-37 -79t-24 -108.5t-14.5 -166.5t3 -181t27.5 -184t58.5 -170t87.5 -110.5t109.5 -58t114.5 0t102 64.5t87 134t49 137t17.5 115
t9.5 143t-7.5 166.5t-32.5 220l12 35q-26 -35 -40.5 -46t-33.5 25t-19 78.5t-27.5 83.5t-70.5 68t-104 31.5t-107.5 1.5t-114 -31.5t-106.5 -64.5t-58.5 -61t-46.5 -69.5t-82 -191.5q21 129 60.5 207.5t91 137t106 90t122 47t147.5 10.5t150.5 -38t149.5 -118z" />
    <glyph glyph-name="one" unicode="1" horiz-adv-x="550" 
d="M-251 1183q72 -25 131 -23.5t110.5 23t183.5 90t225 101t177 4.5q-74 -3 -105.5 -20t-40.5 -52.5t-3 -609t18.5 -600t37.5 -40.5t59 -14t56 26.5t22 46.5t-17.5 45t-36 25t-52.5 -22q28 31 56 36t49.5 -24.5t23.5 -57.5t-10.5 -51.5t-34.5 -42t-51.5 -23.5t-101 1.5
t-143 6.5t-231.5 -39t-291 -151q81 75 129.5 104.5t106 57.5t108.5 42t82 26.5t48.5 46.5t15.5 94.5t-3.5 505t-10.5 479t-31 46.5t-50 6t-65 -23t-77.5 -34t-79.5 -23.5t-68.5 -3.5t-63.5 11t-75 30h3z" />
    <glyph glyph-name="two" unicode="2" horiz-adv-x="861" 
d="M289 1067q61 -37 72 -75.5t9.5 -83t-34 -78t-86 -43t-101 15t-72.5 77t-29.5 106t9.5 115t43 104.5t61.5 74t86 55.5t116.5 32t115 1.5t113.5 -37t101.5 -71t63 -86t31 -122.5t-3 -167t-66.5 -164.5t-123 -140t-119.5 -119.5t-113.5 -115t-168.5 -196.5q184 -3 290 -7.5
t162.5 4.5t93.5 18.5t94 80t107.5 116.5t207.5 89q-111 -55 -157 -87.5t-86 -92t-71 -127.5t-58 -175q-95 24 -159.5 29t-147.5 5t-173.5 -3.5t-181 -5t-234.5 -38.5q79 56 116 88t84.5 78t76.5 81.5t63 75.5t83 101.5t103 115t101.5 130t82.5 138t40 155.5t-33.5 169
t-104.5 107.5t-153.5 31t-132 -40t-73.5 -87.5t-29 -101.5t13.5 -92.5t55 -60t87.5 -1.5t63 52.5t8 63t-32 38.5t-57 0.5q31 -10 35.5 -33t-15.5 -40t-47.5 -10.5t-40 34t-6.5 47.5t20 40t43 29t60 0z" />
    <glyph glyph-name="three" unicode="3" horiz-adv-x="860" 
d="M230 883q0 -27 -23 -53.5t-73.5 -15.5t-69 63t-12.5 113.5t41.5 124.5t92 117t155 96.5t190.5 44t144.5 -27.5t78.5 -73.5t37 -95.5t1.5 -100t-32.5 -93.5t-61.5 -78.5t-117.5 -104q98 -40 148.5 -84.5t72 -101.5t29.5 -133.5t-24.5 -165.5t-97 -166t-144.5 -110.5
t-172 -47.5t-182.5 9t-141 93.5t-57 146t23 144.5t84.5 102.5t133.5 37t124.5 -21.5t70.5 -64.5t30.5 -105.5t-21.5 -106t-72 -55.5t-96.5 -6.5t-89 49t-35.5 84.5t24.5 71t57 29.5t57 -8t33.5 -35.5t7.5 -47.5t-23 -32t-41.5 -7.5t-45.5 31.5q-3 -30 13.5 -48.5t44.5 -35.5
t55.5 -12.5t55 30.5t29 61.5t-13.5 77t-50.5 64.5t-89.5 24.5t-98.5 -17t-66 -67.5t-9 -118t52.5 -104.5t90.5 -50.5t122.5 -10.5t127.5 35t101.5 79.5t58.5 113.5t7.5 117t-34 95.5t-72 72t-118 49t-126 21.5t-180 -13.5q142 37 191 50.5t93.5 32t84.5 54t70.5 86t35 122.5
t-20 126t-53.5 81.5t-79.5 40t-127.5 -3t-132.5 -66t-81.5 -92t-30.5 -101.5t7.5 -98t52 -63q34 0 49.5 10.5t36.5 41.5z" />
    <glyph glyph-name="four" unicode="4" horiz-adv-x="978" 
d="M113 247q31 -25 40 -57t-12.5 -66t-58.5 -35.5t-72 24.5t-39.5 74t4.5 91t29 92t129 170t250 403.5t161 361t8 90.5t-46 3q28 22 80 34t125.5 24.5t147.5 17t209 -7.5q-104 -6 -153.5 -14t-75.5 -26.5t-47.5 -47.5t-29 -70.5t-7.5 -184v-566.5q156 28 253 75.5t187.5 89
t305.5 -29.5q-169 46 -227.5 20t-96.5 -50.5t-84.5 -55.5t-124.5 -69t-222 -75q3 -252 16.5 -321t38 -86t66 -12.5t112.5 35.5q-101 -55 -136.5 -64.5t-92.5 -15.5t-135 1.5t-133.5 6t-110.5 -27.5t-93.5 -66t-84.5 -107q40 83 80 126t98 72t119.5 32t83 37t18.5 381
q-212 -31 -285.5 -28t-122.5 -9.5t-87.5 -47.5t-54 -79.5t-17 -81.5t7.5 -58.5t34 -27.5t43 3t21.5 36.5t-1.5 43t-17 43.5zM607 1211q-76 -233 -111.5 -303.5t-71 -135t-77 -123t-61 -95.5t29.5 -33.5t104 1.5t175 17l9 666z" />
    <glyph glyph-name="five" unicode="5" horiz-adv-x="890" 
d="M1364 1460l52 18q283 25 143.5 11t-196.5 -49t-94 -73.5t-83 -95.5t-136.5 -126t-204.5 -115q49 31 64.5 51t8 50.5t-24.5 43t-41.5 14t-451.5 -1.5l-138 -277q40 28 98.5 43.5t136.5 1.5t130.5 -43t115 -93.5t90.5 -135t26.5 -172t-26 -180t-83 -149t-107.5 -99.5
t-112 -40t-143 -9.5t-150.5 9.5t-147.5 44.5t-135 82.5t-70.5 71t1.5 66t66 53.5t139.5 -1.5t41.5 -95t23 -119.5t185.5 -49.5t199.5 18.5t129 74t58.5 113.5t1.5 139.5t-38.5 129t-89 112t-124 80t-121 35.5t-100 1.5t-70.5 -26t-43 -57t-14 -72.5t25 -116
q-53 79 -43.5 159t43 153.5t75 161t74 135.5t38.5 86t-3 59.5t-67.5 21.5t-123.5 -24q89 67 136.5 89t155.5 5t223 -23.5t225.5 -6.5t210 14t265.5 100v3z" />
    <glyph glyph-name="six" unicode="6" horiz-adv-x="877" 
d="M1549 1538q-125 -96 -178.5 -118t-119 -42.5t-139 -31t-150 -11t-146.5 -13t-145 -36t-142 -75t-117 -106t-105 -139t-84.5 -161t-36 -176.5t-4.5 -182.5t29.5 -185.5t70 -140.5t102 -51.5t103 -4.5t79.5 39t58 78t37.5 128t23.5 149.5t0 131t-28.5 103.5t-73.5 65.5
t-101.5 20t-79.5 -20t-53 -56t-26.5 -90.5t14 -97t47 -59.5t55 -8t48 31t25 62.5t-10.5 67.5t-41 39.5t-37.5 -5t-6 -39.5t38.5 -50q-56 10 -67 35t-1.5 53t47 39t78 -22t43.5 -95.5t-23.5 -117t-85.5 -65.5t-106 8t-70.5 65.5t-22 120t31 137.5t73.5 104.5t111 62.5
t140.5 6.5t137.5 -68.5t79.5 -147t4.5 -212.5t-40.5 -204.5t-99.5 -159.5t-145 -95t-180 -7.5t-201.5 117t-118.5 237t-11 273t68.5 275t168.5 242.5t222 162.5t256 71.5t256 14t262.5 37.5t282.5 114z" />
    <glyph glyph-name="seven" unicode="7" horiz-adv-x="937" 
d="M99 588q-49 98 -64.5 170.5t-15.5 137t12.5 119.5t38.5 115t73.5 109t107.5 99.5t146 95t236 81.5q-95 -49 -135 -66t-56.5 -33.5t-12 -33.5t24.5 -24.5t50.5 -10.5t95.5 -1.5t121 10.5t122.5 6t130.5 -18.5t104 -39t101.5 -78.5t107.5 -169q-79 105 -105.5 126.5
t-75.5 47.5t-93.5 32.5t-86 0t-60 -32.5t-43 -69t-195 -582t-156.5 -565t48 -41t109 -24.5t165.5 -54t158.5 -96.5q-123 61 -184.5 81t-124.5 31t-116.5 12.5t-103 6t-112 -3t-72 49.5t19.5 112t61.5 93.5t55.5 77t50.5 109t236.5 840.5q-206 0 -262.5 1.5t-110.5 -4.5
t-95.5 -26t-75 -50.5t-52 -82.5t-24.5 -100t-6 -94t6 -89t61 -178z" />
    <glyph glyph-name="eight" unicode="8" horiz-adv-x="844" 
d="M452 1398q183 -12 211 -46t46.5 -62.5t26 -68.5t-3 -84.5t-39.5 -80t-72.5 -80t-48 -77t9.5 -63t52.5 -29t80 7.5t70.5 4.5t58 -9t63 -41.5t83 -147q-25 73 -69.5 110t-86 51t-93.5 0t-105.5 -29.5t-115 18.5t-41.5 91t41.5 90.5t55 72t40 84.5t-4.5 81.5t-37 67.5
t-61.5 46t-86 17t-109 -17t-93.5 -57t-35 -96.5t35 -119.5t110.5 -123t158 -126t132 -101.5t101.5 -89t76.5 -112t26 -109t-13.5 -101.5t-41.5 -115t-77 -93.5t-104.5 -48t-103 -20t-107 -3t-116.5 15.5t-115.5 35.5t-93.5 76.5t-38 110.5t9 115.5t38 110.5t78.5 96.5t94 60
t75 11t59.5 -17t40 -34t12.5 -40t-6 -46t-49 -54q27 28 35 57t-13.5 57t-47.5 38.5t-60 -5t-63 -50.5t-55.5 -86t-34 -121.5t37 -136.5t126 -97t147.5 -31t130.5 23.5t92 88t23 127.5t-63 122.5t-129 119.5t-150.5 123t-153.5 126t-115 144.5t-43 155t23 127.5t89 103
t158 62.5t152.5 16.5z" />
    <glyph glyph-name="nine" unicode="9" horiz-adv-x="912" 
d="M-597 140q123 15 166 12t119.5 -18.5t130.5 -35.5t117 -41.5t126 -21.5t124 12.5t135 49.5t137 101.5t116.5 148.5t81 173t37 163t17 166t-7.5 172t-49 149t-72 96.5t-80 35.5t-91 0t-79.5 -37t-60 -92t-37 -138t-7.5 -141.5t23 -138.5t69 -112t86 -49t70.5 -4.5t60 18.5
t51 50.5t32 72t0 75.5t-33.5 57t-58.5 14t-51 -24.5t-18.5 -51t15.5 -48t40 -12t29 26.5t-7.5 56q28 -21 26.5 -51.5t-18.5 -46t-43 -18.5t-52.5 21.5t-32.5 64.5t26.5 83t75.5 47.5t81 -9.5t58 -61.5t20 -107.5t-46 -129t-87.5 -95t-142.5 -24.5t-178 30.5t-112.5 81.5
t-60 144.5t-7.5 201t58.5 193.5t138 159.5t204 76.5t180 -26t138.5 -93.5t101 -169t36.5 -242.5t-44.5 -276t-135 -255t-199.5 -200t-244 -115t-196.5 -32t-143 29t-159.5 58.5t-158 52.5t-216.5 21.5z" />
    <glyph glyph-name="colon" unicode=":" horiz-adv-x="280" 
d="M88 175q-2 0 22 27t70.5 19.5t64.5 -41t26.5 -74t-14 -74.5t-84 -29.5t-102.5 36t-36.5 64.5t53.5 72zM79 913q-2 0 36 18.5t70.5 19.5t50.5 -32.5t19 -64.5t-14 -74.5t-76.5 -39t-102.5 36t-36.5 64.5t53.5 72z" />
    <glyph glyph-name="semicolon" unicode=";" horiz-adv-x="345" 
d="M127 913q-2 0 36 18.5t70.5 19.5t50.5 -32.5t19 -64.5t-14 -74.5t-76.5 -39t-102.5 36t-36.5 64.5t53.5 72zM200 218q88 4 103 -23.5t19 -62t-1 -76.5t-34.5 -72.5t-66.5 -56t-83 -39t-87.5 -7.5t-59 27t-29 42.5t-26.5 39t-65 49.5q63 -17 88 -54t43 -55.5t82 -3
t117 82.5q-44 15 -72.5 34t-40 46.5t8.5 47.5t35.5 40t68.5 39v2z" />
    <glyph glyph-name="less" unicode="&#x3c;" horiz-adv-x="1467" 
d="M1496 1295q-22 -55 -43.5 -85.5t-76.5 -71t-222 -127t-278.5 -110.5t-218.5 -54t-187 -69.5t-117 -90.5q94 -28 228.5 -84t273 -140t228.5 -134t190.5 -73t172.5 -9t94 42.5t37 126.5q11 -91 -22 -146t-176 -67t-286 32t-281 143t-295 155t-255.5 64.5t-135.5 -10
t-90 -90.5q20 83 157.5 210t286.5 183.5t323.5 95t359 108.5t237 109t94.5 90z" />
    <glyph glyph-name="equal" unicode="=" horiz-adv-x="1247" 
d="M20 587q161 -65 361.5 -76t405 -6.5t295 24.5t158.5 -4l-75 -95q-82 14 -156 12.5t-160 -9.5t-227 -8.5t-248 21t-193.5 50.5t-163.5 91h3zM101 899q101 -30 301.5 -41t405 -6.5t295 24.5t129.5 -2l-46 -97q-82 14 -156 12.5t-160 -9.5t-227 -8.5t-248 21t-193.5 50.5
t-103.5 56h3z" />
    <glyph glyph-name="greater" unicode="&#x3e;" horiz-adv-x="1552" 
d="M122 1293q42 -51 94.5 -90t237 -109t359 -108.5t323.5 -95t286.5 -183.5t157.5 -210q-53 72 -90 90.5t-135.5 10t-255.5 -64.5t-295 -155t-281 -143t-286 -32t-176 67t-22 146q15 -98 37 -126.5t94 -42.5t172.5 9t190.5 73t228.5 134t273 140t228.5 84q-37 51 -117 90.5
t-187 69.5t-218.5 54t-278.5 110.5t-222 127t-76.5 71t-43.5 85.5z" />
    <glyph glyph-name="question" unicode="?" horiz-adv-x="806" 
d="M235 1150q3 47 22 69t45.5 25t51.5 -11t34.5 -44t3 -74t-31 -88t-68.5 -62.5t-107 -15.5t-94 39t-51.5 100.5t-2 130.5t62.5 108t96 61t146 25t175.5 -15.5t138 -73.5t81.5 -113t36 -139.5t-7.5 -149t-124 -141t-166.5 -99t-89 -80t-19 -92.5t45.5 -97.5t-39.5 -166.5
q25 119 5 155.5t-48.5 80t-11 105t53.5 105.5t106.5 103.5t95.5 130t8 158.5t-59.5 142.5t-102 89t-111.5 33t-92.5 -17t-64 -51.5t-25.5 -95.5t17 -99t63 -63t95.5 32t-20.5 35.5q-28 25 -47 60zM324 -11q-51 47 -54 91t22 79.5t64.5 40t76 -52t26.5 -92t-29.5 -65
t-63.5 -17t-42 15.5z" />
    <glyph glyph-name="at" unicode="@" horiz-adv-x="1812" 
d="M2575 159q-265 137 -415.5 124.5t-256 -64t-173.5 -157t-149 -196.5t-182 -145t-188.5 -89t-304 -41.5t-369.5 55.5t-275 172t-178 252.5t-60 314t47.5 310.5t130.5 249t229.5 227.5t310 166.5t318.5 59.5t269 -2t208.5 -74.5t152.5 -151t62.5 -213t-8 -272.5t-81 -260.5
t-145 -188.5t-167.5 -120t-173.5 -64t-130 -6t-64 54t-14.5 91t39 134.5q-87 -100 -128 -153.5t-105.5 -91t-120 -47.5t-120 4.5t-89 76.5t-31 140.5t24.5 163t62.5 147t103.5 149t142.5 134t136.5 60t120 -6t68.5 -53.5t2 -91t-43.5 -128.5t-102 -179.5q50 115 75 183.5
t25 128.5t-54 68t-128.5 -37.5t-109.5 -91t-68 -109.5t-49.5 -144.5t-14.5 -148.5t29 -103.5t70.5 -35.5t80.5 23t82.5 66.5t91 97t76.5 99t85 252.5l70 240q153 29 221 33t110 -13q-70 -4 -118 -16.5t-72.5 -47.5t-45.5 -105.5t-87 -318.5t-64 -283t41.5 -55.5t87 -2
t97 57.5t97 109.5t91 155.5t66.5 188t20.5 210.5t-23 186t-80.5 155t-115.5 104t-128 33.5t-192.5 1.5t-202.5 -21t-163 -53.5t-151 -88.5t-178 -165.5t-155 -232t-66.5 -233.5t0 -256t64.5 -242t142.5 -188.5t223 -138.5t221 -59.5t198.5 -2t207 51.5t149 91t101.5 113.5
t103.5 157t109.5 157t150.5 105.5t285 33t449.5 -198.5h-9z" />
    <glyph glyph-name="A" unicode="A" horiz-adv-x="1448" 
d="M628 1176q43 81 43 132.5t-11 100t-40.5 113.5t-97 116.5t-246.5 110.5q190 -27 271 -81t119 -116t81 -154l416 -990q54 -135 100 -219t86.5 -105.5t89.5 -21.5t130 38l-54 -103q-276 11 -354.5 0t-132.5 -21.5t-116 -35t-121.5 -51.5t-195.5 -140q125 146 181.5 178
t116 59.5t97.5 46t54 43t11 70.5t-35 121.5t-100 254.5l-530 -125q-60 -146 -76 -202.5t8.5 -89t65 -35t92 11t78.5 62t21.5 94.5t-38.5 105q60 -54 70.5 -105t-16.5 -116t-64.5 -92t-175.5 -35.5t-265 -38t-238 -70t-219 -94.5t-303 -200q179 167 281.5 235t219 116.5
t178.5 70t105 56.5t135 198l379 903v5zM860 635l-189 443l-249 -583l438 135v5z" />
    <glyph glyph-name="B" unicode="B" horiz-adv-x="1297" 
d="M-465 1230q108 70 192 92t270.5 38t483.5 2.5t419 -35t181.5 -70t92 -100t35 -135.5t-22 -151.5t-89 -111t-194.5 -75.5q146 -16 205.5 -48.5t100 -84t62 -113.5t5.5 -132.5t-54 -130t-124.5 -105.5t-189.5 -56.5t-617 -5.5q-383 -16 -486 -40.5t-224.5 -86.5
t-364.5 -295q227 249 270 284t129.5 78.5t178.5 70.5t200.5 43t162.5 48.5t78 129.5t19 904q-22 124 -62.5 154t-132.5 27t-170 -8.5t-156.5 -21.5t-203.5 -65h6zM445 1238l5 -562q253 20 350 55t159.5 86.5t65 135t-27 148.5t-97.5 105.5t-151.5 51.5t-283.5 -16zM441 471
l3 -333q307 -11 402 2.5t134.5 49.5t72.5 88.5t38.5 102t-8.5 99t-99 101t-231 20.5l-312 -67v-63z" />
    <glyph glyph-name="C" unicode="C" horiz-adv-x="1276" 
d="M747 651q238 82 289.5 157.5t67.5 146t-3 135t-67.5 116t-135 84t-162.5 30t-170.5 -40.5t-156.5 -108.5t-111 -178.5t-59.5 -243t16.5 -259.5t73 -205.5t121.5 -135t170 -78.5t195 -11t181.5 62t116 84t102.5 146t182.5 413.5q-88 -292 -112 -375.5t-89.5 -181.5
t-154.5 -160t-208 -86t-243 -2.5t-210.5 73t-181.5 154t-135.5 257t-21.5 311t78.5 275.5t167.5 211t232.5 124.5t211 27t176 -40.5t127 -35t51 37.5t-40.5 156.5q125 -108 144 -175.5t27 -146t-14 -170.5t-43.5 -127t-89 -110.5t-224.5 -119.5z" />
    <glyph glyph-name="D" unicode="D" horiz-adv-x="1459" 
d="M454 98q127 -28 213 -28q232 0 385 163t153 442q0 281 -153 443t-415 124q-100 -5 -178 -56zM-557 1127q238 103 381 135.5t292 59.5t441 27t419 -38t218.5 -102.5t132.5 -140.5t76 -216.5t16 -278.5t-73 -238t-143.5 -173t-205.5 -113.5t-264.5 -46t-316.5 -2.5t-295 0
t-213.5 -24.5t-165 -83.5t-126.5 -133q48 119 126.5 176t162.5 89.5t167.5 35t124 24t57 70.5t16.5 516.5t-8 497.5t-30 46t-81.5 19t-127 3t-202.5 -27t-256.5 -70.5t-216.5 -97.5t-262 -206q151 168 357 292z" />
    <glyph glyph-name="E" unicode="E" horiz-adv-x="1446" 
d="M1046 1560q59 -5 110.5 -40.5t100.5 -92.5t75.5 -118.5t46 -167t-2.5 -214t-81 -237.5q38 167 40.5 229t-5.5 111.5t-48.5 119t-89.5 97t-95 32.5t-148 0h-471v-541q130 27 214 35t165 0t124.5 -30t118.5 -97q-81 43 -127 56.5t-113.5 19t-140.5 -2.5t-241 -127
q-5 -238 -2.5 -346t10.5 -129.5t38 -35t216.5 -16.5t240.5 8t100 29.5t81 40.5t86.5 68t176 205t140.5 316q6 -97 -80.5 -291.5t-146.5 -283.5t-119 -151.5t-89 -97.5t-54.5 -56.5t-105.5 -59.5q65 48 84 72.5t16.5 57t-16 51.5t-305.5 21.5t-446.5 -3t-216.5 -10.5
t-113.5 -16t-175.5 -76q103 87 159.5 106t116 27t105.5 18.5t73 40.5t38 149v800q-5 119 -32.5 159.5t-68 51.5t-146 19t-232.5 -13.5t-210.5 -62t-156.5 -94.5t-236 -250q152 228 225 287.5t159.5 108t205.5 70.5t341 43q865 0 911 5.5t62 27t18.5 51.5t-19 65t-64.5 57v5z
" />
    <glyph glyph-name="F" unicode="F" horiz-adv-x="1372" 
d="M-824 837q176 236 280 316.5t175 111.5t192.5 57t343 23.5t349 -0.5t333.5 4t229.5 25.5t25.5 55t-8 63t-81 74.5q87 -27 136 -66.5t94 -96.5t72.5 -133.5t35.5 -160.5t-6 -170.5t-84 -282.5q43 208 47 286.5t-23.5 167t-64.5 125.5t-104 44.5t-102.5 6t-560.5 -1.5v-550
q196 32 264.5 38t133 -4t113.5 -37.5t120 -113.5q-90 74 -137 86t-106 18t-120 -2t-131.5 -43.5t-132.5 -67.5l-1 -446q8 -55 12 -73t35.5 -26t59 0.5t55 16t94.5 27.5l-44 -114h-160.5t-198 2t-216 -8t-155 -27.5t-176.5 -84.5q110 87 174.5 112.5t149 43t124 45t49 100
t11.5 494t-17.5 482.5t-76.5 86.5t-167 29.5t-215.5 -14t-198 -61t-184.5 -117.5t-237 -239.5z" />
    <glyph glyph-name="G" unicode="G" horiz-adv-x="1435" 
d="M965 1496q145 -23 196 -66t88.5 -94t51 -108t4 -165t-84.5 -246q44 177 8 261.5t-84.5 120t-111.5 61t-147.5 45t-163 15.5t-158.5 -43t-147 -112t-110 -180.5t-55 -221.5t2 -225.5t63 -200t135.5 -157t153 -100t154.5 -37.5t190 14q110 439 104 492t-47 96t-147 66.5
t-221.5 18t-188 -35t-151.5 -68.5q67 55 143.5 96t192 60.5t229.5 19.5t216 -19.5t194 -53t178 -80.5q-86 16 -115.5 8t-53 -39.5t-55 -208t-25.5 -204t27.5 -27.5t43.5 6t74.5 6t107.5 -17.5t88.5 -55t33.5 -92.5q-16 48 -51 75t-92 41t-102 0t-92 -45t-120 -62.5
t-147.5 -45t-168.5 -17.5t-172.5 9.5t-196 60.5t-182.5 104t-133.5 172.5t-86 227.5t2 237.5t90 243t157 192t196 120t241 43.5t220 -31.5t122 -37.5t61 9.5t23 49t-93.5 90.5z" />
    <glyph glyph-name="H" unicode="H" horiz-adv-x="1486" 
d="M-753 803q134 211 285 317t286.5 143t239 58.5t223.5 31.5t271 14t233 -28q-82 4 -119.5 -1.5t-84.5 -15.5t-82.5 -43.5t-45 -94t-9.5 -129.5t8 -390l635 102v321.5t-11.5 133.5t-57 76.5t-86.5 21.5t-82 -21.5t-73 -57.5q32 51 71 76.5t86 35.5t147 16t194.5 8t149 17.5
t92 43t61 65t23.5 74.5t-12 80q28 -47 30 -86t-20 -84.5t-55 -84.5t-103.5 -62.5t-104 -45t-49.5 -70.5t-14 -94t-2 -959q28 -83 47.5 -92.5t41 -17.5t47 -10t88.5 45l-31 -114q-114 16 -175 16h-143t-182 -10t-159 -31.5t-118 -68.5q51 59 102 86.5t96 35.5t80.5 21.5
t69 43t43 74.5t9.5 524l-635 -106v-283q11 -168 25 -191.5t43.5 -35.5t53 -14t55 14t62.5 39l-35 -121q-91 11 -173 15t-194 -2t-202 -23.5t-196 -43t-169 -76.5t-102 -98q28 59 92.5 114t166.5 88t190.5 56.5t125.5 45.5t49 57t19 118v957q-11 47 -29 68.5t-65 29
t-129.5 -6t-212 -51t-225.5 -94.5t-217 -169z" />
    <glyph glyph-name="I" unicode="I" horiz-adv-x="658" 
d="M-324 1187q96 69 150.5 97.5t125 45t165.5 21t195.5 3t154.5 0t114.5 6t90.5 25.5t37.5 47t1.5 74q15 -48 12 -77t-24 -56t-42 -39t-71 -18t-84.5 -25.5t-48 -69t-12 -95t4.5 -965.5q18 -66 31.5 -79.5t39 -24t42.5 -10.5t39.5 10.5t58.5 28.5l-18 -94l-548 6
q-72 -6 -126 -15t-91.5 -27t-68.5 -42l28 36q75 45 127.5 57.5t88.5 21.5t78 13.5t66.5 24t42.5 51t18 91.5l-6 1029q-12 36 -28.5 49.5t-102.5 21t-155 -4.5t-125 -36t-161 -81z" />
    <glyph glyph-name="J" unicode="J" horiz-adv-x="827" 
d="M-24 1196q54 51 145 85t197.5 48t166.5 14t141.5 1.5t167.5 3t140 6.5t74 28t32 50.5t10.5 53.5t-28.5 66q33 -33 41 -59.5t-1.5 -66.5t-35.5 -72t-58.5 -41.5t-75.5 -14t-63 -21.5t-29 -46t-9 -67.5t-3 -829.5q0 -56 -9.5 -92.5t-32.5 -78t-60 -91t-89 -92.5
t-110.5 -72.5t-148 -37t-165 9.5t-129 55.5t-73.5 90.5t-15.5 95.5t29 82t58.5 55t75.5 18t69 -21.5t37 -58t-1 -61.5t-28 -37.5t-43.5 -18.5t-56.5 12.5t-27.5 52.5t24.5 46.5t44.5 12.5t37 -17t11 -52.5q15 28 9 55.5t-34 36.5t-57 3t-47.5 -32t-24.5 -61.5t7.5 -72.5
t50.5 -60t101.5 -35.5t138.5 -7.5t131 20t94 38.5t46 52.5t9 87l-6 1050q-21 55 -47.5 76.5t-97 21.5t-181.5 -15.5t-175.5 -37t-187.5 -107.5z" />
    <glyph glyph-name="K" unicode="K" horiz-adv-x="1335" 
d="M-472 1199q162 87 284 111t203.5 30t204.5 10.5t198.5 12t117.5 28.5t78 91q-27 -88 -54 -113.5t-63 -36t-78.5 -21t-60.5 -36t-30 -148.5l3 -416l539 476q24 33 25.5 60t-16.5 46.5t-53 18t-81.5 -10.5t-136.5 -51q90 57 142.5 69t110 18t111.5 9t102 7.5l128 12
t117.5 30t54 54.5t6 66.5t-40.5 49.5q36 -18 49.5 -48t0 -72.5t-54 -74t-87 -40.5t-86 -19.5t-95 -46.5t-551.5 -505l619 -614q82 -63 139 -84t118.5 -30t116 1.5t98 48t51 90t-6 102t-54 69.5t-74 6t-54.5 -42.5t-12 -58.5t57 -42q-54 6 -70.5 42t7.5 72t68 56t89 -4.5
t70.5 -83t12 -124.5t-60 -106.5t-108.5 -54.5t-286 -9.5t-308 -1.5t-180.5 -19.5t-179 -46.5t-155.5 -78q70 57 152.5 93t156 56t113 36.5t44 39t3 45t-40.5 70.5l-509 487q0 -514 9 -544t40.5 -45t59 -15t51.5 6t66 45l-48 -120q-506 3 -575 -5t-111 -21.5t-84 -43.5
q36 42 82.5 60.5t115.5 32t105 22.5t56 28.5t29 48t12 85.5v966q-6 54 -19.5 82.5t-50 42t-86 13.5t-170 -24t-288.5 -93z" />
    <glyph glyph-name="L" unicode="L" horiz-adv-x="1191" 
d="M-394 1163q123 90 200 114t150.5 36t150 18t156.5 6t159.5 3t155 4.5t113 19.5t54 46.5t18 68t-22.5 69.5q30 -36 33 -71t-10.5 -77t-58.5 -63t-96.5 -25.5t-89 -24t-54 -63t-16.5 -173.5l3 -863q6 -51 21 -70.5t48 -24t102.5 -6t211 6t192.5 24t85.5 54t49.5 72t21 86
t-7.5 99.5t-52.5 75t-84 25.5t-69 -22.5t-24 -54t21 -48t39 -1.5t18 52.5q6 -39 -10.5 -61.5t-36 -16.5t-39.5 42t-7.5 75t62 54t102 -3t84 -64.5t37.5 -104t-1.5 -99.5t-18 -85.5t-36 -75t-52.5 -70.5t-36 -81.5t-6 -77t30 -67.5l-42 33q-21 66 -39 133l-813 2
q-228 -9 -303.5 -36t-114.5 -63t-63 -93q15 66 43.5 99t89 65t129.5 41t111 19.5t70.5 22.5t56 39t32 57t7.5 102v954q-15 54 -44 81t-105.5 27t-150 -9t-150.5 -31.5t-200 -100.5h-3z" />
    <glyph glyph-name="M" unicode="M" horiz-adv-x="1672" 
d="M-493 1190q72 60 153 88.5t161 46.5t191.5 22.5t224 4.5t185 9t150.5 30t99 53t22.5 65t-31.5 72q42 -39 45 -78t-19.5 -74t-108 -63.5t-132.5 -43.5t-50 -36t15 -66l431 -915q460 990 464.5 1006.5t-6 31.5t-31.5 19.5t-47 0t-54.5 -18t-103.5 -57t-123 -51
t-108.5 -10.5t-219.5 51q162 -39 221 -36t105.5 18t124.5 55.5t105 60t93.5 37.5t104 16.5t75 -1.5t110 -13.5t105.5 -40.5t54 -60t21 -55.5t-4.5 -49.5t-24 -46.5t-64.5 -16.5q45 15 57 31.5t13.5 37.5t-1.5 43.5t-28.5 42t-54 18t-53 -18t-38 -57t-13.5 -133.5l3 -960
q15 -54 35 -72t48.5 -27t48 -3t43.5 22.5t51 34.5l-15 -109h-121.5h-126.5t-203.5 -1.5t-222.5 -13.5t-183 -48q87 45 178.5 65t134 27.5t80 25.5t49.5 45t13.5 67.5t-4.5 988.5l-539 -1180q-39 -60 -61.5 -84t-88.5 -63l54 51l39 51l18 88l-15 75l-487 1059
q-3 -978 -1.5 -1000.5t13.5 -48t31.5 -36t42 -19.5t45 -7.5t45 15t28.5 43.5t0 54t-42 51q39 -18 51 -46.5t6 -61.5t-27 -52.5t-36 -27t-49.5 -11t-72 -3.5t-173 -1.5t-215 -16.5t-149 -39t-168.5 -93q87 78 155 106.5t132.5 47t118.5 29t99.5 25.5t57.5 49.5t16.5 82.5
t4.5 996q-6 81 -50 102t-99.5 27t-129 0t-146 -25.5t-122 -42t-106.5 -55.5h-3z" />
    <glyph glyph-name="N" unicode="N" horiz-adv-x="1278" 
d="M-656 1157q137 77 284 106t299.5 51.5t304 27.5t286.5 -14q-95 -6 -116.5 -18t-23 -27.5t10.5 -35.5t371.5 -463t368.5 -458q-6 892 -12 916.5t-33.5 50.5t-82.5 29t-115 -18.5t-101 -55t-78 -128.5q34 101 70.5 139.5t99 61.5t125.5 27.5t136.5 4.5t119 4.5t90 12t55 35
t3 53.5t-30.5 34t-38 -4.5t-12 -55.5q-16 46 5.5 64.5t52 9t41.5 -43t-1.5 -71.5t-64.5 -53.5t-91.5 -43t-50.5 -68.5t-7.5 -626.5t3.5 -636t-14 -98t-87 -102.5q52 70 64 110t-1.5 86t-894.5 1119q0 -869 7.5 -930t32 -81t47.5 -23t53.5 0t63 27.5t53.5 46.5l-31 -129
q-458 9 -508.5 0t-111.5 -24t-111.5 -49t-111.5 -101q52 80 103.5 118t114.5 59.5t121 32t101 27.5t62.5 46t26 71.5t1.5 521t-12.5 507.5t-27.5 50.5t-42.5 31t-177 -1.5t-300 -38.5t-291.5 -82.5h3z" />
    <glyph glyph-name="O" unicode="O" horiz-adv-x="1371" 
d="M1116 1222q-6 3 16 11t48.5 36.5t70.5 56.5t91.5 34.5t94.5 -7.5t94 -80q-31 40 -75 54.5t-97.5 2t-88 -44t-85.5 -116.5q25 -29 72.5 -107.5t69.5 -218.5t7.5 -253t-60 -210.5t-105 -173t-110 -115t-121.5 -69.5t-157.5 -41t-180.5 1.5t-182 47t-160.5 97.5t-129 145
t-80.5 193.5t-17.5 198t24 145t58 132t59.5 93t49 52t71 62.5t72.5 50.5t72 30t78.5 9.5t74 -16t55 -75q-25 41 -66 53.5t-88 3t-75.5 -34.5t-60 -64.5t-48.5 -79t-31.5 -108.5t-19 -166.5t3.5 -181t36 -184t77 -170t115 -110.5t144.5 -58t151 0t134 64.5t114.5 134
t64.5 137t22.5 115t12.5 143t-9.5 166.5t-43 220l16 35q-34 -35 -53 -46t-44.5 25t-25.5 78.5t-36 83.5t-92.5 68t-137 31.5t-141.5 1.5t-149.5 -31.5t-140 -64.5t-77 -61t-61.5 -69.5t-108 -191.5q28 129 80 207.5t119.5 137t139.5 90t160.5 47t194 10.5t198 -38
t196.5 -118z" />
    <glyph glyph-name="P" unicode="P" horiz-adv-x="1091" 
d="M429 800q68 -67 100 -87t109 -35q128 -6 170.5 74.5t42.5 208.5q0 88 -36 163.5t-102 113t-150 37.5q-51 0 -131 -19zM-445 1205q225 81 347 108t248.5 37.5t332.5 4.5t315.5 -37.5t173 -87t93.5 -135.5t27 -152t-24 -123t-85.5 -123.5t-143 -99.5t-141.5 -13.5
t-268 97.5v-496q9 -72 33 -100.5t60.5 -39t84.5 19.5t81 48l-42 -130q-220 12 -298 15.5t-161 0t-149 -18.5t-129 -45t-157 -87q91 72 152.5 105t133.5 56t125 45.5t65 61.5t10.5 571.5t-15 574.5t-60.5 51t-159.5 -7.5t-210.5 -40.5t-242 -63z" />
    <glyph glyph-name="Q" unicode="Q" horiz-adv-x="1330" 
d="M525 673q-62 -66 -84.5 -122t-18 -116t29 -113t82.5 -97.5t149 -60t171 6.5t126.5 73.5t82 133.5t49 199.5t0 233.5t-49 209t-86.5 157.5t-129 96t-197.5 29t-210.5 -67.5t-147 -175.5t-65 -219.5t-9 -200t33.5 -217.5t77.5 -191.5t118 -116t165 -59.5t195.5 -6.5t162 22
t95.5 -17.5t33.5 -80t-35.5 -89t-51 -84.5t-2.5 -78t86.5 -55.5t124.5 -11t97.5 26.5t102 73.5t102.5 102.5t109 71t142 26.5t151 -9t231.5 -113.5q-173 76 -246.5 87t-142.5 0t-129 -35.5t-104.5 -84.5t-93 -106.5t-115.5 -71t-144.5 -29t-135.5 11t-109 42t-84.5 53.5
t-82 31.5t-137.5 -40.5q84 62 139.5 69t82.5 7t49 11t24 37.5t4.5 62t-15.5 62.5t-42.5 38t-88.5 13t-142 0t-207 40t-217.5 133.5t-133 207t-58 279.5t33 302t146.5 249t244.5 146.5t275.5 24.5t240 -69t189 -155.5t122 -244t24.5 -300t-88.5 -262.5t-146.5 -162
t-160 -68.5t-162.5 -15.5t-142.5 33t-109 75.5t-71 102.5t-31 128.5t22.5 122t111 115.5z" />
    <glyph glyph-name="R" unicode="R" horiz-adv-x="1133" 
d="M413 798q11 -8 49.5 -20t105.5 -30q91 -35 189.5 49t98.5 214q0 127 -79.5 206.5t-210.5 79.5q-58 0 -157 -19zM-679 1118q222 106 320 139.5t260 60t373 33.5t358 2.5t233.5 -38t124 -84.5t69 -115.5t27 -133.5t-42.5 -133.5t-95.5 -100t-111 -57.5t-106.5 -22
q275 -369 324 -447t100.5 -122.5t142.5 -84t159.5 -53t173 -31.5t175.5 -18t178 4.5t235.5 15.5t208.5 38t147 67t164 155q-97 -133 -164 -177.5t-144.5 -71t-213 -42t-235.5 -20t-180 -4.5t-231.5 15.5t-249 40t-177.5 40t-157.5 20t-113.5 -15.5t-67 -55.5t-17.5 -73.5
t58 -49t79.5 51q-40 -62 -88.5 -62t-68.5 46.5t8.5 100t66.5 75.5t73.5 31t40 24.5t-404.5 597.5l-133 27l4 -542q18 -62 58 -86.5t75.5 -13.5t93.5 51l-27 -111q-400 13 -522 2t-217.5 -46.5t-162.5 -84.5q62 62 120 95.5t122.5 49t124.5 29t97.5 42t46.5 135.5l-4 1000
q-27 62 -96 80t-229 -4.5t-260 -53.5t-317 -115h-5z" />
    <glyph glyph-name="S" unicode="S" horiz-adv-x="1016" 
d="M-64 775q18 -166 34 -248t42.5 -143.5t69.5 -118t101 -100.5t127.5 -70.5t146 -39.5t133 -6.5t118 28.5t91.5 78.5t31.5 116.5t-38 119.5t-266 196.5t-316 204.5t-111.5 137t-6 135.5t45.5 121t89.5 99t126 71t152.5 28.5t135.5 -14.5t83.5 -31.5t55 -17t30 12.5t0 37.5
t-16 55t-5 60t48.5 94.5q-41 -60 -34.5 -116.5t68 -124t78.5 -132t25 -132.5t-3 -124.5t-41 -86.5t-64.5 -41t-69 -4.5t-67.5 33t-41 66t1.5 68t69.5 65.5q-57 -41 -58.5 -100.5t56.5 -86.5t96 -9.5t47.5 64.5t-1.5 108.5t-57 126t-117 104t-155.5 44t-150.5 -17.5
t-110 -53.5t-53.5 -82t19 -100.5t100.5 -113t213.5 -138.5t225 -119.5t127.5 -97.5t61.5 -122.5t-9.5 -179.5t-97.5 -175t-160.5 -94t-181 -28t-155.5 22t-108.5 37.5t-63 17t-23.5 -26.5t23.5 -72.5t78.5 -69.5t126.5 -48.5q-79 10 -134 30t-137 102t-121 192t-63 214
t-46 396h4z" />
    <glyph glyph-name="T" unicode="T" horiz-adv-x="1328" 
d="M1083 1515q45 3 79.5 -12t52.5 -39.5t30 -59t20 -82.5t6 -90t-26 -111.5t-103.5 -170t-139.5 -141t-95 -83t-53 -95t-24 -135t13.5 -135.5t60.5 -77t96.5 -30t85.5 15t55.5 49.5t30 59t4.5 62t-7.5 54t-34.5 45t-66 22.5q48 6 67.5 -6t34.5 -31.5t21 -55.5t4.5 -66
t-18 -63.5t-49.5 -62t-66 -39t-64.5 -9t-65 9t-74 37.5t-55.5 77t-18 93.5t1.5 97.5t37.5 109.5t68 92t54.5 50t69 51t67.5 61.5t45 66t30 67.5t4.5 62t-12 77t-37.5 76.5t-57 43.5t-355 -25.5v-1140q15 -36 31.5 -49.5t40.5 -25.5t48 -12t47 4.5t47 22.5t60 36l-27 -133
q-57 6 -120.5 13.5t-114.5 6t-228.5 -9t-283 -30t-264.5 -106.5l141 81q115 51 146.5 60.5t93 21.5t102 25.5t64.5 49.5t28.5 78t4.5 1107q-360 -39 -396 -52.5t-65 -30t-71 -52.5t-85.5 -81.5t-94.5 -108.5t-167 -160.5t-323 -140.5q183 67 234 103t99.5 76.5t83 84
t85.5 111.5t91.5 143t182.5 274q66 -43 124.5 -68.5t213.5 -15t267.5 13.5t246.5 12t179 16.5t54 25.5t3 38t-24 30.5t-72 22.5z" />
    <glyph glyph-name="U" unicode="U" horiz-adv-x="1285" 
d="M-467 1129q102 89 200.5 123t181.5 50.5t195.5 20t211 8t175.5 13.5t131 37t87 99q-9 -44 -32 -71.5t-61.5 -52t-103 -37t-115.5 -41.5t-68 -80t-20 -114t0 -208t12.5 -360.5t64.5 -308t146 -123t165 -30.5t163.5 27.5t141.5 84.5t80 165t21.5 263.5t-9.5 334
t-10.5 252.5t-30.5 101.5t-65 37t-120 0.5t-168 -105q68 92 119 115t112.5 35.5t166 8t184.5 -4.5t145 20t71 50.5t0 55.5t-29.5 32.5t-53.5 -7.5q27 24 48.5 24t35.5 -7.5t20 -29t9.5 -52.5t-9 -55.5t-34 -40t-52.5 -24.5t-68 -15.5t-80 -15.5t-70.5 -47.5t-34 -108
t-8 -231t0 -268t-1.5 -178.5t-15 -157t-52 -149.5t-99 -106t-143.5 -66t-180 -27.5t-174 9t-161.5 49t-129 111t-69.5 188t-22 237t1.5 277t-1.5 249.5t-12 132.5t-58.5 52.5t-115.5 9t-147.5 -28t-131 -44.5t-137 -85z" />
    <glyph glyph-name="V" unicode="V" horiz-adv-x="1268" 
d="M-676 1122q136 88 256 126t260 62t262 24t256 -2t204 30t118 72t76 116q-24 -72 -42 -102t-60 -64t-82 -48t-86 -30t-92 -24t-60 -36t-2 -104l372 -864l364 876q16 56 14 94t-14 54t-48 24t-74 0t-68 -32t-40 -56t-18 -64t-8 -62t14 -72t62 -82q-64 36 -82 72t-18 84
t16 112t50 94t76 50t100 24t120 0t122 -2t96 16t76 30t92 88q-44 -80 -72 -102t-76 -50t-90 -48t-92 -90t-72 -126t-248 -616t-264 -642t-194 -190q116 112 138 148t36 80t16 84t-34 128t-256 598t-252 544t-92 40t-148 -2t-170 -26t-148 -42t-190 -96z" />
    <glyph glyph-name="W" unicode="W" horiz-adv-x="1680" 
d="M-572 1130q132 96 210 122t166 38t190 14t210 8t192 20t106 56t18 80t-36 62q36 -20 44 -38t6 -52t-12 -58t-26 -42t-44 -28t-64 -16t-62 -16t-36 -34t-10 -48t300 -892l236 656q-72 220 -94 252t-40 40t-58 10t-58 -8t-36 -26t-30 -80q-4 68 8 92t34 38t58 24t68 16
t78 6t182 44q-4 -68 -4 -124t312 -940q300 872 304 902t-2 60t-22 46t-42 20t-54 0t-48 -18t-38 -34t-54 -46t-76 -46t-78 -26t-158 -18q116 28 148 36t64 22t54 36t54 44t58 54t56 58t66 40t84 12t70 -12t40 -34t28 -54t10 -60t-10 -60t-26 -64t-38 -68t-130 -262
l-288 -852q-32 -96 -48 -152t-76 -108t-144 -108q84 76 114 106t50 76t34 104t10 102t-24 92l-268 756l-300 -860q-32 -80 -56 -112t-58 -56t-86 -40q72 52 92 72t28 48t8 70t-6 80t-382 1094q-28 52 -58 62t-62 22t-82 18t-84 6t-68 -4t-78 -10t-92 -30t-140 -76z" />
    <glyph glyph-name="X" unicode="X" horiz-adv-x="1448" 
d="M-664 1114q188 104 296 136t232 52t220 24t194 0t158 10t122 36t70 54t6 68t-22 56t-80 36q60 -4 80 -14t32 -28t14 -48t-6 -60t-28 -58t-46 -40t-70 -24t-68 -42t-14 -58t24 -66t210 -322l288 356q20 64 12 88t-28 38t-50 16t-56 -2t-54 -18t-42 -36t-38 -74l16 68
q32 52 48 64t42 20t78 10t142 0t138 6t102 16t112 34t104 38t76 8t54 -12t60 -32q-44 12 -70 18t-56 2t-64 -16t-76 -26t-82 -32t-92 -42t-88 -56t-88 -94t-328 -422l396 -592q64 -52 88 -66t56 -16t90 18t98 40l-36 -136q-424 8 -506 6t-136 -18t-128 -48t-114 -68
t-100 -92q96 116 138 152t92 56l90 36l70 28t52 40t20 58t-42 74l-256 388l-312 -412q-40 -72 -28 -98t44 -32t50 0t28 22t10 38t-24 62q28 -20 34 -36t6 -42t-4 -50t-22 -32t-88 -18t-146 -6t-176 -6t-206 -54t-140 -64t-86 -66t-104 -94q92 104 132 142t88 66t104 60
t106 48t110 36t108 46t94 74t378 476l-360 524q-48 40 -84 52t-84 20t-130 6t-158 -18t-142 -36t-254 -100z" />
    <glyph glyph-name="Y" unicode="Y" horiz-adv-x="1260" 
d="M-505 1184q75 51 167 81t198.5 42t180.5 19.5t168.5 13.5t174 6t141.5 -1.5t114.5 -51t52.5 -91.5t-22.5 -90.5t-103.5 -57.5q57 30 76.5 56t24 59t-16.5 64.5t-52.5 48t-86 22.5t-78.5 -3t-43.5 -27t-18 -43.5t13.5 -58.5t331 -509q301 485 316 527t3 78t-39 48
t-67.5 10.5t-74 -16.5t-81.5 -48q76 57 109 72t69 24t82.5 10.5t78 3t105.5 0t110 4.5t82.5 27t100.5 94q-27 -55 -45 -80.5t-45 -46.5t-64.5 -31.5t-76.5 -33t-77 -54t-69.5 -76.5t-383.5 -599l9 -433q18 -54 33 -64.5t42.5 -21t51.5 -13.5t46.5 -6t54 12t64.5 48l-24 -106
q-367 -3 -458.5 -12t-188 -27t-158 -49.5t-155.5 -103.5q82 75 133 108t85.5 52.5t78 33.5t95 32t68 42t30 73.5t7.5 422.5l-406 614q-48 63 -83 84t-77 25.5t-103.5 0t-134 -18t-141.5 -36t-123 -49.5z" />
    <glyph glyph-name="Z" unicode="Z" horiz-adv-x="1213" 
d="M153 609q-66 75 -82.5 102.5t-34.5 114.5t-7.5 163.5t25.5 158t52.5 167t99.5 152t176 90.5q-87 -42 -115.5 -63t-37.5 -42.5t-6 -39.5t19.5 -33t55.5 -19.5t118.5 -4.5t180.5 -1.5t205 -4.5t197 -12t154.5 -36t110 -60t96.5 -114q-57 66 -92 85.5t-78.5 22.5
t-67.5 -10.5t-58.5 -43.5t-780.5 -1101q589 3 652.5 12t92 34.5t64.5 70.5t66 93t80 99.5t135.5 90.5t194 45t204.5 -18q-93 3 -173 -1.5t-141.5 -24t-121.5 -71t-101 -122t-50 -103.5t-87 -283q6 87 -31.5 91.5t-1078.5 8.5l909 1263q-160 12 -256 16.5t-171.5 3
t-132.5 -12t-108.5 -46.5t-83 -76.5t-55.5 -98t-28.5 -105.5t0 -91.5t13.5 -85.5t18 -69.5t60 -87.5v-3z" />
    <glyph glyph-name="bracketleft" unicode="[" horiz-adv-x="561" 
d="M573 1494q-187 20 -299 -12q32 -581 22 -835.5t-22 -803.5q203 8 338 68l-35 -172q-191 44 -328.5 28t-272.5 44q119 -28 131 -10t24 817.5t-24 914.5l88 40l409 44l-23 -115z" />
    <glyph glyph-name="backslash" unicode="\" horiz-adv-x="562" 
d="M490 -84q8 230 -69 484.5t-175 507t-164 356t-67 198.5l152 -50q20 -108 55.5 -199.5t84 -195t113 -278.5t86.5 -318t25 -263.5t-39 -244.5z" />
    <glyph glyph-name="bracketright" unicode="]" horiz-adv-x="561" 
d="M7 1527l-23 115l409 -44l88 -40q-36 -115 -24 -914.5t24 -817.5t131 10q-135 -60 -272.5 -44t-328.5 -28l-35 172q135 -60 338 -68q-12 549 -22 803.5t22 835.5q-112 32 -299 12z" />
    <glyph glyph-name="asciicircum" unicode="^" horiz-adv-x="899" 
d="M15 721q116 64 168 136.5t110 211t121.5 228t171.5 162.5q-57 -82 -56 -132t33.5 -118t118.5 -141t133 -169.5t56.5 -168t-16.5 -149.5q2 72 -7.5 115.5t-31 94.5t-47 99t-55 74t-74 49t-93 76.5t-78.5 153.5q-60 -59 -94.5 -142.5t-53 -133t-52.5 -118.5t-122 -155
l-134 27h2z" />
    <glyph glyph-name="underscore" unicode="_" horiz-adv-x="1047" 
d="M-6 -280q137 -63 307 -74t343.5 -6.5t250.5 24t134 -4.5l-63 -92q-70 14 -132.5 12.5t-135.5 -9.5t-193 -8.5t-210.5 20.5t-164 49.5t-138.5 88.5h2z" />
    <glyph glyph-name="grave" unicode="`" horiz-adv-x="516" 
d="M25 1330q-7 28 3.5 43t40.5 15t75 -8t68 -41.5t51 -125.5t9 -131t-98 -44q46 14 52 31t0 59.5t-49.5 71t-93 68t-59.5 63.5z" />
    <glyph glyph-name="a" unicode="a" horiz-adv-x="745" 
d="M1223 259q-77 -6 -148.5 -22t-112 -36.5t-75.5 -49t-71.5 -60.5t-69.5 -53.5t-64 -36.5t-66 -21.5t-58.5 20.5t-27.5 110q-50 19 -77.5 0t-53 -45t-60 -43t-75 -25.5t-104.5 11t-98 61t-44 93.5t0 100.5t35.5 85.5t62 73.5t81 55.5t99 30t101.5 5.5t70.5 -19.5t33 -40.5
t7.5 -53.5t-19 -47t-46 -20t-44 15t-15 49q15 -34 34.5 -41.5t37.5 0t23.5 35t-3 47t-36.5 32t-73 10.5t-75.5 -18t-57.5 -39.5t-43 -57.5t-14 -93t25.5 -96t54.5 -53t63 -16t58.5 19t51 28.5t35.5 15t67 9.5q2 493 -2.5 538t-22.5 83.5t-67 67t-81 29.5t-68.5 -16
t-45 -40.5t-12.5 -48t2 -39.5t21 -22.5t43 7.5q-17 0 -29 8.5t-9.5 27t17.5 30t37 6.5t33 -26.5t11 -47t-8.5 -41.5t-31 -33.5t-53.5 -22.5t-60 -1t-53.5 27.5t-35 53.5t-10.5 56.5t7.5 56.5t29 55.5t54.5 43t62.5 23.5t60.5 7t77 -4t90 -18t82 -37.5t67 -62t39.5 -68
t14 -71.5t1.5 -121t1 -238t16 -186.5t45 -32t59.5 10.5t57.5 37.5t61 40.5t87.5 30t96 17t109.5 0z" />
    <glyph glyph-name="b" unicode="b" horiz-adv-x="933" 
d="M293 694v-548q51 -50 105.5 -75.5t111.5 -25.5q91 0 169.5 100t78.5 291q0 176 -78.5 270.5t-178.5 94.5q-53 0 -106 -27q-40 -20 -102 -80zM-1124 1020q452 -34 633 8.5t339 119t291 167t274 135.5q-90 -68 -112.5 -107.5t-25.5 -138.5t8 -466q181 175 266 203
t172.5 -20t124 -141t62 -226t-8 -254.5t-130 -206.5t-189.5 -118.5t-288 -98.5t-472 -65q237 45 330.5 76t183.5 105q-119 90 -271 67l56 34l6 102v899l-17 73l-62 12l-232 -96l-209 -68l-226 -46h-175z" />
    <glyph glyph-name="c" unicode="c" horiz-adv-x="853" 
d="M-412 1111q125 -91 238 -116.5t243 -48t234.5 -16.5t158 6t147 -8.5t138.5 -42.5t73.5 -107.5t-11 -138.5t-121.5 -73.5t-130 19.5t-28.5 84.5t62 51t59.5 -28t6 -42.5t-51 -31q45 -28 56.5 -22.5t45.5 14t48 51t-3 87.5t-87.5 76t-138.5 37t-133 -22.5t-110.5 -104.5
t-51 -169.5t20 -195t82 -167t152.5 -76.5t167 17t96 79t73.5 133t153 164t279.5 127q-147 -73 -243 -152.5t-147 -169.5t-82 -155t-90.5 -107.5t-167 -62.5t-229 0t-203.5 -2.5t-158 -71t-139 -121.5q91 119 159 161t147 67.5t84.5 51t-25.5 45t-73.5 99t-39.5 209.5
t31 217.5t73.5 135.5t118.5 77q-169 34 -268 56.5t-186.5 45t-127 48t-102.5 87.5v6z" />
    <glyph glyph-name="d" unicode="d" horiz-adv-x="882" 
d="M678 173v472q-6 68 -36 124t-79.5 84.5t-96.5 28.5q-88 0 -157 -79q-91 -104 -91 -304q0 -202 88 -309.5t196 -107.5q91 0 176 91zM-191 1246q96 -11 243 -13.5t302.5 25.5t279.5 79t356 170q-124 -108 -135.5 -176t-17 -599t22.5 -570.5t110 -25.5t178.5 73.5t246 87.5
t336.5 5q-198 -5 -336.5 -36t-249 -99t-212 -121.5t-316.5 -99.5q45 57 62 153q-124 -96 -194.5 -116t-158.5 -3t-144.5 76.5t-101.5 150t-45 226t45 229t101.5 161t150 96t175.5 20t184 -93.5l-12 181l-5 220q-51 34 -110.5 20t-172.5 -36.5t-198 -25.5t-167 0t-149.5 20
t-67.5 22z" />
    <glyph glyph-name="e" unicode="e" horiz-adv-x="828" 
d="M-600 330q252 132 370 168t286 64q24 68 34 116t60 116t150 110t212 32t166 -46t88 -112t46 -196l-632 -76q0 -120 22 -186t64 -110t108 -66t154 -10t130 40t64 62t32 72t50 50t86 16t82 -6t108 -82q-84 56 -134 60t-90 -18t-74 -92t-58 -142t-52 -144t-70 -132
t-100 -106t-152 -76t-234 -50q120 32 232 82t166 122t74 112t-2 64t-56 12t-142 6t-166 58t-104 140t-66 312q-156 -12 -270 -34t-382 -130zM176 594l448 72q-4 48 -28 86t-104 54t-146 -10t-92 -56t-74 -142z" />
    <glyph glyph-name="f" unicode="f" horiz-adv-x="577" 
d="M-443 1010q120 37 216 83t179.5 104t181.5 112t179.5 85.5t192 37.5t195.5 -31.5t99 -108.5t3 -132.5t-52 -102.5t-103.5 -42.5t-97.5 33t-39.5 89.5t25.5 83.5t66 22t48.5 -30t9.5 -48.5t-14 -39.5t-55 -17.5q19 -34 39.5 -39t47 9.5t41 50.5t16 86.5t-28.5 86.5t-71 44
t-77.5 9.5t-80.5 -8t-75.5 -23.5t-48.5 -33t-37.5 -41t-43 -103.5t-9.5 -233.5q170 3 262 44l-48 -135q-113 22 -220 22l9 -678q29 -91 49.5 -102t48.5 -19t63 -6.5t76 16t82 45.5t44 31q-63 -72 -94.5 -83t-57 -28t-63 -26.5t-97.5 -14.5t-120 4.5t-99.5 20.5t-85 22
t-96 14.5t-107 -3t-99 -27t-79 -58.5t-58.5 -107q13 79 47.5 120t75.5 66t99.5 34.5t123 11t94.5 6.5t53.5 30t32.5 97v649q-85 0 -168.5 -22t-138.5 -55t-125 -80q70 66 126.5 100.5t127.5 61.5t178 36q7 174 16.5 215t26.5 85t17 63q-107 -38 -280 -139
q-199 -88 -262 -100.5t-60 -12.5z" />
    <glyph glyph-name="g" unicode="g" horiz-adv-x="839" 
d="M514 829q-51 66 -131 66q-74 0 -124 -59t-50 -181q0 -158 68 -245q52 -66 132 -66q76 0 125 57t49 179q0 159 -69 249zM1384 1083q-34 -67 -77 -105.5t-113.5 -66.5t-179.5 -48t-180 -26t-89 -18t-13.5 -47.5t13.5 -71t10.5 -75.5t-9 -87.5t-38.5 -90.5t-87.5 -84.5
t-135 -53.5t-167.5 -6q-123 -65 -140 -79t-27.5 -35.5t9.5 -38t87.5 -21.5t156.5 -5t172 3.5t147.5 -16.5t103 -71t40 -103t-11 -96.5t-43 -84.5t-66 -68t-94 -58.5t-141.5 -44.5t-175 -12.5t-159.5 25t-120 46.5t-107.5 18t-96.5 -18.5t-123 -18t-130.5 0t-83 29
t-41.5 36.5t-69.5 194q53 -185 134 -217t190.5 -13.5t170.5 96.5t99.5 124.5t60 57t60 15t72.5 4.5t138 13q-52 -22 -102.5 -25t-77 -13.5t-40 -34t-3 -71t83 -90.5t167.5 -53.5t201 14t169 64.5t70.5 89t-15.5 83t-124 49t-232 15t-212 9.5t-121 18.5t-68 30.5t-41.5 64.5
t20 67.5t84.5 43t171 92.5q-44 15 -80.5 36.5t-69 57t-51 91t-17 118.5t28 115t74 101t124.5 78.5t159.5 28t133.5 -27.5t94 -34t98.5 -9.5t129 6t195 29t187.5 63t118 112.5z" />
    <glyph glyph-name="h" unicode="h" horiz-adv-x="871" 
d="M-621 1197q287 22 397.5 49t210 54t146.5 68t146.5 67.5t151.5 26.5t96 -19q-88 -3 -140 -11t-74 -28.5t-28.5 -71t-3.5 -583.5q133 139 207 180t153 34.5t107.5 -52t50.5 -104t23.5 -197t-1.5 -246t-1.5 -161t15.5 -90t60 -52t135.5 27t281.5 30.5q-242 -32 -269 -62
t-112 -42.5t-187.5 -1.5t-126 9.5t-80.5 -19t-92 -99.5q29 79 63.5 109t69 41t53.5 28t24 74t-1 533q-29 92 -62 114t-72.5 23.5t-77.5 -12.5t-61.5 -34.5t-102.5 -90.5l3 -564q13 -48 76 -76l95 13q47 34 69 50l-88 -158q-51 25 -150.5 33t-239.5 2t-254 -73
q85 67 135.5 87.5t95 39.5t71 52t26.5 149v937q-9 51 -29.5 68.5t-80.5 14t-170.5 -30t-189 -33t-271.5 -3.5h3z" />
    <glyph glyph-name="i" unicode="i" horiz-adv-x="383" 
d="M-396 762q183 -3 272.5 17.5t176.5 72.5t161 78.5t125 33.5q-38 -35 -49 -71t-11 -405.5t15.5 -397.5t45.5 -37.5t80.5 -11.5t151.5 55q-85 -66 -134 -85t-180 -12.5t-203.5 8t-208 -20.5t-205.5 -35q124 35 220 55.5t140 25t66 22t35 50.5t11.5 339t-13 328t-38 28.5
t-66 -9.5t-88.5 -23.5t-94.5 -9t-209.5 4.5zM162 1415q101 -16 115 -44.5t6.5 -68t-36 -58t-88.5 -11t-137.5 -28.5t-121.5 -102q70 110 112.5 132t63 55t28.5 71t58 54z" />
    <glyph glyph-name="j" unicode="j" horiz-adv-x="442" 
d="M273 1415q101 -16 115 -44.5t6.5 -68t-36 -58t-88.5 -11t-137.5 -28.5t-121.5 -102q70 110 112.5 132t63 55t28.5 71t58 54zM-297 764q136 -7 201 -3.5t120 26t126.5 60t117 57t87.5 35.5t102 24t109 8q-127 -29 -149.5 -51.5t-27.5 -71t-5 -160.5t11.5 -488.5
t-22.5 -433t-160.5 -108.5t-282.5 -60t-222.5 34t-105 111.5t-17.5 110.5t58 60.5t102 -2t78 -66.5t1.5 -71t-35.5 -32.5t-42 4.5t-23 42t47 47q-16 36 -43.5 42.5t-47 -3.5t3 -66.5t63 -90.5t75 -55t71.5 -21t95.5 21t115 53.5t91 81t34.5 178t-5 457.5t-31 350.5t-47 16
t-55 -18t-66.5 -24.5t-71.5 -13t-253 20h3z" />
    <glyph glyph-name="k" unicode="k" horiz-adv-x="1025" 
d="M-396 1191q145 16 220.5 33t154.5 50.5t123 58.5t94.5 44t90 28.5t115.5 9.5q-48 -35 -57.5 -68t-5.5 -828q331 293 331 318.5t-16 41t-39.5 11t-55 -18.5t-82.5 -62q73 79 104.5 98t56.5 28.5t55 20.5t79 12.5t93.5 6.5t101 -3t127.5 -24t175 -69q-113 34 -144.5 39
t-69.5 3.5t-82.5 -12.5t-82 -30t-74 -38t-61.5 -43t-142 -132.5t-145 -133.5q347 -382 400.5 -417t124.5 -52t163 36l-60 -123q-85 19 -145 20.5t-164.5 3.5t-164 -7.5t-167.5 -63.5q114 73 159.5 87t52 37.5t-1.5 45.5t-330 385q0 -284 3.5 -337.5t19 -77t42.5 -30
t131 44.5q-60 -57 -99.5 -71.5t-77.5 -17.5t-88 3.5t-119.5 1.5t-104.5 -31.5t-91.5 -53.5t-115 -35t-118.5 19t-99.5 76t-61.5 99q73 -91 95 -108.5t66 -38t96 -17.5t87 25t65 47.5t53.5 46t48.5 31.5t49 22t39.5 49t15.5 561.5t-6 544t-23.5 27t-63 -6t-91.5 -25.5
t-109 -20.5t-118.5 -12.5t-152.5 -11z" />
    <glyph glyph-name="l" unicode="l" horiz-adv-x="479" 
d="M-555 1175q284 38 358 58.5t153 53.5t180 66.5t164 57t176 10.5q-123 -19 -156 -36t-39 -49t-4.5 -632.5t22 -621t42.5 -24t45.5 6t47.5 27t58 36.5l-50 -152q-66 16 -134 21t-126.5 9.5t-151.5 -5t-154.5 -41t-184.5 -135.5q132 132 176.5 157.5t90 41t91.5 30t55.5 90
t9.5 585t-16 535t-44.5 27t-101 -27t-146.5 -44t-355 -44.5h-6z" />
    <glyph glyph-name="m" unicode="m" horiz-adv-x="1655" 
d="M-351 759q133 15 219.5 28t141.5 43t115 53.5t117 53.5t110.5 38t142.5 -2q-108 -38 -119 -68t-27 -99l-3 -57q51 29 87 65t69.5 74t69.5 58.5t80 20.5t77.5 -6.5t65 -34.5t48.5 -58t31.5 -50.5t17.5 -68.5q95 95 131 120t105.5 52t129.5 20.5t88.5 -30t45.5 -48.5
t34.5 -71t22.5 -98t6.5 -137t-3.5 -146.5t-1.5 -131t11 -118.5t23.5 -66.5t46 -25t58.5 -1.5t81.5 44l-34 -136q-177 16 -221 17.5t-147 -15.5t-298 -131q95 63 143.5 94.5t94.5 60t65 66.5t23.5 123t3 208t-6 214.5t-22 140.5t-62 68t-96.5 9.5t-91 -33.5t-118 -102
q0 -489 1.5 -538t25 -71t42.5 -25.5t57 0t49 24t11 48.5t-25 60q37 -28 42 -58t-4.5 -55.5t-19 -44.5t-41 -26.5t-90 -7.5t-135.5 4.5t-131 -11.5t-93.5 -42.5t-86.5 -70.5q57 72 88.5 96t66 46t60 64.5t32 101t1.5 135.5t-3.5 168.5t-4.5 159.5t-15.5 106t-30 58.5t-52 30
t-66.5 3t-58.5 -25.5t-58.5 -44t-117 -92q-9 -344 -7.5 -403.5t12.5 -118t30 -82t50.5 -33t53.5 -8t39.5 20.5t26.5 69q4 -44 -2.5 -64.5t-20.5 -39.5t-39.5 -25.5t-71 -6.5t-85 3.5t-87 5t-95 -8t-151.5 -44t-176.5 -80.5t-160.5 -100q101 89 164 126.5t126 67.5t113.5 54
t79 69.5t33 121.5t4.5 169t-3 216t-12.5 162.5t-45.5 49t-77 -8t-91.5 -27t-115.5 -14t-197 -1.5h6z" />
    <glyph glyph-name="n" unicode="n" horiz-adv-x="981" 
d="M-321 771q177 3 240 27t148 58.5t143.5 61.5t184.5 43q-82 -41 -91.5 -68t-9.5 -150q114 82 140.5 113.5t50.5 58.5t72.5 39.5t97.5 0t104.5 -63t65 -151.5t7.5 -166t-5 -134t0.5 -126t0 -109t34.5 -131q31 -31 55 -34.5t52.5 -5t50.5 16t63 55.5l-38 -123
q-57 6 -148.5 3t-189 -17.5t-334.5 -86.5l161 63q85 38 107 66t34.5 67.5t0.5 610.5q-10 107 -48 129.5t-67.5 16t-58 -12.5t-69.5 -30t-142 -106v-539q6 -51 15.5 -70t35 -31.5t42.5 -9.5t47 19t36.5 46t0 57t-30 36t-58.5 13q51 12 74.5 1t31.5 -39.5t8 -61.5t-9.5 -56.5
t-35 -36t-52 -17.5t-129 0t-164 -1.5t-248 -55.5t-384.5 -153q139 92 214.5 121.5t157.5 56.5t164 57t104 61.5t25.5 87t1.5 205t-2 258.5t-15.5 140.5t-50.5 33t-57 -4.5t-86.5 -23.5t-115 -17.5t-135.5 9h3z" />
    <glyph glyph-name="o" unicode="o" horiz-adv-x="1037" 
d="M837 910q-5 2 11.5 8t36.5 27.5t53 42.5t69 26t71.5 -5.5t70.5 -60.5q-23 30 -56.5 41t-73.5 1.5t-66 -33t-64 -87.5q18 -22 54 -81t52.5 -164t5.5 -190t-45 -158.5t-79 -130t-83 -86.5t-91.5 -52.5t-118.5 -31t-135.5 1t-137 35.5t-121 73.5t-97 109t-60.5 145.5
t-13 149t18 109t43.5 99.5t45 70t37 39t53.5 47t54.5 38t54 22.5t59 7t55.5 -12t42 -56q-19 30 -50 39.5t-66.5 2.5t-57 -26t-45 -48.5t-36.5 -59t-23.5 -81.5t-14 -125.5t2.5 -136t27 -138.5t58 -128t86.5 -83t108.5 -43.5t113.5 0t101 48.5t86.5 101t48.5 103t16.5 86.5
t9.5 107.5t-7 125t-32.5 165l12 27q-25 -27 -39.5 -35t-33.5 19t-19 59t-27.5 63t-70 51t-103 23.5t-106.5 1t-112.5 -23.5t-105 -48.5t-58 -46t-46.5 -52t-81 -144.5q21 97 60 156t90 103t105 68t120.5 35.5t146 8t149 -28.5t148.5 -89z" />
    <glyph glyph-name="p" unicode="p" horiz-adv-x="961" 
d="M-536 688q174 3 257 13.5t182.5 55t161 92t153 86t251.5 29.5q-114 -19 -127.5 -36t-21.5 -53.5t-4 -156.5q85 123 131 160t113.5 53.5t119.5 -3.5t107 -66t90.5 -98t58.5 -136t15.5 -177.5t-24.5 -170t-93.5 -156.5t-148.5 -110.5t-164 -24.5t-129 44.5t-43 93.5t20 107
t75 78.5t84.5 2t35.5 -83.5q-34 65 -55.5 69.5t-52 -9.5t-44.5 -50.5t-12.5 -69t18.5 -61.5t54 -38t99.5 3t98 49t64.5 81.5t38 116.5t9 145.5t-21.5 144t-66 111.5t-98 59.5t-93 12.5t-58 -23t-52.5 -47.5t-76 -76.5l-9 -901q27 -64 58 -76.5t70.5 -4.5t110 11t90.5 -15.5
t44 -61.5q-30 31 -53 41.5t-57 12t-70.5 -6t-84 -21.5t-101 -27.5t-124 -23t-133.5 -9.5t-124 17t-104 40t-73.5 52t-171.5 198q107 -104 147 -139.5t98 -72t127 -43t104 -0.5t58 52t21.5 93.5t13.5 979.5q-27 49 -55 52t-90.5 -26t-125.5 -50.5t-124 -35.5t-111.5 -10.5
t-182.5 15.5z" />
    <glyph glyph-name="q" unicode="q" horiz-adv-x="946" 
d="M1517 688q-132 -12 -182.5 -15.5t-111.5 10.5t-124 35.5t-125.5 50.5t-90.5 26t-55 -52q-16 -935 -17.5 -982.5t21.5 -93.5t58 -52t104 0.5t127 43t98 72t147 139.5q-141 -169 -171.5 -198t-73.5 -52t-104 -40t-124 -17t-133.5 9.5t-124 23t-101 27.5t-84 21.5t-70.5 6
t-57 -12t-53 -41.5q24 43 44 61.5t90.5 15.5t110 -11t70.5 4.5t58 76.5l22 904q-42 46 -76 76.5t-52.5 47.5t-58 23t-93 -12.5t-98 -59.5t-66 -111.5t-24.5 -113t6 -114.5t38 -116.5t64.5 -81.5t98 -49t99.5 -3t54 38t18.5 61.5t-12.5 69t-44.5 50.5t-52 9.5t-55.5 -69.5
q0 59 35.5 83.5t84.5 -2t75 -78.5t20 -107t-43 -93.5t-129 -44.5t-164 24.5t-148.5 110.5t-93.5 156.5t-21.5 139t18.5 146.5t58.5 136t90.5 98t107 66t119.5 3.5t113.5 -53.5t131 -160q4 120 -4 156.5t-21.5 53.5t-127.5 36q160 9 251.5 -29.5t153 -86t161 -92t182.5 -55
t257 -13.5z" />
    <glyph glyph-name="r" unicode="r" horiz-adv-x="761" 
d="M-506 726q173 15 265 37t182 49.5t174.5 70t187.5 77t165 23.5q-55 -11 -88 -23.5t-51.5 -34.5t-24 -59t5.5 -136q66 99 110 150.5t123.5 69.5t127 -4t71.5 -82.5t5.5 -117.5t-58.5 -77t-75 -25.5t-64.5 12.5t-40.5 40.5t-7.5 55.5t25.5 49.5t61 7.5t27 -93
q29 73 13 109.5t-43.5 42t-50 -5.5t-55.5 -36.5t-53 -53.5t-116 -171q8 -463 19 -490.5t36.5 -48t64 -3.5t112.5 42l-22 -125q-107 4 -215.5 7.5t-253.5 -15t-347 -76.5q169 66 251.5 93.5t134 73.5t59 114t7.5 154.5t1.5 172.5t-4 183.5t-34.5 119.5t-66 16.5t-147 -40.5
t-184 -44t-232 -16z" />
    <glyph glyph-name="s" unicode="s" horiz-adv-x="708" 
d="M1264 1122q-216 -140 -322 -208t-216 -108t-156 -32t-80 42t-96 46t-110 8t-78 -28t-30 -72t30 -88t70 -72t90 -56t114 -52t106 -66t66 -88t24 -110t-42 -116t-92 -86t-106 -44t-112 -16t-96 12t-60 18t-26 -14t12 -60t78 -90q-136 52 -156 156t-28 166t-30 116t-80 134
t-140 120t-156 58t-242 38q168 0 310 -28t218 -104t128 -168t78 -144t60 -82t86 -48t108 -16t98 34t52 80t-14 96t-108 96t-144 72t-118 74t-78 114t0 144t78 124t126 58t158 -6t208 -12t220 42t398 166z" />
    <glyph glyph-name="t" unicode="t" horiz-adv-x="533" 
d="M-92 398q-49 35 -61.5 98t6.5 143.5t58.5 139.5t74 83.5t113.5 68t109 89t49.5 98.5t20.5 97t-19.5 82t-56 50.5t-81.5 -1.5q60 25 93 15.5t46.5 -24.5t24.5 -38.5t18 -66t7 -84.5v-236q123 2 162.5 14.5t91.5 58.5l-49 -155q-58 16 -84 16t-56 1.5t-46.5 1.5t-16.5 -19
q-5 -582 6 -641t39.5 -73t64 -5.5t59 34.5t60 56t88.5 47.5t112.5 20.5t97 -15t80.5 -59q-57 33 -98 44t-83.5 7t-79.5 -16.5t-65.5 -33t-49 -54.5t-53.5 -69.5t-79.5 -60t-93 -24.5t-79 20.5t-57.5 72.5t-30 106.5t0 655.5q-60 6 -100 -5t-80.5 -42.5t-53 -53t-34.5 -69.5
t-26 -92t0 -74t16.5 -58.5t34.5 -50.5z" />
    <glyph glyph-name="u" unicode="u" horiz-adv-x="901" 
d="M-499 768q113 58 208.5 87.5t167.5 43t165.5 22t163.5 1t166 24.5q-60 -38 -86 -62t-39 -87t-12 -307t18 -295.5t48.5 -70t78.5 -23t94 10.5t148 117q-2 564 -12.5 593t-36 38.5t-56.5 8.5t-89 -27t-114 -118q44 105 97.5 137t120.5 45.5t171.5 15t149.5 22t80.5 32
t66 -1t52.5 -37.5t14.5 -54.5t-24 -50t-54.5 -29.5l38 21q23 36 28 61t-17 44t-47 25t-55.5 -3.5t-74.5 -38.5t-60.5 -64.5t-17.5 -220t5 -312.5t16.5 -160t27.5 -40.5t50.5 -7.5t128.5 53.5t292 77.5q-180 -42 -242.5 -72.5t-139 -75.5t-140.5 -82.5t-109 -46t-84 -10.5
t-74 21q31 -9 56 -9t40 19t19 46t4 61t-6 84q-67 -69 -107 -102.5t-80.5 -56.5t-93 -30.5t-95.5 4t-97.5 63t-66 137t-11.5 188.5t5.5 228.5t-2 171.5t-37 74.5t-71.5 30.5t-100.5 -4.5t-153.5 -34.5t-215 -79v5z" />
    <glyph glyph-name="v" unicode="v" horiz-adv-x="950" 
d="M-713 631q157 127 273.5 169t236.5 70t243.5 33t223.5 10t180 22t126 123q-33 -80 -54.5 -108t-51.5 -40t-75 -23.5t-62 -23t-20 -41.5t227 -600q253 603 241.5 626.5t-35 30t-63.5 -5t-150 -91.5q83 83 131.5 106.5t100 28.5t105 6.5t125 20t148.5 91.5
q-63 -73 -91.5 -96.5t-98.5 -48.5t-143 -202l-334 -810q-80 -76 -118 -99.5t-122 -20.5q97 27 128.5 52t58.5 61.5t33.5 90t-157 421.5t-193 410t-63.5 55.5t-78.5 13.5t-153 -22t-225 -55.5t-293.5 -159.5v6z" />
    <glyph glyph-name="w" unicode="w" horiz-adv-x="1342" 
d="M-492 729q153 129 241 150.5t172.5 21.5t204.5 -1t187.5 36.5t99.5 96.5q-35 -70 -60.5 -91.5t-56.5 -44.5t-52.5 -39t-16 -56.5t207.5 -584.5l202 428q-92 200 -110.5 209.5t-45.5 13.5t-44.5 -7t-32.5 -34t-23 -77q-6 65 7.5 94.5t55.5 48.5t88 19t94.5 -2.5t102 -2.5
t84.5 9.5t69 33.5q-62 -65 -78 -75.5t-31 -24t-16.5 -40.5t7 -58t202.5 -505l215 541q0 51 -12 66t-37.5 17.5t-40.5 -15t-40.5 -40t-55 -31t-113.5 -5.5q86 14 107.5 26t36.5 33.5t43.5 45.5t70 40.5t93 22t78 4t60.5 -12.5t58 -40.5t24 -53.5t-6.5 -60.5t-33.5 -48.5
t-52.5 -4t-44.5 48q27 -21 47 -25.5t40.5 8t24.5 38t-4 40.5t-30 23t-46 5t-49.5 -23t-51 -78t-308.5 -796q-27 -78 -40.5 -106.5t-58 -59.5t-98.5 -36q51 24 90 52t46 54t12.5 62t-224.5 627l-264 -583q-37 -99 -64 -130t-55.5 -51.5t-89 -39t-103.5 -26.5
q54 24 102.5 41.5t75.5 44.5t45.5 52.5t27 79.5t-274.5 803q-27 54 -104 81t-98.5 31t-109 -15t-246.5 -127v3z" />
    <glyph glyph-name="x" unicode="x" horiz-adv-x="965" 
d="M-476 1090q89 -65 134.5 -89t121 -48.5t129.5 -28.5t109 -6.5t101 -2.5h104t99.5 -32.5t43 -69t16.5 -89t69 -122.5l129 178q22 54 11 73t-38 27t-55 -1.5t-28 -31t16 -48.5q-25 32 -29 55t20.5 36.5t63.5 19t122.5 4t132 2.5t102.5 29.5t122.5 7t101.5 -91.5
q-46 51 -108 67t-109 -5.5t-118.5 -63t-108 -84.5t-184.5 -237l302 -437q48 -32 84.5 -41.5t141.5 38.5l-30 -124q-237 19 -385 15t-313 -90q76 51 132.5 75.5t94 43t56.5 40t0 73.5l-188 283l-202 -294q-3 -43 10.5 -59.5t36.5 -24.5t50 -1t43 27t27 69q-6 -73 -22 -89
t-35 -27t-51 -8.5t-82 4t-181 -17.5t-248 -74t-195 -95q124 75 207.5 118t128 55t82 29.5t79.5 42t314 393.5l-253 367q-33 27 -85.5 41.5t-109 24t-134.5 38t-121 58t-124 96.5v3z" />
    <glyph glyph-name="y" unicode="y" horiz-adv-x="1002" 
d="M-827 816q177 -80 325.5 -91t251 32t191 86.5t229 64.5t285.5 -27q-97 -48 -78 -99.5t261 -541.5l216 523q5 70 -16.5 97t-62 27t-94 -35.5t-91.5 -115.5q16 97 62 137t102.5 53.5t102 3t132 -13.5t186 16t261.5 181q-108 -124 -164.5 -162t-124 -54t-108 -32
t-64.5 -48.5t-469 -1077.5q-102 -159 -227.5 -167.5t-192.5 39t-105 117.5t-35 138.5t51 120t105 44.5t84 -34t29.5 -59t-13.5 -59t-43 -38t-43 -3t-40.5 35t-8.5 92q-64 -27 -72 -83.5t28 -112t83 -78.5t109 -21.5t139 50.5t201 358q-358 717 -396 744t-70.5 21.5
t-99.5 -29.5t-185.5 -70t-194 -48.5t-143 13.5t-118.5 29.5t-181 77.5h6z" />
    <glyph glyph-name="z" unicode="z" horiz-adv-x="947" 
d="M-556 403q283 24 378.5 44.5t196.5 125.5t109.5 239.5t57 184.5t142.5 79q-78 -45 -89 -60t-12 -39t16.5 -36.5t43 -13.5t312.5 -8t347.5 -12.5t160.5 -69.5q-119 40 -160.5 37.5t-72.5 -27t-96 -107.5l-507 -677q216 -5 276.5 -2.5t129.5 15t97 46t75.5 76.5t102.5 59.5
t128 5.5q-86 -16 -132 -33.5t-65 -46t-33.5 -57t-37.5 -70t-89 -125t-258 -118.5q154 59 179.5 86t35 56.5t-10.5 40.5t-675 3q223 239 284 313.5t384 534.5h-356q-115 -40 -123.5 -79t-40.5 -89t-66 -87.5t-86.5 -89t-98 -62t-128 -18.5t-316.5 -19h-3z" />
    <glyph glyph-name="braceleft" unicode="{" horiz-adv-x="983" 
d="M841 -407v-35q-167 23 -271.5 135.5t-104.5 249.5q0 72 23 167.5t23 148.5q0 72 -60.5 134.5t-167.5 76.5v41q107 14 167.5 76t60.5 135q0 53 -23 148t-23 168q0 136 104.5 249t271.5 135v-35q-117 -28 -171.5 -91.5t-54.5 -139.5q0 -59 22.5 -155.5t22.5 -164.5
q0 -101 -74 -196t-221 -147q144 -53 219.5 -150t75.5 -198q0 -68 -22.5 -164.5t-22.5 -155.5q0 -76 54.5 -139.5t171.5 -92.5z" />
    <glyph glyph-name="bar" unicode="|" horiz-adv-x="410" 
d="M244 1422v-1864h-83v1864h83z" />
    <glyph glyph-name="braceright" unicode="}" horiz-adv-x="983" 
d="M177 1387v35q167 -22 271.5 -134.5t104.5 -250.5q0 -72 -23 -167t-23 -148q0 -72 60.5 -134.5t167.5 -76.5v-41q-107 -14 -167.5 -76.5t-60.5 -134.5q0 -53 23 -148.5t23 -167.5q0 -136 -104.5 -249t-271.5 -136v35q117 29 171.5 92t54.5 140q0 59 -23 155.5t-23 163.5
q0 102 74.5 197t221.5 147q-144 53 -220 150t-76 198q0 68 23 164.5t23 155.5q0 76 -54.5 139.5t-171.5 91.5z" />
    <glyph glyph-name="asciitilde" unicode="~" horiz-adv-x="1108" 
d="M1042 675h45q-4 -130 -74 -203.5t-171 -73.5q-46 0 -99 15.5t-274 105.5q-154 64 -219 64q-70 0 -118 -43t-68 -140h-44q6 135 74 206.5t160 71.5q44 0 90 -14q104 -30 273.5 -102.5t238.5 -72.5q75 0 126 48t60 138z" />
    <glyph glyph-name="nonbreakingspace" unicode="&#xa0;" horiz-adv-x="498" 
 />
    <glyph glyph-name="exclamdown" unicode="&#xa1;" horiz-adv-x="309" 
 />
    <glyph glyph-name="cent" unicode="&#xa2;" 
d="M900 349q-47 -188 -163 -292q-90 -81 -221 -81q-81 0 -162 35l-142 -390h-70l155 427q-81 76 -117 154q-51 110 -51 250q0 254 157 390q120 105 273 105q20 0 61 -4l140 383h72l-145 -402q101 -45 138 -87q48 -54 48 -115q0 -39 -24 -62t-70 -23q-55 0 -86 38
q-18 22 -26 82q-4 31 -17 65l-228 -631q56 -38 94 -51q28 -10 69 -10q61 0 117 25.5t85 60t83 146.5zM370 250l223 615q-28 12 -60 12q-102 0 -162 -74q-82 -100 -82 -268q0 -75 17.5 -138t63.5 -147z" />
    <glyph glyph-name="sterling" unicode="&#xa3;" 
d="M723 659h-258q1 -46 1 -68q0 -94 -13.5 -174t-48.5 -184q196 -63 224 -69q52 -12 102 -12q83 0 135 38.5t76 121.5l36 -9q-21 -161 -103.5 -244t-183.5 -83q-68 0 -123 24.5t-203 135.5q-40 -80 -86.5 -120t-99.5 -40q-50 0 -83.5 34.5t-33.5 94.5q0 67 46 111.5
t118 44.5q17 0 38 -2t47 -6q2 26 2.5 45t0.5 32q0 88 -21 329h-194v95h194q-13 149 -13 199q0 122 49 223t135.5 154.5t185.5 53.5q126 0 189.5 -68t63.5 -136q0 -32 -24.5 -57t-53.5 -25q-38 0 -63 38q-11 18 -15 77.5t-34 87.5q-31 28 -87 28q-79 0 -130.5 -62t-51.5 -218
q0 -73 12 -187q7 -75 10 -108h258v-95zM298 172q-22 14 -43 21t-42 7q-45 0 -70 -24.5t-25 -63.5q0 -36 19.5 -57t45.5 -21q33 0 64.5 31t50.5 107z" />
    <glyph glyph-name="currency" unicode="&#xa4;" horiz-adv-x="420" 
 />
    <glyph glyph-name="yen" unicode="&#xa5;" horiz-adv-x="636" 
 />
    <glyph glyph-name="brokenbar" unicode="&#xa6;" horiz-adv-x="201" 
 />
    <glyph glyph-name="section" unicode="&#xa7;" 
d="M377 843q-67 74 -95.5 135t-28.5 124q0 117 82 199.5t202 82.5q110 0 181.5 -67t71.5 -153q0 -39 -26 -69q-19 -21 -53 -21t-56 23t-22 54q0 15 8 53q5 23 5 43q0 41 -29 68t-80 27q-73 0 -123.5 -51t-50.5 -124q0 -64 27 -106q45 -70 151 -147q201 -145 275 -260
q52 -82 52 -172q0 -91 -53 -182t-168 -160q70 -77 96.5 -133t26.5 -121q0 -122 -82 -204t-202 -82q-108 0 -179.5 68.5t-71.5 156.5q0 37 23.5 62.5t54.5 25.5t53 -23.5t22 -63.5q0 -27 -8 -59.5t-8 -49.5q0 -29 25 -48q39 -30 95 -30q67 0 121.5 52t54.5 113q0 62 -31 111
q-48 75 -174 170q-188 140 -256 247q-51 81 -51 172q0 92 54 181.5t167 157.5zM409 812q-151 -91 -151 -222q0 -70 37 -129q52 -81 197 -191q70 -53 122 -101q153 93 153 220q0 65 -44 135.5t-181 177.5q-82 63 -133 110z" />
    <glyph glyph-name="dieresis" unicode="&#xa8;" horiz-adv-x="371" 
 />
    <glyph glyph-name="copyright" unicode="&#xa9;" horiz-adv-x="1556" 
d="M778 1387q179 0 349 -91.5t265.5 -262t95.5 -355.5q0 -184 -94 -353t-263 -262.5t-353 -93.5t-352.5 93.5t-262.5 262.5t-94 353q0 185 95.5 355.5t265.5 262t348 91.5zM778 1326q-163 0 -318 -84t-242 -239.5t-87 -324.5q0 -168 85.5 -322t239.5 -240t322 -86t322.5 86
t240 240t85.5 322q0 169 -87 324.5t-242 239.5t-319 84zM1129 1134l20 -280h-39q-36 119 -114.5 177.5t-188.5 58.5q-82 0 -146 -34t-105 -91q-30 -43 -50 -114t-20 -150q0 -212 91 -312.5t240 -100.5q195 0 312 162l37 -19q-139 -203 -383 -203q-200 0 -331.5 129.5
t-131.5 314.5q0 192 140 327.5t358 135.5q46 0 76.5 -6t108.5 -32q25 -8 37 -8q16 0 27 8.5t22 36.5h40z" />
    <glyph glyph-name="ordfeminine" unicode="&#xaa;" horiz-adv-x="402" 
 />
    <glyph glyph-name="guillemotleft" unicode="&#xab;" horiz-adv-x="540" 
 />
    <glyph glyph-name="logicalnot" unicode="&#xac;" horiz-adv-x="1395" 
 />
    <glyph glyph-name="minus" unicode="&#xad;" horiz-adv-x="636" 
 />
    <glyph glyph-name="minus" unicode="&#x2212;" horiz-adv-x="636" 
 />
    <glyph glyph-name="registered" unicode="&#xae;" horiz-adv-x="1556" 
d="M778 1387q179 0 349 -91.5t265.5 -262t95.5 -355.5q0 -184 -94 -353t-263 -262.5t-353 -93.5t-352.5 93.5t-262.5 262.5t-94 353q0 185 95.5 355.5t265.5 262t348 91.5zM778 1326q-163 0 -318 -84t-242 -239.5t-87 -324.5q0 -168 85.5 -322t239.5 -240t322 -86t322.5 86
t240 240t85.5 322q0 169 -87 324.5t-242 239.5t-319 84zM386 1114h386q145 0 221 -65.5t76 -158.5q0 -76 -51.5 -133.5t-170.5 -88.5l209 -298q38 -53 68 -73q19 -12 53 -15v-33h-184l-294 405h-76v-309q6 -33 28.5 -48t89.5 -15v-33h-367v33q48 0 68 11.5t29 33.5
q7 16 7 93v523q0 74 -3 87q-7 23 -25.5 35.5t-63.5 12.5v36zM623 697q118 0 172.5 23t83.5 64.5t29 94.5q0 81 -56.5 136t-144.5 55q-38 0 -84 -16v-357z" />
    <glyph glyph-name="macron" unicode="&#xaf;" horiz-adv-x="360" 
 />
    <glyph glyph-name="macron" unicode="&#x2c9;" horiz-adv-x="360" 
 />
    <glyph glyph-name="degree" unicode="&#xb0;" horiz-adv-x="819" 
d="M405 1386q129 0 218.5 -90t89.5 -218q0 -127 -90 -217t-218 -90q-127 0 -217 90t-90 217q0 128 89.5 218t217.5 90zM405 1302q-93 0 -158 -65t-65 -158q0 -92 65 -157.5t158 -65.5q92 0 157.5 65.5t65.5 157.5q0 93 -65 158t-158 65z" />
    <glyph glyph-name="plusminus" unicode="&#xb1;" horiz-adv-x="636" 
 />
    <glyph glyph-name="twosuperior" unicode="&#xb2;" horiz-adv-x="300" 
 />
    <glyph glyph-name="threesuperior" unicode="&#xb3;" horiz-adv-x="300" 
 />
    <glyph glyph-name="acute" unicode="&#xb4;" horiz-adv-x="462" 
 />
    <glyph glyph-name="mu" unicode="&#xb5;" horiz-adv-x="420" 
 />
    <glyph glyph-name="mu" unicode="&#x3bc;" horiz-adv-x="420" 
 />
    <glyph glyph-name="paragraph" unicode="&#xb6;" horiz-adv-x="928" 
d="M798 1301v-1743h-72v1743h-187v-1743h-73v1043q-191 8 -285.5 50.5t-144.5 131t-50 198.5t43 180q58 96 154.5 145.5t252.5 49.5h495v-55h-133z" />
    <glyph glyph-name="periodcentered" unicode="&#xb7;" horiz-adv-x="207" 
 />
    <glyph glyph-name="periodcentered" unicode="&#x2219;" horiz-adv-x="207" 
 />
    <glyph glyph-name="cedilla" unicode="&#xb8;" horiz-adv-x="321" 
 />
    <glyph glyph-name="onesuperior" unicode="&#xb9;" horiz-adv-x="300" 
 />
    <glyph glyph-name="ordmasculine" unicode="&#xba;" horiz-adv-x="402" 
 />
    <glyph glyph-name="guillemotright" unicode="&#xbb;" horiz-adv-x="540" 
 />
    <glyph glyph-name="onequarter" unicode="&#xbc;" horiz-adv-x="786" 
 />
    <glyph glyph-name="onehalf" unicode="&#xbd;" horiz-adv-x="786" 
 />
    <glyph glyph-name="threequarters" unicode="&#xbe;" horiz-adv-x="786" 
 />
    <glyph glyph-name="questiondown" unicode="&#xbf;" horiz-adv-x="567" 
 />
    <glyph glyph-name="Agrave" unicode="&#xc0;" horiz-adv-x="609" 
 />
    <glyph glyph-name="Aacute" unicode="&#xc1;" horiz-adv-x="609" 
 />
    <glyph glyph-name="Acircumflex" unicode="&#xc2;" horiz-adv-x="609" 
 />
    <glyph glyph-name="Atilde" unicode="&#xc3;" horiz-adv-x="609" 
 />
    <glyph glyph-name="Adieresis" unicode="&#xc4;" horiz-adv-x="2272" 
d="M1312 1176q43 81 43 132.5t-11 100t-40.5 113.5t-97 116.5t-246.5 110.5q190 -27 271 -81t119 -116t81 -154l416 -990q54 -135 100 -219t86.5 -105.5t89.5 -21.5t130 38l-54 -103q-276 11 -354.5 0t-132.5 -21.5t-116 -35t-121.5 -51.5t-195.5 -140q125 146 181.5 178
t116 59.5t97.5 46t54 43t11 70.5t-35 121.5t-100 254.5l-530 -125q-60 -146 -76 -202.5t8.5 -89t65 -35t92 11t78.5 62t21.5 94.5t-38.5 105q60 -54 70.5 -105t-16.5 -116t-64.5 -92t-175.5 -35.5t-265 -38t-238 -70t-219 -94.5t-303 -200q179 167 281.5 235t219 116.5
t178.5 70t105 56.5t135 198l379 903v5zM1544 635l-189 443l-249 -583l438 135v5zM1601 1708q45 0 76.5 -32t31.5 -77t-31.5 -76.5t-76.5 -31.5t-77 31.5t-32 76.5t32 77t77 32zM1248 1708q46 0 77.5 -32t31.5 -77t-32 -76.5t-76 -31.5q-45 0 -77 31.5t-32 76.5t31.5 77
t76.5 32z" />
    <glyph glyph-name="Aring" unicode="&#xc5;" horiz-adv-x="2352" 
d="M1312 1176q43 81 43 132.5t-11 100t-40.5 113.5t-97 116.5t-246.5 110.5q190 -27 271 -81t119 -116t81 -154l416 -990q54 -135 100 -219t86.5 -105.5t89.5 -21.5t130 38l-54 -103q-276 11 -354.5 0t-132.5 -21.5t-116 -35t-121.5 -51.5t-195.5 -140q125 146 181.5 178
t116 59.5t97.5 46t54 43t11 70.5t-35 121.5t-100 254.5l-530 -125q-60 -146 -76 -202.5t8.5 -89t65 -35t92 11t78.5 62t21.5 94.5t-38.5 105q60 -54 70.5 -105t-16.5 -116t-64.5 -92t-175.5 -35.5t-265 -38t-238 -70t-219 -94.5t-303 -200q179 167 281.5 235t219 116.5
t178.5 70t105 56.5t135 198l379 903v5zM1544 635l-189 443l-249 -583l438 135v5zM1421 1701q80 0 136 -56t56 -135q0 -80 -56 -136t-136 -56q-79 0 -135 56t-56 136q0 79 55.5 135t135.5 56zM1421 1632q-51 0 -86.5 -35.5t-35.5 -86.5q0 -50 35.5 -86t86.5 -36t86.5 36
t35.5 86q0 51 -35.5 86.5t-86.5 35.5z" />
    <glyph glyph-name="AE" unicode="&#xc6;" horiz-adv-x="819" 
 />
    <glyph glyph-name="Ccedilla" unicode="&#xc7;" horiz-adv-x="1366" 
d="M787 651q238 82 289.5 157.5t67.5 146t-3 135t-67.5 116t-135 84t-162.5 30t-170.5 -40.5t-156.5 -108.5t-111 -178.5t-59.5 -243t16.5 -259.5t73 -205.5t121.5 -135t170 -78.5t195 -11t181.5 62t116 84t102.5 146t182.5 413.5q-88 -292 -112 -375.5t-89.5 -181.5
t-154.5 -160t-208 -86t-243 -2.5t-210.5 73t-181.5 154t-135.5 257t-21.5 311t78.5 275.5t167.5 211t232.5 124.5t211 27t176 -40.5t127 -35t51 37.5t-40.5 156.5q125 -108 144 -175.5t27 -146t-14 -170.5t-43.5 -127t-89 -110.5t-224.5 -119.5zM690 16h60l-50 -79
q63 -16 94 -54t31 -92q0 -72 -60 -126.5t-155 -54.5q-37 0 -94 7v43q28 -4 48 -4q51 0 86 33.5t35 76.5q0 30 -23 52t-57 22q-10 0 -26 -2z" />
    <glyph glyph-name="Egrave" unicode="&#xc8;" horiz-adv-x="648" 
 />
    <glyph glyph-name="Eacute" unicode="&#xc9;" horiz-adv-x="1251" 
d="M1881 1555q43 -22 64.5 -57t19 -65t-18.5 -51.5t-62 -27t-911 -5.5q-222 -21 -341 -43t-205.5 -70.5t-159.5 -108t-225 -287.5q163 196 236 250t156.5 94.5t210.5 62t232.5 13.5t146 -19t68 -51.5t32.5 -159.5v-800q-11 -119 -38 -149t-73 -40.5t-105.5 -18.5t-116 -27
t-159.5 -106q124 65 175.5 76t113.5 16t216.5 10.5t446.5 3t305.5 -21.5t16 -51.5t-16.5 -57t-84 -72.5q81 38 105.5 59.5t54.5 56.5t89 97.5t119 151.5t146.5 283.5t80.5 291.5q-16 -157 -140.5 -316t-176 -205t-86.5 -68t-81 -40.5t-100 -29.5t-240.5 -8t-216.5 16.5
t-38 35t-10.5 129.5t2.5 346q168 119 241 127t140.5 2.5t113.5 -19t127 -56.5q-75 75 -118.5 97t-124.5 30t-165 0t-214 -35v541h471q102 5 148 0t95 -32.5t89.5 -97t48.5 -119t5.5 -111.5t-40.5 -229q59 129 81 237.5t2.5 214t-46 167t-75.5 118.5t-100.5 92.5t-110.5 40.5
v-5zM1739 1797l-295 -345h-34l105 345h224z" />
    <glyph glyph-name="Ecircumflex" unicode="&#xca;" horiz-adv-x="648" 
 />
    <glyph glyph-name="Edieresis" unicode="&#xcb;" horiz-adv-x="648" 
 />
    <glyph glyph-name="Igrave" unicode="&#xcc;" horiz-adv-x="234" 
 />
    <glyph glyph-name="Iacute" unicode="&#xcd;" horiz-adv-x="234" 
 />
    <glyph glyph-name="Icircumflex" unicode="&#xce;" horiz-adv-x="234" 
 />
    <glyph glyph-name="Idieresis" unicode="&#xcf;" horiz-adv-x="234" 
 />
    <glyph glyph-name="Eth" unicode="&#xd0;" horiz-adv-x="663" 
 />
    <glyph glyph-name="Ntilde" unicode="&#xd1;" horiz-adv-x="2140" 
d="M-24 1157q137 77 284 106t299.5 51.5t304 27.5t286.5 -14q-95 -6 -116.5 -18t-23 -27.5t10.5 -35.5t371.5 -463t368.5 -458q-6 892 -12 916.5t-33.5 50.5t-82.5 29t-115 -18.5t-101 -55t-78 -128.5q34 101 70.5 139.5t99 61.5t125.5 27.5t136.5 4.5t119 4.5t90 12t55 35
t3 53.5t-30.5 34t-38 -4.5t-12 -55.5q-16 46 5.5 64.5t52 9t41.5 -43t-1.5 -71.5t-64.5 -53.5t-91.5 -43t-50.5 -68.5t-7.5 -626.5t3.5 -636t-14 -98t-87 -102.5q52 70 64 110t-1.5 86t-894.5 1119q0 -869 7.5 -930t32 -81t47.5 -23t53.5 0t63 27.5t53.5 46.5l-31 -129
q-458 9 -508.5 0t-111.5 -24t-111.5 -49t-111.5 -101q52 80 103.5 118t114.5 59.5t121 32t101 27.5t62.5 46t26 71.5t1.5 521t-12.5 507.5t-27.5 50.5t-42.5 31t-177 -1.5t-300 -38.5t-291.5 -82.5h3zM1032 1465h-32q4 137 57 198t131 61q41 0 75 -13q45 -17 127.5 -71.5
t122.5 -54.5q32 0 56.5 27t38.5 112h31q1 -93 -24.5 -147.5t-72 -85t-93.5 -30.5q-79 0 -196 80q-63 43 -85 52t-43 9q-41 0 -65 -36q-11 -17 -28 -101z" />
    <glyph glyph-name="Ograve" unicode="&#xd2;" horiz-adv-x="696" 
 />
    <glyph glyph-name="Oacute" unicode="&#xd3;" horiz-adv-x="696" 
 />
    <glyph glyph-name="Ocircumflex" unicode="&#xd4;" horiz-adv-x="696" 
 />
    <glyph glyph-name="Otilde" unicode="&#xd5;" horiz-adv-x="696" 
 />
    <glyph glyph-name="Odieresis" unicode="&#xd6;" horiz-adv-x="1479" 
d="M1160 1222q-104 85 -196.5 118t-198 38t-194 -10.5t-160.5 -47t-139.5 -90t-119.5 -137t-80 -207.5q72 147 108 191.5t61.5 69.5t77 61t140 64.5t149.5 31.5t141.5 -1.5t137 -31.5t92.5 -68t36 -83.5t25.5 -78.5t44.5 -25t53 46l-16 -35q32 -132 43 -220t9.5 -166.5
t-12.5 -143t-22.5 -115t-64.5 -137t-114.5 -134t-134 -64.5t-151 0t-144.5 58t-115 110.5t-77 170t-36 184t-3.5 181t19 166.5t31.5 108.5t48.5 79t60 64.5t75.5 34.5t88 -3t66 -53.5q-19 59 -55 75t-74 16t-78.5 -9.5t-72 -30t-72.5 -50.5t-71 -62.5t-49 -52t-59.5 -93
t-58 -132t-24 -145t17.5 -198t80.5 -193.5t129 -145t160.5 -97.5t182 -47t180.5 -1.5t157.5 41t121.5 69.5t110 115t105 173t60 210.5t-7.5 253t-69.5 218.5t-72.5 107.5q51 85 85.5 116.5t88 44t97.5 -2t75 -54.5q-47 66 -94 80t-94.5 7.5t-91.5 -34.5t-70.5 -56.5
t-48.5 -36.5t-16 -11zM905 1708q45 0 76.5 -32t31.5 -77t-31.5 -76.5t-76.5 -31.5t-77 31.5t-32 76.5t32 77t77 32zM552 1708q46 0 77.5 -32t31.5 -77t-32 -76.5t-76 -31.5q-45 0 -77 31.5t-32 76.5t31.5 77t76.5 32z" />
    <glyph glyph-name="multiply" unicode="&#xd7;" horiz-adv-x="636" 
 />
    <glyph glyph-name="Oslash" unicode="&#xd8;" horiz-adv-x="696" 
 />
    <glyph glyph-name="Ugrave" unicode="&#xd9;" horiz-adv-x="660" 
 />
    <glyph glyph-name="Uacute" unicode="&#xda;" horiz-adv-x="660" 
 />
    <glyph glyph-name="Ucircumflex" unicode="&#xdb;" horiz-adv-x="660" 
 />
    <glyph glyph-name="Udieresis" unicode="&#xdc;" horiz-adv-x="1786" 
d="M-289 1129q102 89 200.5 123t181.5 50.5t195.5 20t211 8t175.5 13.5t131 37t87 99q-9 -44 -32 -71.5t-61.5 -52t-103 -37t-115.5 -41.5t-68 -80t-20 -114t0 -208t12.5 -360.5t64.5 -308t146 -123t165 -30.5t163.5 27.5t141.5 84.5t80 165t21.5 263.5t-9.5 334
t-10.5 252.5t-30.5 101.5t-65 37t-120 0.5t-168 -105q68 92 119 115t112.5 35.5t166 8t184.5 -4.5t145 20t71 50.5t0 55.5t-29.5 32.5t-53.5 -7.5q27 24 48.5 24t35.5 -7.5t20 -29t9.5 -52.5t-9 -55.5t-34 -40t-52.5 -24.5t-68 -15.5t-80 -15.5t-70.5 -47.5t-34 -108
t-8 -231t0 -268t-1.5 -178.5t-15 -157t-52 -149.5t-99 -106t-143.5 -66t-180 -27.5t-174 9t-161.5 49t-129 111t-69.5 188t-22 237t1.5 277t-1.5 249.5t-12 132.5t-58.5 52.5t-115.5 9t-147.5 -28t-131 -44.5t-137 -85zM1062 1708q45 0 76.5 -32t31.5 -77t-31.5 -76.5
t-76.5 -31.5t-77 31.5t-32 76.5t32 77t77 32zM709 1708q46 0 77.5 -32t31.5 -77t-32 -76.5t-76 -31.5q-45 0 -77 31.5t-32 76.5t31.5 77t76.5 32z" />
    <glyph glyph-name="Yacute" unicode="&#xdd;" horiz-adv-x="526" 
 />
    <glyph glyph-name="Thorn" unicode="&#xde;" horiz-adv-x="576" 
 />
    <glyph glyph-name="germandbls" unicode="&#xdf;" 
d="M35 0v36q60 5 85.5 21t36 44.5t10.5 123.5v741q0 249 93 353q93 103 264 103q162 0 257 -91.5t95 -233.5q0 -106 -54 -180q-40 -54 -137 -96q135 -40 204 -139t69 -260q0 -174 -91 -304.5t-244 -130.5q-87 0 -139.5 48t-52.5 114q0 42 21.5 64.5t57.5 22.5
q39 0 60.5 -21.5t21.5 -57.5q0 -16 -4 -33q-6 -24 -6 -35q0 -18 15 -32t41 -14q60 0 99 53q51 70 51 216q0 208 -73.5 330t-221.5 132v57q106 0 160.5 62.5t54.5 208.5q0 134 -52.5 194t-139.5 60q-81 0 -132 -64t-51 -255v-1037h-298z" />
    <glyph glyph-name="agrave" unicode="&#xe0;" horiz-adv-x="909" 
d="M1283 259q-77 -6 -148.5 -22t-112 -36.5t-75.5 -49t-71.5 -60.5t-69.5 -53.5t-64 -36.5t-66 -21.5t-58.5 20.5t-27.5 110q-50 19 -77.5 0t-53 -45t-60 -43t-75 -25.5t-104.5 11t-98 61t-44 93.5t0 100.5t35.5 85.5t62 73.5t81 55.5t99 30t101.5 5.5t70.5 -19.5t33 -40.5
t7.5 -53.5t-19 -47t-46 -20t-44 15t-15 49q15 -34 34.5 -41.5t37.5 0t23.5 35t-3 47t-36.5 32t-73 10.5t-75.5 -18t-57.5 -39.5t-43 -57.5t-14 -93t25.5 -96t54.5 -53t63 -16t58.5 19t51 28.5t35.5 15t67 9.5q2 493 -2.5 538t-22.5 83.5t-67 67t-81 29.5t-68.5 -16
t-45 -40.5t-12.5 -48t2 -39.5t21 -22.5t43 7.5q-17 0 -29 8.5t-9.5 27t17.5 30t37 6.5t33 -26.5t11 -47t-8.5 -41.5t-31 -33.5t-53.5 -22.5t-60 -1t-53.5 27.5t-35 53.5t-10.5 56.5t7.5 56.5t29 55.5t54.5 43t62.5 23.5t60.5 7t77 -4t90 -18t82 -37.5t67 -62t39.5 -68
t14 -71.5t1.5 -121t1 -238t16 -186.5t45 -32t59.5 10.5t57.5 37.5t61 40.5t87.5 30t96 17t109.5 0zM310 1330q-7 28 3.5 43t40.5 15t75 -8t68 -41.5t51 -125.5t9 -131t-98 -44q46 14 52 31t0 59.5t-49.5 71t-93 68t-59.5 63.5z" />
    <glyph glyph-name="aacute" unicode="&#xe1;" horiz-adv-x="909" 
d="M1283 259q-77 -6 -148.5 -22t-112 -36.5t-75.5 -49t-71.5 -60.5t-69.5 -53.5t-64 -36.5t-66 -21.5t-58.5 20.5t-27.5 110q-50 19 -77.5 0t-53 -45t-60 -43t-75 -25.5t-104.5 11t-98 61t-44 93.5t0 100.5t35.5 85.5t62 73.5t81 55.5t99 30t101.5 5.5t70.5 -19.5t33 -40.5
t7.5 -53.5t-19 -47t-46 -20t-44 15t-15 49q15 -34 34.5 -41.5t37.5 0t23.5 35t-3 47t-36.5 32t-73 10.5t-75.5 -18t-57.5 -39.5t-43 -57.5t-14 -93t25.5 -96t54.5 -53t63 -16t58.5 19t51 28.5t35.5 15t67 9.5q2 493 -2.5 538t-22.5 83.5t-67 67t-81 29.5t-68.5 -16
t-45 -40.5t-12.5 -48t2 -39.5t21 -22.5t43 7.5q-17 0 -29 8.5t-9.5 27t17.5 30t37 6.5t33 -26.5t11 -47t-8.5 -41.5t-31 -33.5t-53.5 -22.5t-60 -1t-53.5 27.5t-35 53.5t-10.5 56.5t7.5 56.5t29 55.5t54.5 43t62.5 23.5t60.5 7t77 -4t90 -18t82 -37.5t67 -62t39.5 -68
t14 -71.5t1.5 -121t1 -238t16 -186.5t45 -32t59.5 10.5t57.5 37.5t61 40.5t87.5 30t96 17t109.5 0zM691 1390l-295 -345h-34l105 345h224z" />
    <glyph glyph-name="acircumflex" unicode="&#xe2;" horiz-adv-x="909" 
d="M1283 259q-77 -6 -148.5 -22t-112 -36.5t-75.5 -49t-71.5 -60.5t-69.5 -53.5t-64 -36.5t-66 -21.5t-58.5 20.5t-27.5 110q-50 19 -77.5 0t-53 -45t-60 -43t-75 -25.5t-104.5 11t-98 61t-44 93.5t0 100.5t35.5 85.5t62 73.5t81 55.5t99 30t101.5 5.5t70.5 -19.5t33 -40.5
t7.5 -53.5t-19 -47t-46 -20t-44 15t-15 49q15 -34 34.5 -41.5t37.5 0t23.5 35t-3 47t-36.5 32t-73 10.5t-75.5 -18t-57.5 -39.5t-43 -57.5t-14 -93t25.5 -96t54.5 -53t63 -16t58.5 19t51 28.5t35.5 15t67 9.5q2 493 -2.5 538t-22.5 83.5t-67 67t-81 29.5t-68.5 -16
t-45 -40.5t-12.5 -48t2 -39.5t21 -22.5t43 7.5q-17 0 -29 8.5t-9.5 27t17.5 30t37 6.5t33 -26.5t11 -47t-8.5 -41.5t-31 -33.5t-53.5 -22.5t-60 -1t-53.5 27.5t-35 53.5t-10.5 56.5t7.5 56.5t29 55.5t54.5 43t62.5 23.5t60.5 7t77 -4t90 -18t82 -37.5t67 -62t39.5 -68
t14 -71.5t1.5 -121t1 -238t16 -186.5t45 -32t59.5 10.5t57.5 37.5t61 40.5t87.5 30t96 17t109.5 0zM375 1385h184l190 -331h-31l-273 213l-229 -213h-30z" />
    <glyph glyph-name="atilde" unicode="&#xe3;" horiz-adv-x="909" 
d="M1274 259q-77 -6 -148.5 -22t-112 -36.5t-75.5 -49t-71.5 -60.5t-69.5 -53.5t-64 -36.5t-66 -21.5t-58.5 20.5t-27.5 110q-50 19 -77.5 0t-53 -45t-60 -43t-75 -25.5t-104.5 11t-98 61t-44 93.5t0 100.5t35.5 85.5t62 73.5t81 55.5t99 30t101.5 5.5t70.5 -19.5t33 -40.5
t7.5 -53.5t-19 -47t-46 -20t-44 15t-15 49q15 -34 34.5 -41.5t37.5 0t23.5 35t-3 47t-36.5 32t-73 10.5t-75.5 -18t-57.5 -39.5t-43 -57.5t-14 -93t25.5 -96t54.5 -53t63 -16t58.5 19t51 28.5t35.5 15t67 9.5q2 493 -2.5 538t-22.5 83.5t-67 67t-81 29.5t-68.5 -16
t-45 -40.5t-12.5 -48t2 -39.5t21 -22.5t43 7.5q-17 0 -29 8.5t-9.5 27t17.5 30t37 6.5t33 -26.5t11 -47t-8.5 -41.5t-31 -33.5t-53.5 -22.5t-60 -1t-53.5 27.5t-35 53.5t-10.5 56.5t7.5 56.5t29 55.5t54.5 43t62.5 23.5t60.5 7t77 -4t90 -18t82 -37.5t67 -62t39.5 -68
t14 -71.5t1.5 -121t1 -238t16 -186.5t45 -32t59.5 10.5t57.5 37.5t61 40.5t87.5 30t96 17t109.5 0zM171 1097h-32q4 137 57 198t131 61q41 0 75 -13q45 -17 127.5 -71.5t122.5 -54.5q32 0 56.5 27t38.5 112h31q1 -93 -24.5 -147.5t-72 -85t-93.5 -30.5q-79 0 -196 80
q-63 43 -85 52t-43 9q-41 0 -65 -36q-11 -17 -28 -101z" />
    <glyph glyph-name="adieresis" unicode="&#xe4;" horiz-adv-x="909" 
d="M1274 259q-77 -6 -148.5 -22t-112 -36.5t-75.5 -49t-71.5 -60.5t-69.5 -53.5t-64 -36.5t-66 -21.5t-58.5 20.5t-27.5 110q-50 19 -77.5 0t-53 -45t-60 -43t-75 -25.5t-104.5 11t-98 61t-44 93.5t0 100.5t35.5 85.5t62 73.5t81 55.5t99 30t101.5 5.5t70.5 -19.5t33 -40.5
t7.5 -53.5t-19 -47t-46 -20t-44 15t-15 49q15 -34 34.5 -41.5t37.5 0t23.5 35t-3 47t-36.5 32t-73 10.5t-75.5 -18t-57.5 -39.5t-43 -57.5t-14 -93t25.5 -96t54.5 -53t63 -16t58.5 19t51 28.5t35.5 15t67 9.5q2 493 -2.5 538t-22.5 83.5t-67 67t-81 29.5t-68.5 -16
t-45 -40.5t-12.5 -48t2 -39.5t21 -22.5t43 7.5q-17 0 -29 8.5t-9.5 27t17.5 30t37 6.5t33 -26.5t11 -47t-8.5 -41.5t-31 -33.5t-53.5 -22.5t-60 -1t-53.5 27.5t-35 53.5t-10.5 56.5t7.5 56.5t29 55.5t54.5 43t62.5 23.5t60.5 7t77 -4t90 -18t82 -37.5t67 -62t39.5 -68
t14 -71.5t1.5 -121t1 -238t16 -186.5t45 -32t59.5 10.5t57.5 37.5t61 40.5t87.5 30t96 17t109.5 0zM634 1337q45 0 76.5 -32t31.5 -77t-31.5 -76.5t-76.5 -31.5t-77 31.5t-32 76.5t32 77t77 32zM281 1337q46 0 77.5 -32t31.5 -77t-32 -76.5t-76 -31.5q-45 0 -77 31.5
t-32 76.5t31.5 77t76.5 32z" />
    <glyph glyph-name="aring" unicode="&#xe5;" horiz-adv-x="909" 
d="M1274 259q-77 -6 -148.5 -22t-112 -36.5t-75.5 -49t-71.5 -60.5t-69.5 -53.5t-64 -36.5t-66 -21.5t-58.5 20.5t-27.5 110q-50 19 -77.5 0t-53 -45t-60 -43t-75 -25.5t-104.5 11t-98 61t-44 93.5t0 100.5t35.5 85.5t62 73.5t81 55.5t99 30t101.5 5.5t70.5 -19.5t33 -40.5
t7.5 -53.5t-19 -47t-46 -20t-44 15t-15 49q15 -34 34.5 -41.5t37.5 0t23.5 35t-3 47t-36.5 32t-73 10.5t-75.5 -18t-57.5 -39.5t-43 -57.5t-14 -93t25.5 -96t54.5 -53t63 -16t58.5 19t51 28.5t35.5 15t67 9.5q2 493 -2.5 538t-22.5 83.5t-67 67t-81 29.5t-68.5 -16
t-45 -40.5t-12.5 -48t2 -39.5t21 -22.5t43 7.5q-17 0 -29 8.5t-9.5 27t17.5 30t37 6.5t33 -26.5t11 -47t-8.5 -41.5t-31 -33.5t-53.5 -22.5t-60 -1t-53.5 27.5t-35 53.5t-10.5 56.5t7.5 56.5t29 55.5t54.5 43t62.5 23.5t60.5 7t77 -4t90 -18t82 -37.5t67 -62t39.5 -68
t14 -71.5t1.5 -121t1 -238t16 -186.5t45 -32t59.5 10.5t57.5 37.5t61 40.5t87.5 30t96 17t109.5 0zM458 1426q80 0 136 -56t56 -135q0 -80 -56 -136t-136 -56q-79 0 -135 56t-56 136q0 79 55.5 135t135.5 56zM458 1357q-51 0 -86.5 -35.5t-35.5 -86.5q0 -50 35.5 -86
t86.5 -36t86.5 36t35.5 86q0 51 -35.5 86.5t-86.5 35.5z" />
    <glyph glyph-name="ae" unicode="&#xe6;" horiz-adv-x="747" 
 />
    <glyph glyph-name="ccedilla" unicode="&#xe7;" horiz-adv-x="909" 
d="M-413 1111q125 -91 238 -116.5t243 -48t234.5 -16.5t158 6t147 -8.5t138.5 -42.5t73.5 -107.5t-11 -138.5t-121.5 -73.5t-130 19.5t-28.5 84.5t62 51t59.5 -28t6 -42.5t-51 -31q45 -28 56.5 -22.5t45.5 14t48 51t-3 87.5t-87.5 76t-138.5 37t-133 -22.5t-110.5 -104.5
t-51 -169.5t20 -195t82 -167t152.5 -76.5t167 17t96 79t73.5 133t153 164t279.5 127q-147 -73 -243 -152.5t-147 -169.5t-82 -155t-90.5 -107.5t-167 -62.5t-229 0t-203.5 -2.5t-158 -71t-139 -121.5q91 119 159 161t147 67.5t84.5 51t-25.5 45t-73.5 99t-39.5 209.5
t31 217.5t73.5 135.5t118.5 77q-169 34 -268 56.5t-186.5 45t-127 48t-102.5 87.5v6zM470 16h60l-50 -79q63 -16 94 -54t31 -92q0 -72 -60 -126.5t-155 -54.5q-37 0 -94 7v43q28 -4 48 -4q51 0 86 33.5t35 76.5q0 30 -23 52t-57 22q-10 0 -26 -2z" />
    <glyph glyph-name="egrave" unicode="&#xe8;" horiz-adv-x="909" 
d="M-572 330q268 108 382 130t270 34q20 -212 66 -312t104 -140t166 -58t142 -6t56 -12t2 -64t-74 -112t-166 -122t-232 -82q140 20 234 50t152 76t100 106t70 132t52 144t58 142t74 92t90 18t134 -60q-72 72 -108 82t-82 6t-86 -16t-50 -50t-32 -72t-64 -62t-130 -40
t-154 10t-108 66t-64 110t-22 186l632 76q-12 120 -46 196t-88 112t-166 46t-212 -32t-150 -110t-60 -116t-34 -116q-168 -28 -286 -64t-370 -168zM208 598q48 112 74 142t92 56t146 10t104 -54t28 -86l-448 -72zM326 1330q-7 28 3.5 43t40.5 15t75 -8t68 -41.5t51 -125.5
t9 -131t-98 -44q46 14 52 31t0 59.5t-49.5 71t-93 68t-59.5 63.5z" />
    <glyph glyph-name="eacute" unicode="&#xe9;" horiz-adv-x="909" 
d="M-572 330q268 108 382 130t270 34q20 -212 66 -312t104 -140t166 -58t142 -6t56 -12t2 -64t-74 -112t-166 -122t-232 -82q140 20 234 50t152 76t100 106t70 132t52 144t58 142t74 92t90 18t134 -60q-72 72 -108 82t-82 6t-86 -16t-50 -50t-32 -72t-64 -62t-130 -40
t-154 10t-108 66t-64 110t-22 186l632 76q-12 120 -46 196t-88 112t-166 46t-212 -32t-150 -110t-60 -116t-34 -116q-168 -28 -286 -64t-370 -168zM208 598q48 112 74 142t92 56t146 10t104 -54t28 -86l-448 -72zM695 1390l-295 -345h-34l105 345h224z" />
    <glyph glyph-name="ecircumflex" unicode="&#xea;" horiz-adv-x="909" 
d="M-572 330q268 108 382 130t270 34q20 -212 66 -312t104 -140t166 -58t142 -6t56 -12t2 -64t-74 -112t-166 -122t-232 -82q140 20 234 50t152 76t100 106t70 132t52 144t58 142t74 92t90 18t134 -60q-72 72 -108 82t-82 6t-86 -16t-50 -50t-32 -72t-64 -62t-130 -40
t-154 10t-108 66t-64 110t-22 186l632 76q-12 120 -46 196t-88 112t-166 46t-212 -32t-150 -110t-60 -116t-34 -116q-168 -28 -286 -64t-370 -168zM208 598q48 112 74 142t92 56t146 10t104 -54t28 -86l-448 -72zM403 1385h184l190 -331h-31l-273 213l-229 -213h-30z" />
    <glyph glyph-name="edieresis" unicode="&#xeb;" horiz-adv-x="909" 
d="M-572 330q268 108 382 130t270 34q20 -212 66 -312t104 -140t166 -58t142 -6t56 -12t2 -64t-74 -112t-166 -122t-232 -82q140 20 234 50t152 76t100 106t70 132t52 144t58 142t74 92t90 18t134 -60q-72 72 -108 82t-82 6t-86 -16t-50 -50t-32 -72t-64 -62t-130 -40
t-154 10t-108 66t-64 110t-22 186l632 76q-12 120 -46 196t-88 112t-166 46t-212 -32t-150 -110t-60 -116t-34 -116q-168 -28 -286 -64t-370 -168zM208 598q48 112 74 142t92 56t146 10t104 -54t28 -86l-448 -72zM671 1336q45 0 76.5 -32t31.5 -77t-31.5 -76.5t-76.5 -31.5
t-77 31.5t-32 76.5t32 77t77 32zM318 1336q46 0 77.5 -32t31.5 -77t-32 -76.5t-76 -31.5q-45 0 -77 31.5t-32 76.5t31.5 77t76.5 32z" />
    <glyph glyph-name="igrave" unicode="&#xec;" horiz-adv-x="569" 
d="M379 943v-736q0 -86 13 -114.5t37.5 -42.5t89.5 -14v-36h-445v36q67 0 90 13t36.5 43t13.5 115v353q0 149 -9 193q-7 32 -22 44.5t-41 12.5q-28 0 -68 -15l-14 36l276 112h43zM118 1330q-7 28 3.5 43t40.5 15t75 -8t68 -41.5t51 -125.5t9 -131t-98 -44q46 14 52 31
t0 59.5t-49.5 71t-93 68t-59.5 63.5z" />
    <glyph glyph-name="iacute" unicode="&#xed;" horiz-adv-x="569" 
d="M379 943v-736q0 -86 13 -114.5t37.5 -42.5t89.5 -14v-36h-445v36q67 0 90 13t36.5 43t13.5 115v353q0 149 -9 193q-7 32 -22 44.5t-41 12.5q-28 0 -68 -15l-14 36l276 112h43zM498 1390l-295 -345h-34l105 345h224z" />
    <glyph glyph-name="icircumflex" unicode="&#xee;" horiz-adv-x="569" 
d="M379 943v-736q0 -86 13 -114.5t37.5 -42.5t89.5 -14v-36h-445v36q67 0 90 13t36.5 43t13.5 115v353q0 149 -9 193q-7 32 -22 44.5t-41 12.5q-28 0 -68 -15l-14 36l276 112h43zM202 1385h184l190 -331h-31l-273 213l-229 -213h-30z" />
    <glyph glyph-name="idieresis" unicode="&#xef;" horiz-adv-x="569" 
d="M379 943v-736q0 -86 13 -114.5t37.5 -42.5t89.5 -14v-36h-445v36q67 0 90 13t36.5 43t13.5 115v353q0 149 -9 193q-7 32 -22 44.5t-41 12.5q-28 0 -68 -15l-14 36l276 112h43zM463 1336q45 0 76.5 -32t31.5 -77t-31.5 -76.5t-76.5 -31.5t-77 31.5t-32 76.5t32 77t77 32z
M110 1336q46 0 77.5 -32t31.5 -77t-32 -76.5t-76 -31.5q-45 0 -77 31.5t-32 76.5t31.5 77t76.5 32z" />
    <glyph glyph-name="eth" unicode="&#xf0;" horiz-adv-x="483" 
 />
    <glyph glyph-name="ntilde" unicode="&#xf1;" 
d="M-287 771q177 3 240 27t148 58.5t143.5 61.5t184.5 43q-82 -41 -91.5 -68t-9.5 -150q114 82 140.5 113.5t50.5 58.5t72.5 39.5t97.5 0t104.5 -63t65 -151.5t7.5 -166t-5 -134t0.5 -126t0 -109t34.5 -131q31 -31 55 -34.5t52.5 -5t50.5 16t63 55.5l-38 -123
q-57 6 -148.5 3t-189 -17.5t-334.5 -86.5l161 63q85 38 107 66t34.5 67.5t0.5 610.5q-10 107 -48 129.5t-67.5 16t-58 -12.5t-69.5 -30t-142 -106v-539q6 -51 15.5 -70t35 -31.5t42.5 -9.5t47 19t36.5 46t0 57t-30 36t-58.5 13q51 12 74.5 1t31.5 -39.5t8 -61.5t-9.5 -56.5
t-35 -36t-52 -17.5t-129 0t-164 -1.5t-248 -55.5t-384.5 -153q139 92 214.5 121.5t157.5 56.5t164 57t104 61.5t25.5 87t1.5 205t-2 258.5t-15.5 140.5t-50.5 33t-57 -4.5t-86.5 -23.5t-115 -17.5t-135.5 9h3zM225 1097h-32q4 137 57 198t131 61q41 0 75 -13
q45 -17 127.5 -71.5t122.5 -54.5q32 0 56.5 27t38.5 112h31q1 -93 -24.5 -147.5t-72 -85t-93.5 -30.5q-79 0 -196 80q-63 43 -85 52t-43 9q-41 0 -65 -36q-11 -17 -28 -101z" />
    <glyph glyph-name="ograve" unicode="&#xf2;" 
d="M810 910q-79 64 -148.5 89t-149 28.5t-146 -8t-120.5 -35.5t-105 -68t-90 -103t-60 -156q54 111 81 144.5t46.5 52t58 46t105 48.5t112.5 23.5t106.5 -1t103 -23.5t70 -51t27.5 -63t19 -59t33.5 -19t39.5 35l-12 -27q24 -99 32.5 -165t7 -125t-9.5 -107.5t-16.5 -86.5
t-48.5 -103t-86.5 -101t-101 -48.5t-113.5 0t-108.5 43.5t-86.5 83t-58 128t-27 138.5t-2.5 136t14 125.5t23.5 81.5t36.5 59t45 48.5t57 26t66.5 -2.5t50 -39.5q-15 44 -42 56t-55.5 12t-59 -7t-54 -22.5t-54.5 -38t-53.5 -47t-37 -39t-45 -70t-43.5 -99.5t-18 -109
t13 -149t60.5 -145.5t97 -109t121 -73.5t137 -35.5t135.5 -1t118.5 31t91.5 52.5t83 86.5t79 130t45 158.5t-5.5 190t-52.5 164t-54 81q38 64 64 87.5t66 33t73.5 -1.5t56.5 -41q-35 50 -70.5 60.5t-71.5 5.5t-69 -26t-53 -42.5t-36.5 -27.5t-11.5 -8zM342 1330
q-7 28 3.5 43t40.5 15t75 -8t68 -41.5t51 -125.5t9 -131t-98 -44q46 14 52 31t0 59.5t-49.5 71t-93 68t-59.5 63.5z" />
    <glyph glyph-name="oacute" unicode="&#xf3;" 
d="M810 910q-79 64 -148.5 89t-149 28.5t-146 -8t-120.5 -35.5t-105 -68t-90 -103t-60 -156q54 111 81 144.5t46.5 52t58 46t105 48.5t112.5 23.5t106.5 -1t103 -23.5t70 -51t27.5 -63t19 -59t33.5 -19t39.5 35l-12 -27q24 -99 32.5 -165t7 -125t-9.5 -107.5t-16.5 -86.5
t-48.5 -103t-86.5 -101t-101 -48.5t-113.5 0t-108.5 43.5t-86.5 83t-58 128t-27 138.5t-2.5 136t14 125.5t23.5 81.5t36.5 59t45 48.5t57 26t66.5 -2.5t50 -39.5q-15 44 -42 56t-55.5 12t-59 -7t-54 -22.5t-54.5 -38t-53.5 -47t-37 -39t-45 -70t-43.5 -99.5t-18 -109
t13 -149t60.5 -145.5t97 -109t121 -73.5t137 -35.5t135.5 -1t118.5 31t91.5 52.5t83 86.5t79 130t45 158.5t-5.5 190t-52.5 164t-54 81q38 64 64 87.5t66 33t73.5 -1.5t56.5 -41q-35 50 -70.5 60.5t-71.5 5.5t-69 -26t-53 -42.5t-36.5 -27.5t-11.5 -8zM723 1390l-295 -345
h-34l105 345h224z" />
    <glyph glyph-name="ocircumflex" unicode="&#xf4;" 
d="M810 910q-79 64 -148.5 89t-149 28.5t-146 -8t-120.5 -35.5t-105 -68t-90 -103t-60 -156q54 111 81 144.5t46.5 52t58 46t105 48.5t112.5 23.5t106.5 -1t103 -23.5t70 -51t27.5 -63t19 -59t33.5 -19t39.5 35l-12 -27q24 -99 32.5 -165t7 -125t-9.5 -107.5t-16.5 -86.5
t-48.5 -103t-86.5 -101t-101 -48.5t-113.5 0t-108.5 43.5t-86.5 83t-58 128t-27 138.5t-2.5 136t14 125.5t23.5 81.5t36.5 59t45 48.5t57 26t66.5 -2.5t50 -39.5q-15 44 -42 56t-55.5 12t-59 -7t-54 -22.5t-54.5 -38t-53.5 -47t-37 -39t-45 -70t-43.5 -99.5t-18 -109
t13 -149t60.5 -145.5t97 -109t121 -73.5t137 -35.5t135.5 -1t118.5 31t91.5 52.5t83 86.5t79 130t45 158.5t-5.5 190t-52.5 164t-54 81q38 64 64 87.5t66 33t73.5 -1.5t56.5 -41q-35 50 -70.5 60.5t-71.5 5.5t-69 -26t-53 -42.5t-36.5 -27.5t-11.5 -8zM431 1385h184
l190 -331h-31l-273 213l-229 -213h-30z" />
    <glyph glyph-name="otilde" unicode="&#xf5;" 
d="M810 910q-79 64 -148.5 89t-149 28.5t-146 -8t-120.5 -35.5t-105 -68t-90 -103t-60 -156q54 111 81 144.5t46.5 52t58 46t105 48.5t112.5 23.5t106.5 -1t103 -23.5t70 -51t27.5 -63t19 -59t33.5 -19t39.5 35l-12 -27q24 -99 32.5 -165t7 -125t-9.5 -107.5t-16.5 -86.5
t-48.5 -103t-86.5 -101t-101 -48.5t-113.5 0t-108.5 43.5t-86.5 83t-58 128t-27 138.5t-2.5 136t14 125.5t23.5 81.5t36.5 59t45 48.5t57 26t66.5 -2.5t50 -39.5q-15 44 -42 56t-55.5 12t-59 -7t-54 -22.5t-54.5 -38t-53.5 -47t-37 -39t-45 -70t-43.5 -99.5t-18 -109
t13 -149t60.5 -145.5t97 -109t121 -73.5t137 -35.5t135.5 -1t118.5 31t91.5 52.5t83 86.5t79 130t45 158.5t-5.5 190t-52.5 164t-54 81q38 64 64 87.5t66 33t73.5 -1.5t56.5 -41q-35 50 -70.5 60.5t-71.5 5.5t-69 -26t-53 -42.5t-36.5 -27.5t-11.5 -8zM224 1097h-32
q4 137 57 198t131 61q41 0 75 -13q45 -17 127.5 -71.5t122.5 -54.5q32 0 56.5 27t38.5 112h31q1 -93 -24.5 -147.5t-72 -85t-93.5 -30.5q-79 0 -196 80q-63 43 -85 52t-43 9q-41 0 -65 -36q-11 -17 -28 -101z" />
    <glyph glyph-name="odieresis" unicode="&#xf6;" 
d="M810 910q-79 64 -148.5 89t-149 28.5t-146 -8t-120.5 -35.5t-105 -68t-90 -103t-60 -156q54 111 81 144.5t46.5 52t58 46t105 48.5t112.5 23.5t106.5 -1t103 -23.5t70 -51t27.5 -63t19 -59t33.5 -19t39.5 35l-12 -27q24 -99 32.5 -165t7 -125t-9.5 -107.5t-16.5 -86.5
t-48.5 -103t-86.5 -101t-101 -48.5t-113.5 0t-108.5 43.5t-86.5 83t-58 128t-27 138.5t-2.5 136t14 125.5t23.5 81.5t36.5 59t45 48.5t57 26t66.5 -2.5t50 -39.5q-15 44 -42 56t-55.5 12t-59 -7t-54 -22.5t-54.5 -38t-53.5 -47t-37 -39t-45 -70t-43.5 -99.5t-18 -109
t13 -149t60.5 -145.5t97 -109t121 -73.5t137 -35.5t135.5 -1t118.5 31t91.5 52.5t83 86.5t79 130t45 158.5t-5.5 190t-52.5 164t-54 81q38 64 64 87.5t66 33t73.5 -1.5t56.5 -41q-35 50 -70.5 60.5t-71.5 5.5t-69 -26t-53 -42.5t-36.5 -27.5t-11.5 -8zM687 1336
q45 0 76.5 -32t31.5 -77t-31.5 -76.5t-76.5 -31.5t-77 31.5t-32 76.5t32 77t77 32zM334 1336q46 0 77.5 -32t31.5 -77t-32 -76.5t-76 -31.5q-45 0 -77 31.5t-32 76.5t31.5 77t76.5 32z" />
    <glyph glyph-name="divide" unicode="&#xf7;" horiz-adv-x="636" 
 />
    <glyph glyph-name="oslash" unicode="&#xf8;" horiz-adv-x="366" 
 />
    <glyph glyph-name="ugrave" unicode="&#xf9;" 
d="M-417 768q113 58 208.5 87.5t167.5 43t165.5 22t163.5 1t166 24.5q-60 -38 -86 -62t-39 -87t-12 -307t18 -295.5t48.5 -70t78.5 -23t94 10.5t148 117q-2 564 -12.5 593t-36 38.5t-56.5 8.5t-89 -27t-114 -118q44 105 97.5 137t120.5 45.5t171.5 15t149.5 22t80.5 32
t66 -1t52.5 -37.5t14.5 -54.5t-24 -50t-54.5 -29.5l38 21q23 36 28 61t-17 44t-47 25t-55.5 -3.5t-74.5 -38.5t-60.5 -64.5t-17.5 -220t5 -312.5t16.5 -160t27.5 -40.5t50.5 -7.5t128.5 53.5t292 77.5q-180 -42 -242.5 -72.5t-139 -75.5t-140.5 -82.5t-109 -46t-84 -10.5
t-74 21q31 -9 56 -9t40 19t19 46t4 61t-6 84q-67 -69 -107 -102.5t-80.5 -56.5t-93 -30.5t-95.5 4t-97.5 63t-66 137t-11.5 188.5t5.5 228.5t-2 171.5t-37 74.5t-71.5 30.5t-100.5 -4.5t-153.5 -34.5t-215 -79v5zM348 1330q-7 28 3.5 43t40.5 15t75 -8t68 -41.5t51 -125.5
t9 -131t-98 -44q46 14 52 31t0 59.5t-49.5 71t-93 68t-59.5 63.5z" />
    <glyph glyph-name="uacute" unicode="&#xfa;" 
d="M-417 768q113 58 208.5 87.5t167.5 43t165.5 22t163.5 1t166 24.5q-60 -38 -86 -62t-39 -87t-12 -307t18 -295.5t48.5 -70t78.5 -23t94 10.5t148 117q-2 564 -12.5 593t-36 38.5t-56.5 8.5t-89 -27t-114 -118q44 105 97.5 137t120.5 45.5t171.5 15t149.5 22t80.5 32
t66 -1t52.5 -37.5t14.5 -54.5t-24 -50t-54.5 -29.5l38 21q23 36 28 61t-17 44t-47 25t-55.5 -3.5t-74.5 -38.5t-60.5 -64.5t-17.5 -220t5 -312.5t16.5 -160t27.5 -40.5t50.5 -7.5t128.5 53.5t292 77.5q-180 -42 -242.5 -72.5t-139 -75.5t-140.5 -82.5t-109 -46t-84 -10.5
t-74 21q31 -9 56 -9t40 19t19 46t4 61t-6 84q-67 -69 -107 -102.5t-80.5 -56.5t-93 -30.5t-95.5 4t-97.5 63t-66 137t-11.5 188.5t5.5 228.5t-2 171.5t-37 74.5t-71.5 30.5t-100.5 -4.5t-153.5 -34.5t-215 -79v5zM699 1390l-295 -345h-34l105 345h224z" />
    <glyph glyph-name="ucircumflex" unicode="&#xfb;" 
d="M-417 768q113 58 208.5 87.5t167.5 43t165.5 22t163.5 1t166 24.5q-60 -38 -86 -62t-39 -87t-12 -307t18 -295.5t48.5 -70t78.5 -23t94 10.5t148 117q-2 564 -12.5 593t-36 38.5t-56.5 8.5t-89 -27t-114 -118q44 105 97.5 137t120.5 45.5t171.5 15t149.5 22t80.5 32
t66 -1t52.5 -37.5t14.5 -54.5t-24 -50t-54.5 -29.5l38 21q23 36 28 61t-17 44t-47 25t-55.5 -3.5t-74.5 -38.5t-60.5 -64.5t-17.5 -220t5 -312.5t16.5 -160t27.5 -40.5t50.5 -7.5t128.5 53.5t292 77.5q-180 -42 -242.5 -72.5t-139 -75.5t-140.5 -82.5t-109 -46t-84 -10.5
t-74 21q31 -9 56 -9t40 19t19 46t4 61t-6 84q-67 -69 -107 -102.5t-80.5 -56.5t-93 -30.5t-95.5 4t-97.5 63t-66 137t-11.5 188.5t5.5 228.5t-2 171.5t-37 74.5t-71.5 30.5t-100.5 -4.5t-153.5 -34.5t-215 -79v5zM423 1385h184l190 -331h-31l-273 213l-229 -213h-30z" />
    <glyph glyph-name="udieresis" unicode="&#xfc;" 
d="M-417 768q113 58 208.5 87.5t167.5 43t165.5 22t163.5 1t166 24.5q-60 -38 -86 -62t-39 -87t-12 -307t18 -295.5t48.5 -70t78.5 -23t94 10.5t148 117q-2 564 -12.5 593t-36 38.5t-56.5 8.5t-89 -27t-114 -118q44 105 97.5 137t120.5 45.5t171.5 15t149.5 22t80.5 32
t66 -1t52.5 -37.5t14.5 -54.5t-24 -50t-54.5 -29.5l38 21q23 36 28 61t-17 44t-47 25t-55.5 -3.5t-74.5 -38.5t-60.5 -64.5t-17.5 -220t5 -312.5t16.5 -160t27.5 -40.5t50.5 -7.5t128.5 53.5t292 77.5q-180 -42 -242.5 -72.5t-139 -75.5t-140.5 -82.5t-109 -46t-84 -10.5
t-74 21q31 -9 56 -9t40 19t19 46t4 61t-6 84q-67 -69 -107 -102.5t-80.5 -56.5t-93 -30.5t-95.5 4t-97.5 63t-66 137t-11.5 188.5t5.5 228.5t-2 171.5t-37 74.5t-71.5 30.5t-100.5 -4.5t-153.5 -34.5t-215 -79v5zM687 1336q45 0 76.5 -32t31.5 -77t-31.5 -76.5t-76.5 -31.5
t-77 31.5t-32 76.5t32 77t77 32zM334 1336q46 0 77.5 -32t31.5 -77t-32 -76.5t-76 -31.5q-45 0 -77 31.5t-32 76.5t31.5 77t76.5 32z" />
    <glyph glyph-name="yacute" unicode="&#xfd;" horiz-adv-x="393" 
 />
    <glyph glyph-name="thorn" unicode="&#xfe;" horiz-adv-x="348" 
 />
    <glyph glyph-name="ydieresis" unicode="&#xff;" horiz-adv-x="393" 
 />
    <glyph glyph-name="dotlessi" unicode="&#x131;" horiz-adv-x="234" 
 />
    <glyph glyph-name="Lslash" unicode="&#x141;" horiz-adv-x="570" 
 />
    <glyph glyph-name="lslash" unicode="&#x142;" horiz-adv-x="213" 
 />
    <glyph glyph-name="OE" unicode="&#x152;" horiz-adv-x="954" 
 />
    <glyph glyph-name="oe" unicode="&#x153;" horiz-adv-x="756" 
 />
    <glyph glyph-name="Scaron" unicode="&#x160;" horiz-adv-x="621" 
 />
    <glyph glyph-name="scaron" unicode="&#x161;" horiz-adv-x="342" 
 />
    <glyph glyph-name="Ydieresis" unicode="&#x178;" horiz-adv-x="526" 
 />
    <glyph glyph-name="Zcaron" unicode="&#x17d;" horiz-adv-x="690" 
 />
    <glyph glyph-name="zcaron" unicode="&#x17e;" horiz-adv-x="462" 
 />
    <glyph glyph-name="florin" unicode="&#x192;" horiz-adv-x="576" 
 />
    <glyph glyph-name="circumflex" unicode="&#x2c6;" horiz-adv-x="360" 
 />
    <glyph glyph-name="caron" unicode="&#x2c7;" horiz-adv-x="360" 
 />
    <glyph glyph-name="breve" unicode="&#x2d8;" horiz-adv-x="360" 
 />
    <glyph glyph-name="dotaccent" unicode="&#x2d9;" horiz-adv-x="183" 
 />
    <glyph glyph-name="ring" unicode="&#x2da;" horiz-adv-x="360" 
 />
    <glyph glyph-name="ogonek" unicode="&#x2db;" horiz-adv-x="270" 
 />
    <glyph glyph-name="tilde" unicode="&#x2dc;" horiz-adv-x="483" 
 />
    <glyph glyph-name="hungarumlaut" unicode="&#x2dd;" horiz-adv-x="468" 
 />
    <glyph glyph-name="Delta" unicode="&#x394;" horiz-adv-x="366" 
 />
    <glyph glyph-name="Delta" unicode="&#x2206;" horiz-adv-x="366" 
 />
    <glyph glyph-name="Omega" unicode="&#x3a9;" horiz-adv-x="1443" 
 />
    <glyph glyph-name="Omega" unicode="&#x2126;" horiz-adv-x="1443" 
 />
    <glyph glyph-name="pi" unicode="&#x3c0;" horiz-adv-x="798" 
 />
    <glyph glyph-name="endash" unicode="&#x2013;" horiz-adv-x="684" 
 />
    <glyph glyph-name="emdash" unicode="&#x2014;" horiz-adv-x="894" 
 />
    <glyph glyph-name="quoteleft" unicode="&#x2018;" horiz-adv-x="237" 
 />
    <glyph glyph-name="quoteright" unicode="&#x2019;" horiz-adv-x="240" 
 />
    <glyph glyph-name="quotesinglbase" unicode="&#x201a;" horiz-adv-x="234" 
 />
    <glyph glyph-name="quotedblleft" unicode="&#x201c;" horiz-adv-x="342" 
 />
    <glyph glyph-name="quotedblright" unicode="&#x201d;" horiz-adv-x="300" 
 />
    <glyph glyph-name="quotedblbase" unicode="&#x201e;" horiz-adv-x="402" 
 />
    <glyph glyph-name="dagger" unicode="&#x2020;" 
d="M524 -421h-37q-4 436 -32 702q-21 199 -69 378q51 44 73 93t28 144q-65 -7 -132 -35q-105 -44 -153 -44q-45 0 -73 27t-28 68q0 42 29.5 70.5t73.5 28.5q25 0 46 -6q11 -3 105 -44q60 -26 132 -30q-1 41 -7 62q-7 31 -30 86q-54 128 -54 194q0 58 33 94t79 36
q42 0 75.5 -37.5t33.5 -92.5q0 -30 -8 -60q-10 -39 -45.5 -125.5t-39.5 -156.5q71 6 132 30q99 39 115 43q22 6 45 6q48 0 77.5 -28t29.5 -70q0 -40 -29.5 -68t-73.5 -28q-55 0 -165 47q-48 20 -69 25t-62 8q5 -94 27.5 -145t72.5 -92q-48 -183 -67 -363.5t-33 -716.5z" />
    <glyph glyph-name="daggerdbl" unicode="&#x2021;" horiz-adv-x="336" 
 />
    <glyph glyph-name="bullet" unicode="&#x2022;" horiz-adv-x="717" 
d="M363 928q104 0 177.5 -73.5t73.5 -177.5t-73.5 -177.5t-177.5 -73.5t-177.5 73.5t-73.5 177.5t73 177.5t178 73.5z" />
    <glyph glyph-name="ellipsis" unicode="&#x2026;" horiz-adv-x="792" 
 />
    <glyph glyph-name="perthousand" unicode="&#x2030;" horiz-adv-x="729" 
 />
    <glyph glyph-name="guilsinglleft" unicode="&#x2039;" horiz-adv-x="321" 
 />
    <glyph glyph-name="guilsinglright" unicode="&#x203a;" horiz-adv-x="321" 
 />
    <glyph glyph-name="fraction" unicode="&#x2044;" horiz-adv-x="234" 
 />
    <glyph glyph-name="trademark" unicode="&#x2122;" horiz-adv-x="2007" 
d="M51 1356h728l22 -201h-34q-10 72 -52.5 106.5t-141.5 34.5h-75v-579q0 -84 20 -106.5t86 -25.5v-36h-374v36q65 6 82.5 27.5t17.5 103.5v580h-76q-95 0 -135 -31.5t-55 -109.5h-34zM1156 1356l273 -572l265 572h279v-37q-56 -1 -74.5 -11t-27.5 -32t-9 -92v-468
q0 -85 19 -106t92 -25v-36h-398v36q59 1 79.5 12t30 32t9.5 86v492l-307 -658h-32l-308 649v-482q0 -68 8.5 -88.5t27 -31.5t57.5 -11h36v-36h-306v36q56 0 75.5 10t28.5 31t9 90v466q0 76 -8.5 96t-28.5 30.5t-76 10.5v37h286z" />
    <glyph glyph-name="partialdiff" unicode="&#x2202;" horiz-adv-x="483" 
 />
    <glyph glyph-name="product" unicode="&#x220f;" horiz-adv-x="798" 
 />
    <glyph glyph-name="summation" unicode="&#x2211;" horiz-adv-x="1398" 
 />
    <glyph glyph-name="radical" unicode="&#x221a;" horiz-adv-x="819" 
 />
    <glyph glyph-name="infinity" unicode="&#x221e;" horiz-adv-x="669" 
 />
    <glyph glyph-name="integral" unicode="&#x222b;" horiz-adv-x="1398" 
 />
    <glyph glyph-name="approxequal" unicode="&#x2248;" horiz-adv-x="636" 
 />
    <glyph glyph-name="approxequal" unicode="&#x22f2;" horiz-adv-x="636" 
 />
    <glyph glyph-name="notequal" unicode="&#x2260;" horiz-adv-x="636" 
 />
    <glyph glyph-name="lessequal" unicode="&#x2264;" horiz-adv-x="342" 
 />
    <glyph glyph-name="greaterequal" unicode="&#x2265;" horiz-adv-x="342" 
 />
    <glyph glyph-name="lozenge" unicode="&#x25ca;" horiz-adv-x="243" 
 />
    <glyph glyph-name="apple" unicode="&#xf000;" horiz-adv-x="588" 
 />
    <glyph glyph-name="fi" unicode="&#xf001;" horiz-adv-x="525" 
 />
    <glyph glyph-name="fl" unicode="&#xf002;" horiz-adv-x="480" 
 />
  </font>
</defs>
</svg>
